<?xml version="1.0" encoding="utf-8"?>
<!-- Generator: Adobe Illustrator 22.1.0, SVG Export Plug-In . SVG Version: 6.00 Build 0)  -->
<svg version="1.1" id="Слой_1" xmlns="http://www.w3.org/2000/svg" xmlns:xlink="http://www.w3.org/1999/xlink" x="0px" y="0px"
	 viewBox="0 0 75 75" style="enable-background:new 0 0 75 75;" xml:space="preserve">
<g transform="scale(1 -1)">
	<g transform="translate(0 -75)">
		<g>
			<path marker-start="none" marker-end="none" d="M16.4,2.9c-1.1,0-2.1,0.1-3.1,0.2c-0.4,0-0.9,0.1-1.3,0.1
				c-0.7,0.1-1.4,0.2-2.1,0.3c-0.2,0-0.4,0.1-0.7,0.1c0,0,0-0.1-0.1-0.1C9,3.4,8.8,3.5,8.7,3.6c0,0-0.1,0.1-0.1,0.1
				C8.1,3.9,7.6,4,7.2,4.2C7,4.3,6.9,4.5,7,4.7c0.1,0.2,0.3,0.2,0.4,0.1C7.6,4.8,7.8,4.7,8,4.6c0.1,0,0.2-0.1,0.3-0.1
				c0,0.2-0.1,0.5-0.1,0.7c0,0.1,0,0.1,0,0.2h-3C5,5.4,4.8,5.5,4.8,5.7C4.8,5.9,5,6,5.1,6h0.1C5.2,6.2,5.1,6.3,5,6.5
				c0,0.1-0.1,0.2-0.1,0.3c-0.1,0-0.2,0-0.4,0.1c-0.1,0-0.2,0.2-0.2,0.3c0,0.1,0.2,0.2,0.3,0.2c0,0,0,0,0,0C4.6,7.4,4.5,7.6,4.4,7.8
				c0,0.1,0,0.1-0.1,0.2c0,0.1-0.1,0.2-0.1,0.3c0,0.1,0.1,0.3,0.2,0.3c0,0,0.1,0,0.1,0c0,14,0,27.9,0,41.9c0,0.1-0.1,0.2-0.1,0.3
				c0,0.1,0,0.2,0,0.3c-0.1,0-0.2,0.1-0.2,0.3c0,0.2,0.1,0.3,0.3,0.3c0,0,0,0,0,0c0,0.1,0,0.1,0,0.2c0,0,0,0.1,0,0.1
				c-0.2,0-0.4,0.1-0.6,0.1c0-0.3,0-0.5,0-0.8c0-0.3-0.5-0.4-0.6,0c-0.1,0.4-0.2,0.7-0.2,1.1c-0.1,0-0.2,0.1-0.3,0.1
				c-0.1,0-0.2,0.2-0.1,0.3c0,0.1,0.2,0.2,0.3,0.1c0,0,0,0,0,0c0,0,0,0,0,0c0,0.1,0,0.2,0,0.3c-0.2,0-0.3,0.2-0.3,0.3
				c0,0.1,0,0.2-0.1,0.3c-0.1,0.1-0.2,0.2-0.2,0.3c-0.1-0.1-0.2-0.2-0.3-0.2c-0.2,0-0.4,0.2-0.4,0.4c0.1,1.6,0.1,3.2,0.2,4.7
				c0,0.7,0.1,1.4,0.1,2.1c0.1,0.8,0.1,1.5,0.2,2.3c0.1,0.7,0.1,1.5,0.2,2.2c0,0.1,0,0.2,0,0.3c0,0,0,0.1,0,0.1
				c0.1,0.7,0.1,1.3,0.2,1.9c-0.1,0.6-0.1,1.1-0.1,1.7c0,0.4,0,0.9,0.2,1.3c0.1,0.2,0.2,0.4,0.3,0.6c0.1,0.1,0.2,0.2,0.3,0.3
				c0,0,0,0,0,0.1c0,0,0,0,0,0H2.8c-0.2,0-0.4,0.2-0.4,0.4c0,0.2,0.2,0.4,0.4,0.4h2.4c0.4,0.2,0.8,0.3,1.3,0.4
				c0.3,0.1,0.7,0.1,1,0.2c0.2,0,0.4-0.1,0.4-0.3c0-0.1,0-0.2,0-0.2h2.3c-0.1,0.1-0.2,0.2-0.2,0.2c0,0,0,0.1,0,0.2c0,0,0.1,0,0.2,0
				c0.1-0.1,0.3-0.3,0.4-0.4h9v0c0,0,0,0.1,0,0.1c0,0,0.1,0,0.1,0c0,0,0,0,0.1-0.1h35.1c1,0.1,1.9,0.1,2.9,0.2
				c1.3,0.1,2.7,0.2,4,0.2c0.5,0,1,0.1,1.5,0.1c0.2,0,0.4,0,0.5,0c0.3,0,0.5,0,0.8,0c0.2,0,0.4,0,0.6,0c0.4,0,0.9-0.1,1.3-0.2
				c0.5-0.1,0.9-0.1,1.4-0.2c0.2,0,0.5-0.1,0.8,0c0.1,0,0.2,0,0.3-0.1h0.8c0.2,0,0.4-0.2,0.4-0.4c0-0.2-0.2-0.4-0.4-0.4h-0.7
				c0,0,0.1-0.1,0.1-0.1c0.6-0.6,1.2-1.2,1.7-1.9c0.1-0.2,0.3-0.3,0.4-0.5c-0.1,0.7-0.2,1.3-0.3,2c-0.1,0.1-0.2,0.2-0.3,0.2
				l-0.1,0.1l0,0c-0.1,0-0.1,0.1-0.2,0.2c0,0-0.1,0.1-0.1,0.1l0,0.1c-0.1,0.1-0.1,0.2,0,0.3c0,0.1,0.1,0.1,0.2,0.2l0.1,0
				c0.1,0,0.1,0,0.2,0c0,0,0,0,0.1,0c0,0,0.1,0,0.1-0.1l0.1-0.1l0.2-0.1l0.1,0c0.2-0.1,0.3-0.2,0.5-0.2c0.2-0.1,0.4-0.2,0.6-0.3
				c0.1,0,0.2-0.1,0.3-0.2c0,0,0.1,0,0.1-0.1c0.1-0.1,0.1-0.3,0.1-0.4l0,0c0,0,0.1-0.1,0.1-0.1c0.1-0.2,0.1-0.4,0-0.5
				c0-0.1,0-0.1,0-0.2c0-0.1,0.1-0.2,0.1-0.3c0-0.4,0-0.8,0-1.2c0-1,0-2,0-3c0-0.4,0-0.9,0-1.3c0,0,0,0,0,0c0,0.5,0,1,0,1.5
				c0,0.2,0.1,0.3,0.3,0.3c0.2,0,0.3-0.1,0.3-0.3c0-4.5,0-9,0-13.5c0-0.2-0.1-0.3-0.3-0.3c-0.2,0-0.3,0.1-0.3,0.3c0,0.9,0,1.8,0,2.8
				c0,0,0,0,0,0c0-0.1,0-0.3,0-0.4c0-0.1,0-0.1-0.1-0.2c0-0.1,0-0.1-0.1-0.2c0,0,0,0-0.1-0.1c0-0.3-0.1-0.6-0.1-0.9
				c0-0.2-0.1-0.8-0.2-1c-0.1-0.2-0.3-0.2-0.5-0.3c0,0,0,0,0,0c0.3,0,0.4-0.3,0.4-0.5c0-0.3-0.3-0.4-0.5-0.4c-0.1,0-0.2,0-0.3,0.1
				c-0.2,0-0.3,0.1-0.5,0.1c-0.1,0-0.2,0-0.2,0c0-2,0-4.1,0-6.1c0-0.5,0.1-0.9,0.1-1.4c0.1-1.1,0.1-2.1,0.2-3.2
				c0.1-0.8,0.1-1.6,0.1-2.4c0.1-1.9,0.1-3.7,0.2-5.6c0.1-1.5,0.1-3,0.1-4.5c0-0.8,0-1.6,0-2.4c0-0.4,0-0.9,0-1.3c0-0.8,0-1.5,0-2.3
				c0-1.7-0.1-3.4-0.1-5.2c0-0.9-0.1-1.7-0.2-2.6c0-0.3-0.1-0.7-0.1-1c0-0.4-0.1-0.8-0.2-1.3c-0.1-0.4-0.1-0.9-0.2-1.3
				c0-0.7,0-1.5,0-2.2c0,0.2,0.1,0.3,0.1,0.5c0,0.2,0.2,0.3,0.4,0.2c0.2,0,0.3-0.2,0.2-0.4c-0.1-0.6-0.3-1.3-0.5-1.9
				c-0.1-0.2-0.2-0.4-0.3-0.6c-0.1-0.2-0.2-0.4-0.3-0.5c0-0.1,0-0.1,0-0.2c0.1-0.1,0.2-0.3,0.2-0.4c0-0.1,0-0.1,0-0.2
				c0,0,0-0.1,0-0.2c0-0.2,0.1-0.5-0.1-0.7c0,0-0.1,0-0.1-0.1c0,0,0-0.1,0-0.1c0,0,0,0,0-0.1c0,0,0,0,0,0c0-0.2,0-0.3,0-0.5
				c0-0.2-0.2-0.4-0.4-0.4c-0.2,0-0.4,0.1-0.4,0.3c0,0,0,0,0,0c-0.2-0.1-0.5-0.1-0.7-0.2c-0.2,0-0.4-0.1-0.5-0.1
				c-0.3,0-0.5,0-0.8-0.1c-0.7,0-1.4,0-2.1,0c-0.8,0-1.5,0.1-2.3,0.1c-0.4,0-0.8,0.1-1.2,0.1c-0.2,0-0.4,0-0.6,0c-0.2,0-0.3,0-0.5,0
				c-0.2,0-0.3,0-0.5,0c-0.6,0-1.3-0.1-1.9-0.1C54.5,3.2,51,3.1,47.5,3.2c-3.2,0-6.4,0.1-9.6,0.1c-3,0-5.9,0-8.9,0
				c-0.4,0-0.7,0-1.1,0c-1.1,0-2.2-0.1-3.3-0.1c-0.2,0-0.4,0-0.6,0c-0.2,0-0.5,0-0.7,0c-0.5,0-1.1,0-1.7-0.1c-0.5,0-1.1,0-1.6,0
				C18.8,2.9,17.6,2.9,16.4,2.9z M20.9,3.8c0.3,0,0.7,0,1,0c0.8,0,1.6,0.1,2.3,0.1c0.8,0,1.6,0.1,2.3,0.1c1.4,0.1,2.9,0.1,4.3,0.1
				c1.3,0,2.6,0,3.9,0c3.2,0,6.4-0.1,9.6-0.1c1.8,0,3.5,0,5.3,0c0,0,0,0,0,0c0.3,0.2,0.6,0.5,0.9,0.8c-0.2-0.1-0.4-0.2-0.6-0.3
				c-0.2-0.1-0.5,0-0.6,0.2c-0.1,0.2,0,0.5,0.2,0.6c0,0,0,0,0,0H49c0.2-0.1,0.3-0.3,0.2-0.5c0-0.3-0.3-0.4-0.5-0.4
				c-0.2,0-0.5,0.1-0.7,0.1c-0.2,0-0.4,0-0.5,0.1c-0.4,0-0.8,0.1-1.1,0.1C44.6,4.9,43,5,41.3,5.1c-2.1,0.1-4.3,0.2-6.4,0.2
				c-0.8,0-1.7,0-2.5,0.1c-0.3,0-0.6,0-0.9,0c-0.1,0-0.2,0-0.4,0H8.8c0-0.2,0.1-0.4,0.1-0.6c0-0.1,0.1-0.3,0.1-0.5
				c0.2,0,0.5-0.1,0.7-0.1C10.3,4.1,11,4,11.6,4c0.6,0,1.1-0.1,1.7-0.1c1.3,0,2.6-0.1,3.9-0.1c0.4,0,0.7,0,1.1,0h1.1
				C19.9,3.8,20.4,3.8,20.9,3.8z M50.4,4.1L50.4,4.1C50.3,4.1,50.3,4.1,50.4,4.1L50.4,4.1z M54.3,4.1c1.4,0,2.9,0.1,4.3,0.2
				c0.4,0,0.8,0,1.2,0.1c0.1,0,0.2,0,0.3,0c0.2,0,0.3,0,0.5,0c0.4,0,0.8,0,1.3,0c1.4-0.1,2.8-0.2,4.2-0.2c0.7,0,1.5,0,2.2,0.1
				c0.3,0,0.6,0.1,0.9,0.3c0,0.2,0,0.4,0,0.6c0,0.1,0,0.1,0,0.2c0,0-0.1,0-0.1,0h-16c-0.4-0.3-0.8-0.5-1.1-0.8
				c-0.3-0.2-0.5-0.4-0.8-0.5C52.2,4.1,53.2,4.1,54.3,4.1z M50.5,4.2C50.4,4.1,50.4,4.1,50.5,4.2L50.5,4.2L50.5,4.2
				C50.5,4.1,50.7,4.2,50.5,4.2z M8.2,6.2C7.6,6.3,7.1,6.4,6.6,6.4c0-0.1,0-0.2,0-0.2c0-0.1,0-0.1-0.1-0.2h1.6
				C8.1,6.1,8.1,6.2,8.2,6.2z M9.4,6.1c-0.3,0-0.5,0.1-0.8,0.1c0,0,0-0.1,0-0.1c0,0,0,0,0,0h1.2C9.7,6,9.6,6.1,9.4,6.1z M48.5,6.1
				c0.7,0.2,1.5,0.5,2.2,0.7L51.2,7l0.4,0.2c0.9,0.5,1.7,1,2.4,1.6c0,0-0.1,0.1-0.1,0.1c-0.1,0-0.1,0.1,0,0.2c0,0.1,0.1,0.1,0.2,0
				c0.1,0,0.1-0.1,0.2-0.1c0.1,0.1,0.3,0.2,0.4,0.3l0.2,0.2c0,0,0,0,0,0c0.1,0.1,0.2,0.2,0.3,0.4c0,0,0,0,0,0
				c-0.1,0.1-0.1,0.1,0,0.2c0,0.1,0.1,0.1,0.2,0c0,0,0,0,0,0c0.2,0.2,0.3,0.5,0.4,0.7c0.1,0.1,0.1,0.2,0.2,0.3
				c0.2,0.3,0.3,0.6,0.4,1c0.2,0.5,0.4,1.1,0.5,1.6c0.2,0.8,0.3,1.9,0.2,2.7c0,0.4-0.1,0.7-0.1,1c0,0.1,0.1,0.2,0.2,0.2
				c0.1,0,0.2-0.1,0.2-0.2c0-0.4,0.1-0.7,0.1-1.1c0-0.3,0-0.5,0-0.8c0,0.2,0.1,0.4,0.1,0.6c0.1,0.6,0.1,1.2,0,1.7
				c0,0.2,0,0.3-0.1,0.5c0,0.2,0.1,0.4,0.3,0.4c0.1,0,0.1,0,0.2,0l0,0c0,0.1,0,0.1,0.1,0.2c0,0.1,0,0.1,0,0.1l0,0.1v0l0,0.1
				c0,0,0,0.1,0.1,0.1c0,0,0,0,0.1,0.1h-2.5c0.1-1.8,0.1-3.5,0.3-5.3c0-0.1-0.1-0.1-0.1-0.2c-0.1,0-0.1,0.1-0.2,0.1
				c0,0.3,0,0.7-0.1,1c0,0.7-0.1,1.5-0.1,2.2c0,0.7-0.1,1.4-0.1,2h-6.5c0.1-1.8,0.1-3.5,0.3-5.3c0-0.1-0.1-0.1-0.1-0.2
				c-0.1,0-0.1,0.1-0.2,0.1c0,0.3,0,0.7-0.1,1c0,0.7-0.1,1.5-0.1,2.2c0,0.7-0.1,1.4-0.1,2H42c0.1-1.8,0.1-3.5,0.3-5.3
				c0-0.1-0.1-0.1-0.1-0.2S42,14.4,42,14.5c0,0.3,0,0.7-0.1,1c0,0.7-0.1,1.5-0.1,2.2c0,0.7-0.1,1.4-0.1,2h-6.5
				c0.1-1.8,0.1-3.5,0.3-5.3c0-0.1-0.1-0.1-0.1-0.2c-0.1,0-0.1,0.1-0.2,0.1c0,0.3,0,0.7-0.1,1c0,0.7-0.1,1.5-0.1,2.2
				c0,0.7-0.1,1.4-0.1,2h-6.5c0.1-1.8,0.1-3.5,0.3-5.3c0-0.1-0.1-0.1-0.1-0.2c-0.1,0-0.1,0.1-0.2,0.1c0,0.3,0,0.7-0.1,1
				c0,0.7-0.1,1.5-0.1,2.2c0,0.7-0.1,1.4-0.1,2h-6.5c0.1-1.8,0.1-3.5,0.3-5.3c0-0.1-0.1-0.1-0.1-0.2c-0.1,0-0.1,0.1-0.2,0.1
				c0,0.3,0,0.7-0.1,1c0,0.7-0.1,1.5-0.1,2.2c0,0.7-0.1,1.4-0.1,2h-6.2c0-1.1,0-2.2,0-3.3c0-0.6,0-1.2,0-1.8c0-0.2,0-0.4,0-0.7
				c0.4,0,0.8,0,1.2,0c0.2,0,0.3,0,0.5,0h0.6c1.8-0.1,3.6-0.1,5.5,0c0.8,0,1.7,0,2.5,0c2.3,0,4.5,0.1,6.8,0.2c1.2,0,2.4,0,3.5,0.1
				c1,0,2.1,0,3.2,0c0.9,0,1.8,0,2.6-0.1c1.4-0.1,2.8-0.1,4.2-0.2c1.2,0,2.5-0.1,3.7-0.1c0.5,0,0.9,0,1.4,0c0.4,0,0.8,0,1.1,0
				c0.3,0,0.7,0,1,0c0.5,0,0.9,0,1.4,0c0.3,0,0.5-0.2,0.5-0.4c0-0.3-0.2-0.5-0.4-0.5c-0.7,0-1.4,0-2.2,0c-0.3,0-0.6,0-0.8,0
				c-0.7,0-1.4,0-2.2,0c-1.5,0-2.9,0.1-4.4,0.2c-1.1,0-2.2,0.1-3.2,0.1c-0.3,0-0.5,0-0.8,0c-0.8,0-1.6,0-2.4,0c-1.1,0-2.1,0-3.2,0
				c-2.7-0.1-5.4-0.1-8.2-0.2c-1.1,0-2.3-0.1-3.4-0.1c-1.3,0-2.6,0-3.9,0.1c-0.6,0-1.1,0-1.7,0.1c-0.2,0-0.5,0-0.7,0
				c-0.2,0-0.4,0-0.6,0.1c-0.2,0-0.3,0-0.5,0c-0.4,0.1-0.7,0.1-1.1,0.2c0-0.1,0-0.2,0-0.3c0-0.1-0.1-0.2-0.2-0.2
				c-0.1,0-0.2,0.1-0.2,0.2c0,0.1,0,0.3,0,0.4c0,0-0.1,0-0.1,0c-0.1,0-0.2,0.1-0.2,0.2c0,0.1,0.1,0.2,0.2,0.2c0,0,0,0,0.1,0
				c0,0.4,0,0.7,0,1.1c0,1.3-0.1,2.6-0.1,4c0,0.3,0,0.5,0,0.8c0,0,0,0,0,0.1c0,0,0,0,0,0.1c0,2-0.1,4-0.2,6c0,0.8,0,1.7,0,2.5
				c0,1.8,0,3.5,0,5.3c0,0.8,0,1.6,0,2.4c0,1,0,1.9-0.1,2.9c0,0.7-0.1,1.3-0.1,2c0,0.4-0.1,0.9-0.1,1.3c0,0.4-0.1,0.8-0.1,1.2
				c0,0.2-0.1,0.4,0,0.6c0.1,0.1,0.2,0.2,0.3,0.2c0.4,0.2,0.9,0.3,1.3,0.4c0.6,0.1,1.1,0.1,1.7,0.2c0.9,0,1.9,0,2.8,0
				c0.8,0,1.7,0,2.5-0.1c0.9,0,1.8-0.1,2.7-0.1c0.4,0,0.8,0,1.2-0.1c0.2,0,0.4,0,0.5,0c0.3,0,0.6,0,0.8,0c0,0,0,0,0,0
				c0,0,0,0.1,0.1,0.1c0,0,0.1,0,0.1-0.1c0,0,0,0,0,0c0,0,0.1,0,0.1,0c0.4,0,0.8,0,1.3,0c1,0,2,0,3,0c0.7,0,1.5,0,2.2,0
				c0,0,0,0.1,0,0.1c0,0,0,0.1,0.1,0.1c0,0,0.1,0,0.1-0.1c0,0,0-0.1,0-0.1c2.2,0,4.4,0.1,6.6,0.1c0,0,0,0.1,0.1,0.1
				c0,0,0.1,0,0.1-0.1c0.4,0,0.8,0,1.2,0c3.1,0.1,6.2,0.1,9.4,0.1c1.3,0,2.5,0,3.8,0c0.5,0,1,0,1.5,0c1,0,2.1-0.1,3.1-0.1
				c0.2,0,0.3,0,0.5,0c0.1,0,0.3,0,0.4,0c0.2-0.1,0.3-0.2,0.3-0.4c0-0.2,0-0.4,0-0.6c0-0.3,0-0.6,0-0.9c0-0.8,0-1.6,0-2.4
				c0-0.5,0-0.9,0-1.4c0-0.3,0-0.7,0-1c0,0,0-0.1,0-0.1h0.3c0.1,0,0.1,0,0.1-0.1c0-0.1,0-0.1-0.1-0.1h-0.3c0-0.7,0-1.4,0-2.1
				c0-1.2,0-2.4,0-3.7h0.3c0.1,0,0.1,0,0.1-0.1c0-0.1,0-0.1-0.1-0.1h-0.3c0-0.7,0-1.4,0-2.1c0-1.2,0-2.3,0-3.5c0-0.1,0-0.2,0-0.2
				h0.3c0.1,0,0.1,0,0.1-0.1c0-0.1,0-0.1-0.1-0.1h-0.2c0-1.2,0.1-2.3,0.1-3.5c0-0.4,0-0.7,0.1-1.1c0-0.1,0-0.3,0-0.4
				c0-0.2-0.2-0.5-0.4-0.5c-0.2,0-0.5,0.2-0.5,0.4C61.1,22,61.1,23.5,61,25c0,0.3,0,0.5,0,0.8h-5.5c0-1.3,0-2.6,0.1-3.9
				c0-0.6,0-1.3,0-1.9h6.6c0.1,0,0.1,0,0.1-0.1c0-0.1,0-0.1-0.1-0.1h-3.6c0,0,0.1-0.1,0.1-0.1c0,0,0,0,0,0l0-0.2l0,0v0
				c0-0.1,0-0.3,0-0.4c0.1,0,0.2-0.1,0.2-0.1l0.1-0.1l1.2,0.2c-0.1,0.2-0.3,0.3-0.4,0.5l0,0.1l0.1,0c0.2-0.2,0.3-0.3,0.5-0.5l0,0
				l1.7,0.2c0.4,0,0.7,0.1,1.1,0.1c0.2,0,0.3,0,0.5,0.1c-0.1,0.1-0.3,0.2-0.4,0.3c0,0,0,0.1,0,0.1c0,0,0.1,0,0.1,0
				c0.2-0.1,0.3-0.3,0.5-0.4c1.3,0.2,2.8,0.4,3.8,1.3c0.2,0.2,0.5,0.5,0.7,0.7c0.1,0.1,0.1,0.2,0.2,0.2c0.2,0.2,0.3,0.7,0.4,0.9
				c0.2,0.6,0.3,1.3,0.4,2c0,0.5,0.1,1.1,0.1,1.6c0,0.6,0,1.2-0.1,1.8c0,0.2,0.1,0.3,0.3,0.3c0.1,0,0.2-0.1,0.3-0.2
				c0,4.4,0,8.8,0,13.2c0,0.3,0,0.6,0,0.8c-0.1,1.6-0.2,3.2-0.3,4.7c0,0.5-0.1,1-0.1,1.5c-0.1,1.1-0.2,2.1-0.3,3.1
				c-0.6,0.1-1.2,0.1-1.7,0.1c0.2-0.1,0.3-0.2,0.5-0.3c0.3-0.2,0.6-0.4,0.9-0.6c0.1-0.1,0.1-0.1,0.2-0.2c0.1-0.1,0.1-0.3-0.1-0.3
				c-0.1-0.1-0.2-0.1-0.3,0.1c-0.2,0.2-0.5,0.4-0.7,0.6c-0.2,0.1-0.4,0.2-0.6,0.4c-0.1,0.1-0.3,0.2-0.4,0.3c0,0-0.1,0.1-0.2,0.1
				c0,0,0,0,0,0c-0.7,0-1.4,0-2.2,0c0.1,0,0.1-0.1,0.2-0.1c0.2-0.1,0.6-0.3,0.8-0.3c0.1,0,0.2-0.2,0.1-0.3c0-0.1-0.2-0.2-0.3-0.1
				c-0.2,0.1-0.4,0.2-0.6,0.4c-0.2,0.1-0.3,0.3-0.5,0.4c-1,0-2,0-3,0c0,0,0,0,0.1,0c0.5-0.3,1-0.7,1.6-1c0.1-0.1,0.1-0.2,0.1-0.3
				c-0.1-0.1-0.2-0.1-0.3-0.1c-0.6,0.4-1.1,0.9-1.7,1.4c-1,0-2,0-3,0.1c0.1-0.1,0.2-0.1,0.2-0.2c0.2-0.1,0.4-0.3,0.6-0.4
				c0.6-0.4,1.1-0.8,1.7-1.2c0.4-0.3,0.8-0.6,1.3-0.9c0.2-0.1,0.3-0.2,0.5-0.3c-0.1,0-0.2,0.1-0.4,0.1c-0.4,0.1-0.8,0.3-1.2,0.5
				c-0.8,0.4-1.5,1-2.2,1.6c-0.3,0.2-0.7,0.5-1.1,0.7c0,0-0.1,0-0.1,0.1c-0.9,0-1.9,0-2.8,0.1c-0.1,0-0.1,0-0.2,0
				c0.2-0.1,0.3-0.2,0.5-0.3c0.6-0.4,1.3-0.7,1.9-1.1c0.3-0.2,0.6-0.3,0.9-0.5c0.2-0.1,0.3-0.2,0.5-0.3c0.2-0.1,0.3-0.2,0.5-0.3
				c0.1-0.1,0.3-0.2,0.4-0.2c0.1,0,0.1-0.1,0.1-0.2c0-0.1-0.1-0.1-0.2-0.1c-1,0.3-1.8,1-2.7,1.5c-0.5,0.4-1,0.7-1.5,1.1
				c-0.2,0.1-0.4,0.2-0.5,0.3c-1.1,0-2.2-0.1-3.3-0.1c0.6-0.4,1.2-0.7,1.8-1.1c0.6-0.3,1.2-0.7,1.8-1c0.1-0.1,0.1-0.2,0.1-0.3
				c-0.1-0.1-0.2-0.1-0.3-0.1c-1.2,0.8-2.4,1.6-3.6,2.4c-1,0-2-0.1-3-0.1c0.2-0.1,0.4-0.3,0.7-0.4c0.1-0.1,0.2-0.1,0.2-0.2
				c0.2-0.1,0.3-0.3,0.5-0.4c0.2-0.2,0.4-0.3,0.6-0.5c0.4-0.3,0.9-0.6,1.3-0.8c0.1-0.1,0.2-0.2,0.1-0.3c-0.1-0.1-0.2-0.2-0.3-0.1
				c-0.9,0.5-1.7,1.1-2.5,1.7c-0.1,0.1-0.3,0.2-0.4,0.4c-0.2,0.2-0.5,0.4-0.7,0.6c-1.1-0.1-2.3-0.2-3.4-0.2c0.2-0.1,0.4-0.2,0.5-0.3
				c0.7-0.5,1.3-1,2-1.5c0.2-0.1,0.4-0.3,0.6-0.4c0.1-0.1,0.3-0.2,0.4-0.3c0.1-0.1,0.2-0.2,0.3-0.3c0.1,0,0.1-0.1,0-0.2
				c0-0.1-0.1-0.1-0.2,0c-0.1,0-0.3,0.1-0.4,0.1c-0.2,0.1-0.5,0.3-0.7,0.4c-0.2,0.2-0.5,0.3-0.7,0.5c-0.3,0.3-0.7,0.5-1,0.8
				c-0.3,0.2-0.6,0.4-0.8,0.6c-0.2,0.2-0.4,0.3-0.5,0.5c0,0,0,0,0,0c0.1-0.1,0.2-0.2,0.3-0.3c0,0,0-0.1,0-0.1c0,0-0.1,0-0.1,0
				c-0.2,0.1-0.4,0.2-0.5,0.4c-0.6,0-1.1-0.1-1.7-0.1c0.1-0.1,0.2-0.2,0.3-0.2c0.7-0.5,1.5-1.1,2.3-1.6c0.2-0.1,0.4-0.3,0.6-0.4
				c0.1-0.1,0.1-0.2,0.1-0.3c-0.1-0.1-0.2-0.1-0.3-0.1c-0.2,0.1-0.3,0.2-0.5,0.3c-0.2,0.1-0.3,0.2-0.5,0.4c-0.2,0.2-0.5,0.4-0.7,0.6
				c-0.5,0.5-1,0.9-1.6,1.3c-1,0-2-0.1-2.9-0.1c-0.1,0-0.2,0-0.3,0c0.9-0.7,1.8-1.3,2.8-1.9c0.3-0.2,0.7-0.5,1-0.7
				c0.1-0.1,0.1-0.2,0-0.3c-0.1-0.1-0.2-0.1-0.3,0c-0.9,0.6-1.7,1.2-2.6,1.9c-0.4,0.3-0.9,0.7-1.3,1c-0.9,0-1.7,0-2.5,0
				c0.2-0.1,0.4-0.3,0.6-0.4c0.9-0.6,1.8-1.4,2.8-1.9c0.1-0.1,0.1-0.2,0.1-0.3c-0.1-0.1-0.2-0.1-0.3-0.1c-0.4,0.3-0.8,0.6-1.1,0.8
				c-0.6,0.5-1.1,0.9-1.7,1.4c-0.1,0.1-0.3,0.2-0.4,0.3c-0.1,0-0.1,0.1-0.2,0.1c-0.7,0-1.5,0-2.2,0c-0.3,0-0.7,0-1,0
				c0,0,0.1-0.1,0.1-0.1c0.5-0.4,1-0.9,1.5-1.2c0.3-0.2,0.5-0.4,0.8-0.6c0.1-0.1,0.1-0.2,0-0.2c-0.1-0.1-0.2-0.1-0.2,0
				c-0.4,0.3-0.7,0.5-1,0.8c-0.2,0.1-0.3,0.3-0.5,0.4c-0.3,0.3-0.7,0.6-1,1c-0.9,0-1.9,0-2.8,0c0.1-0.1,0.2-0.2,0.3-0.2
				c1-0.9,2.1-1.7,3.3-2.3c0.1,0,0.1-0.2,0.1-0.2s-0.2-0.1-0.2-0.1c-0.1,0.1-0.3,0.2-0.4,0.3c-0.5,0.3-1,0.7-1.5,1.1
				c-0.6,0.5-1.1,0.9-1.6,1.4c-0.7,0-1.5,0-2.2,0c0.1,0,0.1-0.1,0.2-0.1c0.7-0.6,1.3-1.1,2-1.7c0.1-0.1,0.1-0.2,0-0.3
				c-0.1-0.1-0.2-0.1-0.3,0c-0.8,0.7-1.6,1.4-2.4,2.1c-1.2,0-2.3,0-3.5,0.1c0,0,0,0,0,0c0.2-0.2,0.4-0.3,0.6-0.5
				c0.8-0.6,1.5-1.2,2.4-1.6c0.1-0.1,0.1-0.2,0.1-0.3s-0.2-0.1-0.3-0.1c-0.3,0.2-0.7,0.4-1,0.6c-0.6,0.4-1.2,0.9-1.7,1.3
				c-0.3,0.2-0.6,0.4-0.9,0.6c-0.6,0-1.1,0-1.7,0c-0.6,0-1.2,0-1.9,0c0,0,0,0,0.1-0.1c0.4-0.3,0.9-0.7,1.4-1
				c0.2-0.1,0.5-0.3,0.7-0.4c0.1-0.1,0.1-0.2,0.1-0.3c-0.1-0.1-0.2-0.1-0.3-0.1c-0.1,0.1-0.3,0.2-0.4,0.3c-0.2,0.2-0.5,0.3-0.7,0.5
				c-0.5,0.3-0.9,0.7-1.4,1.1c-0.6,0-1.2,0-1.9,0c-0.1,0-0.3,0-0.4,0c0.2-0.2,0.4-0.4,0.6-0.6c0.3-0.3,0.7-0.7,1-1
				c0.2-0.2,0.4-0.3,0.6-0.4c0.1-0.1,0.1-0.2,0-0.2c-0.1-0.1-0.2-0.1-0.2,0c-0.5,0.4-0.9,0.8-1.3,1.2c-0.2,0.2-0.5,0.5-0.7,0.7
				c-0.1,0.1-0.2,0.2-0.2,0.2c0,0-0.1,0.1-0.1,0.1c-0.2,0-0.5,0-0.7,0c0,0,0.1-0.1,0.1-0.1c0,0,0-0.1,0-0.1c0,0-0.1,0-0.1,0
				c-0.1,0.1-0.2,0.1-0.3,0.2c-0.5,0-1.1,0-1.6,0c0.4-0.3,0.7-0.7,1.1-1c0.3-0.3,0.6-0.5,1-0.8c0.2-0.1,0.3-0.2,0.5-0.3
				c0.1,0,0.1-0.2,0.1-0.2c-0.1-0.1-0.2-0.1-0.2-0.1c-0.2,0.1-0.3,0.2-0.4,0.3c-0.3,0.2-0.5,0.4-0.8,0.7c-0.3,0.3-0.6,0.6-0.9,0.8
				c-0.2,0.2-0.4,0.4-0.6,0.6c-0.7,0-1.5,0-2.2,0C9,51,9.2,50.8,9.4,50.7c0.4-0.3,0.9-0.7,1.4-1c0.1-0.1,0.3-0.2,0.5-0.2
				c0.1-0.1,0.1-0.2,0.1-0.3c-0.1-0.1-0.2-0.1-0.3-0.1c-0.7,0.4-1.4,1.1-2.1,1.6c-0.2,0.1-0.3,0.3-0.5,0.4c-0.4,0-0.9,0-1.3,0
				c-0.4,0-0.9,0-1.3,0c0,0,0,0,0.1,0c1-0.7,1.9-1.5,2.9-2.2c0.1-0.1,0.1-0.2,0-0.3c-0.1-0.1-0.2-0.1-0.3,0c-0.7,0.5-1.3,1-1.9,1.5
				c-0.3,0.2-0.6,0.4-0.8,0.7c-0.2,0.1-0.3,0.3-0.5,0.4c0,0-0.1,0-0.1,0c0,0,0,0,0-0.1c0-0.1,0.1-0.2,0.1-0.3
				c0.1-0.2,0.1-0.4,0.1-0.5c0.1-0.2,0.1-0.4,0.1-0.6c0.1-0.5,0.2-1,0.2-1.5C5.9,46.8,6,45.6,6,44.4c0-0.5,0-1,0-1.5
				c0-0.4,0-0.9,0-1.3c0-1,0-2.1-0.1-3.1c-0.1-2.1-0.2-4.2-0.3-6.4c-0.1-1.6-0.1-3.3,0-5c0-0.3,0-0.5,0-0.8c0-0.3,0-0.6,0.1-0.9
				c0-0.1,0-0.2,0-0.4c0-0.5,0.1-0.9,0.1-1.4C5.9,23,6,22.3,6,21.5c0.1-1.4,0.2-2.8,0.3-4.3c0-0.3,0-0.6,0.1-1c0-0.7,0.1-1.3,0.1-2
				c0.1-0.9,0.1-1.8,0.1-2.7c0-1,0.1-2,0.1-3c0-0.3,0-0.5,0-0.8c0-0.1,0-0.2,0-0.3c0-0.2,0-0.4,0-0.6C7,6.9,7.4,6.8,7.8,6.8
				c0.9-0.1,1.9-0.2,2.8-0.3c2.2-0.2,4.4-0.2,6.6-0.2c1,0,2.1,0,3.1,0c0.4,0,0.8,0,1.2,0c0.8,0,1.6,0,2.3,0c0.8,0,1.6,0,2.3,0
				c0.8,0,1.5,0,2.3,0c0.5,0,1,0,1.5,0c0.7,0,1.5,0,2.2,0c1.4,0,2.8-0.1,4.2-0.1C38.3,6.2,40.2,6.1,42,6h6.1
				C48.3,6.1,48.4,6.1,48.5,6.1z M51.2,6.3C51,6.2,50.8,6.1,50.6,6h0.2C51,6.1,51.1,6.2,51.2,6.3z M56.4,6.5C56.2,6.7,56,7,55.7,7.3
				c0,0-0.1-0.1-0.1-0.1C55.1,6.8,54.5,6.4,54,6h2.8C56.7,6.2,56.6,6.3,56.4,6.5z M63.3,6.2c0,0,0,0.1,0,0.2h0.2
				c0.1-0.1,0.1-0.1,0.2-0.2c0.1,0,0.2-0.1,0.3-0.2h2.7c0,0,0,0,0,0c-0.1,0.1-0.1,0.2,0,0.3c0.1,0.1,0.2,0.1,0.3,0c0,0,0.1,0,0.1,0
				c0,0,0,0,0-0.1c0.1-0.1,0.1-0.2,0-0.3h1.7c0,0.1,0.1,0.1,0.1,0.2c0.1,0.1,0.2,0.2,0.3,0.3c0,0.1,0,0.2,0,0.3c0,1,0.1,2,0.1,3
				c0,0-0.1,0-0.1,0.1c-0.2,0.3-0.3,0.5-0.6,0.7l0,0.1l0.1,0c0.2-0.2,0.4-0.3,0.7-0.4c0,0.1,0,0.1,0,0.2c-0.1,0.1-0.1,0.3-0.1,0.4
				c0,0.1,0.1,0.2,0.1,0.3c0,1,0,2,0,2.9c0,0.8,0,1.6,0,2.4c0,0.1,0.1,0.2,0.2,0.2c0,0,0.1,0,0.1,0c0,0.2,0,0.4,0,0.6c0,0,0,0-0.1,0
				c-0.4,0.3-0.7,0.6-1.1,0.9c-0.2-0.2-0.4-0.4-0.6-0.6c-0.4-0.4-0.8-0.8-1.2-1.1c0.1-0.1,0.3-0.2,0.4-0.4c0.3-0.3,0.7-0.6,1.1-0.8
				c0.1-0.1,0.1-0.3,0-0.4c-0.1-0.1-0.3-0.1-0.4,0c-0.2,0.1-0.3,0.3-0.5,0.4c-0.3,0.3-0.6,0.6-0.9,0.9c-0.1-0.1-0.2-0.2-0.3-0.3
				c-0.5-0.4-1-0.9-1.5-1.3c0.2-0.2,0.4-0.4,0.6-0.6c0.7-0.6,1.3-1.3,2-1.9c0.1-0.1,0.1-0.2,0-0.3c-0.1-0.1-0.2-0.1-0.3,0
				c-0.9,0.9-1.7,1.8-2.5,2.7c-0.3-0.2-0.5-0.5-0.8-0.7c-0.2-0.2-0.5-0.4-0.7-0.7c0.3-0.3,0.6-0.6,0.9-0.9c0.5-0.5,1-0.9,1.5-1.4
				c0.5-0.5,0.9-1,1.4-1.5l0-0.1l-0.1,0c-0.7,0.5-1.3,1-2,1.6c-0.7,0.6-1.4,1.3-2.1,2c0,0,0,0,0,0c-0.4-0.4-0.8-0.7-1.2-1.1
				c0.2-0.2,0.4-0.4,0.6-0.6c0.3-0.3,0.6-0.6,0.9-0.8c0.3-0.3,0.6-0.5,0.9-0.8c0.4-0.4,0.7-0.7,1-1.1c0.1-0.1,0.1-0.2,0-0.3
				C64.7,8,64.6,8,64.5,8c-0.4,0.3-0.9,0.7-1.3,1.1c-0.7,0.6-1.3,1.3-1.9,1.9c-0.1,0.1-0.2,0.2-0.4,0.4c-0.4-0.4-0.8-0.7-1.3-1.1
				c0.1-0.1,0.2-0.2,0.3-0.4c0.4-0.4,0.7-0.8,1.1-1.1c0.3-0.3,0.5-0.5,0.8-0.8C62,8,62,7.8,61.9,7.7c-0.1-0.1-0.2-0.1-0.3,0
				C61.3,8,61,8.3,60.8,8.6c-0.5,0.5-0.9,1-1.3,1.6c-0.3-0.2-0.6-0.5-0.8-0.7c0.5-0.5,0.9-1,1.4-1.5c0.1-0.1,0.1-0.3,0-0.4
				c-0.1-0.1-0.3-0.1-0.4,0c-0.4,0.5-0.9,1.1-1.3,1.6c-0.4-0.3-0.7-0.6-1.1-0.8c0.3-0.3,0.6-0.6,0.9-0.9c0.1-0.1,0.1-0.2,0-0.3
				c-0.1-0.1-0.2-0.1-0.3,0c-0.3,0.3-0.6,0.6-0.9,1c-0.3-0.2-0.6-0.4-0.9-0.7c0.3-0.2,0.5-0.5,0.7-0.7c0.2-0.2,0.4-0.5,0.6-0.7h6.1
				C63.4,6.1,63.3,6.1,63.3,6.2z M53.8,6.6c-0.1-0.1-0.2-0.2-0.3-0.3c0,0-0.1-0.1-0.1-0.1C53.5,6.3,53.6,6.4,53.8,6.6z M54,7
				l1.1,0.9C55.1,7.9,55,8,54.9,8.1c-0.1-0.1-0.1-0.2-0.2-0.2c-0.2-0.2-0.4-0.5-0.6-0.7C54.1,7.1,54.1,7,54,7z M5.6,7.7
				c0,0.7,0,1.5,0,2.3c0,1.2-0.1,2.4-0.1,3.6c-0.1,1.1-0.1,2.2-0.2,3.3c-0.1,1-0.1,2-0.2,3c0-4,0-8.1,0-12.1c0-0.1,0-0.1,0-0.2
				c0.1-0.2,0.2-0.3,0.2-0.5c0.1,0,0.2,0,0.3,0C5.6,7.3,5.6,7.5,5.6,7.7z M70.2,8.2c0,0-0.1,0-0.2,0c0,0,0,0-0.1,0
				c0-0.2,0-0.3,0-0.5C70.1,7.8,70.2,8,70.2,8.2z M55.3,8.1L55.3,8.1L55.3,8.1C55.3,8.1,55.3,8.1,55.3,8.1z M55.5,8.2
				c0.2,0.2,0.3,0.3,0.5,0.4c0.1,0.1,0.1,0.1,0.2,0.2C56,9,55.9,9.1,55.8,9.3c-0.1-0.2-0.2-0.3-0.3-0.5c-0.1-0.2-0.2-0.3-0.3-0.5
				c0.1-0.1,0.2-0.1,0.2-0.2C55.4,8.1,55.4,8.2,55.5,8.2z M57.6,10.1C57.5,10.1,57.5,10.1,57.6,10.1c-0.3,0.4-0.5,0.7-0.8,0.9
				c-0.1-0.1-0.1-0.2-0.2-0.2c-0.2-0.4-0.5-0.8-0.7-1.3c0.2-0.2,0.3-0.3,0.5-0.5C56.8,9.4,57.2,9.8,57.6,10.1z M57.8,10.3L57.8,10.3
				l0.6,0.6l0.2,0.2c-0.3,0.4-0.6,0.9-1,1.3c0,0.1-0.1,0.1-0.1,0.2c-0.1-0.3-0.2-0.5-0.3-0.8c-0.1-0.2-0.2-0.4-0.3-0.5
				C57.2,11,57.5,10.6,57.8,10.3z M58.9,11.3L58.9,11.3l0.4,0.4c0.3,0.3,0.5,0.5,0.8,0.7c0,0.1-0.1,0.1-0.1,0.2
				c-0.6,0.7-1.2,1.5-1.7,2.3c-0.1-0.2-0.1-0.4-0.2-0.7l0-0.2l0.4,0.6c0,0,0,0,0-0.1c-0.1-0.2-0.2-0.4-0.3-0.7L57.7,13l0-0.1l0,0
				c0.2-0.3,0.5-0.7,0.7-1C58.5,11.7,58.7,11.5,58.9,11.3z M60.7,12.9c0.3,0.3,0.6,0.5,0.9,0.8c-0.4,0.4-0.7,0.8-1.1,1.2
				c-0.6,0.7-1.2,1.4-1.7,2.2c-0.1,0.1,0,0.2,0,0.2c0.1,0.1,0.2,0,0.2,0c0.3-0.4,0.5-0.7,0.8-1.1c0.5-0.6,1-1.2,1.5-1.7
				c0.2-0.2,0.3-0.4,0.5-0.5c0.2,0.2,0.4,0.4,0.6,0.5c0.2,0.2,0.4,0.4,0.7,0.6c0.1,0.1,0.2,0.2,0.3,0.3c-0.3,0.4-0.6,0.7-1,1.1
				c-0.5,0.6-1,1.1-1.5,1.7c-0.3,0-0.6,0-0.8-0.1c-0.3,0-0.5-0.1-0.8-0.1c-0.2,0-0.4-0.1-0.5,0c0,0,0,0,0,0c0-0.3,0-0.6-0.1-0.8
				c0-0.4-0.1-0.8-0.2-1.3c0-0.2-0.1-0.5-0.1-0.7c0.5-0.7,1-1.4,1.5-2.1c0.2-0.2,0.3-0.4,0.5-0.6C60.5,12.8,60.6,12.9,60.7,12.9z
				 M64.1,16.2c0.4,0.4,0.9,0.9,1.3,1.3c-0.3,0.4-0.6,0.7-1,1.1c-0.2,0-0.5-0.1-0.7-0.1c-0.5-0.1-1-0.1-1.4-0.1
				c-0.4,0-0.8,0-1.3-0.1c0.2-0.2,0.4-0.4,0.6-0.6c0.6-0.7,1.3-1.3,1.9-2C63.7,15.8,63.9,16,64.1,16.2z M69.8,19.4
				c-0.3-0.3-0.6-0.7-1-1c0.3-0.3,0.6-0.5,1-0.8C69.8,18.2,69.8,18.8,69.8,19.4z M67.2,19.4C67.2,19.4,67.2,19.4,67.2,19.4
				c-0.3-0.2-0.6-0.3-0.9-0.4c-0.5-0.2-1.1-0.3-1.6-0.4c0.3-0.3,0.6-0.6,1-1C66.1,18.2,66.6,18.8,67.2,19.4z M68,18.7
				C68.1,18.8,68.1,18.8,68,18.7c0.1,0.1,0.1,0.1,0.1,0.1c0.5,0.4,1,0.8,1.6,1.1c0,0.9,0,1.8,0,2.7c-0.1-0.2-0.1-0.5-0.2-0.7
				c0.1-0.1,0.1-0.2,0.1-0.3l0-0.1l0-0.1l0-0.1l-0.4-0.8c-0.2-0.4-0.5-0.9-0.8-1.3c-0.2-0.3-0.4-0.6-0.6-0.8
				C67.8,18.6,67.9,18.6,68,18.7z M21.3,24.3c0,0.5,0,1,0,1.5h-5.9c0-0.3,0-0.5,0-0.8c0-1-0.1-2-0.1-3c0-0.7,0-1.3,0-2h6.2
				C21.4,21.4,21.3,22.8,21.3,24.3z M28.1,24.2c0,0.5,0,1,0,1.5h-6.5c0-1.3,0-2.6,0.1-3.9c0-0.6,0-1.3,0-1.9h6.5
				C28.1,21.4,28.1,22.8,28.1,24.2z M34.9,22.6c-0.6,0-1.3,0.1-1.9,0.1c-0.2,0-0.3,0-0.5,0c-0.1,0-0.2,0-0.2,0
				c-0.1,0-0.1,0.1-0.2,0.1c0,0-0.1,0.1-0.1,0.2l0,0.2l0,0c-0.1,0-0.1,0.1-0.1,0.2c-0.1,0.2,0,0.5,0,0.7l0,0.3l-0.1,1.1
				c0,0-0.1,0-0.1,0.1c-0.1,0-0.2,0-0.2,0.1c-0.1,0-0.1,0.1-0.1,0.2h-2.9c0-1.3,0-2.6,0.1-3.9c0-0.6,0-1.3,0-1.9H35
				C34.9,20.8,34.9,21.7,34.9,22.6z M41.7,22.6c-2.1-0.1-4.3-0.1-6.4,0c0,0,0,0-0.1,0c0-0.3,0-0.5,0-0.8c0-0.6,0-1.3,0-1.9h6.5
				C41.7,20.8,41.7,21.7,41.7,22.6z M48.4,24.2c0,0.5,0,1,0,1.5h-3.2c0-0.5-0.1-1.1-0.1-1.6c0.1,0,0.1-0.1,0.2-0.1
				c0.1-0.1,0.1-0.2,0.1-0.3c0-0.1-0.1-0.1-0.2-0.1c0.1-0.1,0.2-0.2,0.2-0.3c0-0.2-0.1-0.4-0.3-0.5c-0.7-0.1-1.4-0.2-2.1-0.2
				c-0.3,0-0.5,0-0.8,0c0-0.2,0-0.5,0-0.7c0-0.6,0-1.3,0-1.9h6.5C48.5,21.4,48.5,22.8,48.4,24.2z M55.2,24.2c0,0.5,0,1,0,1.5h-6.5
				c0-1.3,0-2.6,0.1-3.9c0-0.6,0-1.3,0-1.9h6.5C55.3,21.4,55.2,22.8,55.2,24.2z M41.7,23.4c0,0.2,0,0.4,0,0.7c0,0-0.1,0.1-0.1,0.1
				c-0.2,0.2-0.4,0.3-0.6,0.5c-0.5,0.4-0.9,0.7-1.3,1.1H37c0.6-0.5,1.3-0.9,1.9-1.3c0.3-0.2,0.5-0.4,0.7-0.6c0.1-0.1,0.1-0.2,0-0.2
				h-0.2c-0.2,0.2-0.5,0.5-0.7,0.7c-0.3,0.2-0.7,0.5-1,0.7c-0.1,0.1-0.2,0.2-0.3,0.2c-0.1,0.1-0.2,0.2-0.3,0.3
				c-0.1,0.1-0.2,0.2-0.3,0.3h-1.6c0-0.1,0-0.1,0-0.2c0.4-0.3,0.8-0.7,1.3-1c0.4-0.3,0.9-0.6,1.3-1c0.1-0.1,0.2-0.1,0.3-0.2
				c1.2,0,2.3,0,3.5,0C41.5,23.4,41.6,23.4,41.7,23.4z M43.1,23.5l0.5,0l0.3,0l0.3,0.1l0,0.1c0,0.1,0.1,0.3,0.1,0.4
				c-0.4,0.3-0.7,0.6-1,0.9c-0.2,0.2-0.5,0.5-0.7,0.7h-0.6c0-0.4,0-0.9,0-1.3c0.3-0.2,0.5-0.3,0.8-0.5c0.1-0.1,0.1-0.2,0.1-0.3
				c-0.1-0.1-0.2-0.1-0.3-0.1c-0.1,0.1-0.2,0.1-0.3,0.2c-0.1,0.1-0.2,0.1-0.2,0.2c0-0.2,0-0.3,0-0.5C42.3,23.4,42.7,23.4,43.1,23.5z
				 M36.6,23.9c-0.5,0.4-1,0.8-1.4,1.2c0-0.5,0-1.1,0-1.6c0.2,0,0.3,0,0.5,0c0.4,0,0.8,0,1.2-0.1c0.1,0,0.2,0,0.3,0
				C36.9,23.6,36.8,23.8,36.6,23.9z M33.6,24.2c-0.1,0.1-0.2,0.2-0.4,0.3c-0.1,0.1-0.2,0.1-0.3,0.2c-0.1,0.1-0.2,0.1-0.3,0.2l0-0.2
				l0-0.1l0.1-0.9l0.3-0.1c0.3,0,0.6-0.1,0.8-0.1c0.2,0,0.3,0,0.5,0C34.1,23.8,33.9,24,33.6,24.2z M34.9,24.2c0,0.4,0,0.8,0,1.1
				c-0.1,0.1-0.2,0.2-0.4,0.3h-1.8l0-0.3l0,0c0.1-0.1,0.2-0.1,0.3-0.2c0.2-0.2,0.5-0.3,0.7-0.5c0.2-0.2,0.5-0.4,0.7-0.5
				c0.2-0.1,0.3-0.3,0.5-0.4C34.9,23.9,34.9,24.1,34.9,24.2z M41.6,25.7h-1.5c0.5-0.4,1-0.8,1.5-1.1C41.6,25,41.6,25.3,41.6,25.7z
				 M44.3,25.5c0,0.1,0,0.1,0,0.2H43c0.1-0.1,0.2-0.2,0.3-0.3c0.1-0.1,0.3-0.2,0.4-0.3c0.2-0.2,0.4-0.3,0.5-0.4
				C44.3,24.9,44.3,25.3,44.3,25.5z M21.3,31.7h-5.9c0-0.7,0-1.4,0-2.1c0-0.9,0-1.8,0-2.7c0-0.3,0-0.6,0-1h5.9
				C21.3,27.8,21.3,29.8,21.3,31.7z M28,31.7h-6.5c0-1.3,0-2.6,0-3.9c0-0.6,0-1.2,0-1.9h6.5C28.1,27.8,28,29.8,28,31.7z M31.5,25.9
				C31.5,25.9,31.5,25.9,31.5,25.9l0.2,0c-0.1,0.6-0.2,1.2-0.2,1.8c0,0.4-0.1,0.9-0.1,1.3c0,0.4,0,0.7,0,1.1c0,0.5,0,1,0,1.5h-3
				c0-1.3,0-2.6,0-3.9c0-0.6,0-1.2,0-1.9h3C31.4,25.9,31.5,25.9,31.5,25.9z M33,27.1c-0.1,0-0.1,0.1,0,0.2c0,0.1,0.1,0.1,0.2,0
				c0.5-0.5,1-0.9,1.6-1.4h0.1c0,0.9,0,1.9,0,2.8c0,0.4,0,0.7,0,1.1c-0.1-0.1-0.2-0.1-0.3,0c-0.1,0.1-0.2,0.2-0.2,0.3
				c-0.1,0.1-0.2,0.2-0.2,0.2c-0.5,0.4-1,0.8-1.4,1.3h-0.1c0-0.7,0-1.3,0.1-2c0-0.2,0-0.4,0-0.6c0.4-0.4,0.8-0.7,1.2-1.1
				c0.2-0.2,0.5-0.4,0.7-0.6c0.1-0.1,0.1-0.2,0-0.3c-0.1-0.1-0.2-0.1-0.3,0c-0.6,0.4-1.1,0.9-1.6,1.4c0-0.1,0-0.2,0-0.2
				c0-0.8,0-1.5,0-2.3h1.6C33.8,26.3,33.4,26.7,33,27.1z M35.2,26l0,0.1l0,0c0-0.1,0-0.2,0-0.3h0.1C35.2,25.9,35.2,26,35.2,26z
				 M41.6,26c0,0-0.1-0.1-0.1-0.1L41.6,26C41.6,26,41.6,26,41.6,26z M42.2,26.1c-0.1,0.1-0.2,0.2-0.3,0.2c0-0.1,0-0.2,0-0.4h0.4
				C42.3,26,42.2,26,42.2,26.1z M44.4,26.4C44.4,26.4,44.3,26.4,44.4,26.4c-0.4,0.3-0.7,0.6-1.1,0.9c-0.5,0.4-1,0.9-1.4,1.3
				c0-0.3,0-0.6,0-0.8c0-0.4,0-0.7,0-1.1c0,0,0,0,0.1,0c0.1-0.1,0.3-0.2,0.4-0.4c0.1-0.1,0.3-0.3,0.4-0.4h1.6
				C44.4,26.1,44.4,26.2,44.4,26.4z M48.4,31.7h-3.2c0-0.7,0-1.5,0-2.2c0-0.7,0-1.4,0-2c0-0.3,0-0.6,0-0.9c0-0.2,0-0.4,0-0.6h3.2
				C48.4,27.8,48.4,29.8,48.4,31.7z M55.2,31.7h-6.5c0-1.3,0-2.6,0-3.9c0-0.6,0-1.2,0-1.9h6.5C55.2,27.8,55.2,29.8,55.2,31.7z
				 M61,27.4c0,1.4,0,2.8,0,4.3h-5.5c0-1.3,0-2.6,0-3.9c0-0.6,0-1.2,0-1.9H61C61,26.4,61,26.9,61,27.4z M39.8,26.5l0.2,0l0.6,0
				l0.2,0l0,0.1c0,0.2,0,0.4,0.1,0.6c0,0.4,0,0.8,0,1.2c0,0.3,0,0.6,0,1c0,0.1,0,0.1,0,0.2c0,0,0,0-0.1,0.1c-0.1,0.1-0.1,0.2,0,0.2
				c0,0,0,0,0.1,0c0,0,0,0,0,0c0,0.3,0,0.6,0,0.8c0,0.1,0,0.2,0,0.4l0,0l-0.2,0c-0.1,0-0.2,0-0.3,0c-0.2,0-0.5,0-0.7,0
				c-0.7,0-1.5,0-2.2-0.1c-0.3,0-0.6,0-0.9,0l-0.7-0.1l0-0.5c0-0.6,0.1-1.3,0.1-1.9c0-0.3,0-0.5,0-0.8c0-0.2,0-0.5,0-0.8l0-0.1
				l0-0.4l0,0c0.3,0,0.6-0.1,1-0.1c0.7,0,1.4,0,2.1-0.1h0.4C39.6,26.5,39.7,26.5,39.8,26.5z M44.4,27.3c0,0.5,0,1,0,1.5
				c0,0-0.1,0-0.1,0c-0.5,0.3-1.1,0.8-1.5,1.2c-0.3,0.3-0.7,0.7-1,1.1c0-0.6,0-1.2,0-1.9c0,0,0.1,0,0.1-0.1c0.1-0.1,0.2-0.2,0.3-0.3
				c0.5-0.5,1-0.9,1.5-1.3c0.2-0.2,0.4-0.3,0.6-0.5C44.4,27.1,44.4,27.2,44.4,27.3z M44.4,31.4C44.4,31.4,44.4,31.4,44.4,31.4
				c-0.1-0.1-0.3-0.1-0.4,0c-0.1,0.1-0.2,0.2-0.3,0.3h-1.8c0-0.1,0-0.1,0-0.2c0,0,0,0,0,0c0.3-0.3,0.6-0.6,0.9-0.9
				c0.4-0.4,0.8-0.7,1.2-1.1c0.1-0.1,0.2-0.2,0.4-0.3C44.4,30,44.4,30.7,44.4,31.4z M32.1,29.8l0,1.5l0,0.4h0l0-0.5L32.1,29.8z
				 M34.8,30.5c0,0.4,0,0.8,0,1.2H33c0.1-0.1,0.2-0.2,0.3-0.3c0.2-0.2,0.4-0.3,0.6-0.5c0.3-0.2,0.5-0.5,0.8-0.7
				C34.8,30.2,34.8,30.4,34.8,30.5z M21.3,36.8c0,0.3,0,0.5,0,0.8h-6c0,0,0-0.1,0-0.1c0-0.8,0-1.5,0-2.3c0-1.1,0-2.2,0-3.4h5.9
				C21.3,33.5,21.3,35.2,21.3,36.8z M28,36.8c0,0.3,0,0.5,0,0.8h-6.5c0-0.2,0-0.4,0-0.6c0-1.7,0-3.4,0-5.1H28
				C28,33.5,28,35.2,28,36.8z M31.6,33.9c0,0.2,0.1,0.3,0.1,0.5c0,0.1,0,0.2,0.1,0.2c0,0.1,0.1,0.1,0.1,0.2c0.1,0.1,0.6,0.1,0.8,0.2
				c0.2,0,0.5,0.1,0.7,0.1c0.4,0,0.9,0.1,1.3,0.1c0,0,0,0,0,0c0,0.6,0,1.1,0,1.7c0,0.3,0,0.5,0,0.8h-6.5c0-0.2,0-0.4,0-0.6
				c0-1.7,0-3.4,0-5.1h3C31.4,32.6,31.5,33.2,31.6,33.9z M32.1,31.9l0,0.3L32.1,31.9L32.1,31.9z M32.6,31.9
				C32.5,31.9,32.5,31.9,32.6,31.9L32.6,31.9C32.6,31.9,32.6,31.9,32.6,31.9z M34.8,32c0,0-0.1,0.1-0.1,0.1c-0.7,0.6-1.4,1.2-1.9,2
				c0,0,0,0,0,0.1l-0.3,0l0-0.1l0.1,0c0,0,0.1-0.1,0-0.1c0-0.2,0-0.4,0-0.5c0-0.3,0-0.6,0-0.9c0-0.1,0-0.1,0-0.2c0,0,0,0,0,0
				c0.1-0.1,0.2-0.3,0.3-0.4h2C34.8,31.9,34.8,32,34.8,32z M41.6,33.6c-0.3,0.3-0.7,0.6-1,0.9c-0.7,0-1.3,0-2,0
				c0.2-0.2,0.4-0.3,0.6-0.5c0.2-0.2,0.5-0.4,0.8-0.5c0,0,0.1-0.1,0.2-0.1c0.1,0,0.1-0.2,0.1-0.3S40.1,33,40,33
				c-0.1,0-0.2,0.1-0.3,0.1c-0.6,0.4-1,0.8-1.5,1.3c0,0,0,0,0,0c-0.3,0-0.6,0-0.9,0c-0.4,0-0.9,0-1.3-0.1c0.6-0.6,1.3-1.1,2-1.6
				c0.1-0.1,0.1-0.3,0-0.4c-0.1-0.1-0.3-0.1-0.4,0c-0.8,0.6-1.5,1.3-2.1,2c-0.1,0-0.2,0-0.3,0c0-0.6,0-1.3,0-1.9
				c0.1-0.1,0.2-0.1,0.2-0.2c0.1-0.1,0.2-0.2,0.4-0.3c0.1,0,0.3,0,0.3,0c0.2,0,0.4,0,0.5,0c0.5,0,0.9,0,1.4,0.1c0.3,0,0.6,0,0.9,0
				c0.1,0,0.3,0,0.4,0c0.3,0,0.6,0,0.9,0c0.2,0,0.4,0,0.6,0c0,0.1,0,0.1,0,0.2c0.1,0.1,0.2,0.1,0.2,0c0.1-0.1,0.2-0.2,0.3-0.3
				c0,0,0.1-0.1,0.1-0.1h0.1C41.6,32.5,41.6,33,41.6,33.6z M43,32.3c-0.3,0.2-0.5,0.5-0.8,0.7c-0.1,0.1-0.2,0.2-0.3,0.3
				c0-0.5,0-1,0-1.5h1.6C43.3,32,43.2,32.2,43,32.3z M44.4,32.1c0,0.5,0,1-0.1,1.5l-0.1,0.8l-0.1,0c-0.2,0-0.5,0.1-0.7,0.1
				c0.1-0.2,0.3-0.3,0.6-0.2c0.1,0,0.2-0.1,0.2-0.1c0-0.1-0.1-0.2-0.1-0.2c-0.5,0-0.7,0.2-0.9,0.6c-0.4,0-0.8,0-1.2,0
				c0-0.2,0-0.3,0-0.5c0.1-0.1,0.1-0.1,0.2-0.2c0,0,0-0.1,0-0.1c0,0,0,0,0,0c0.7-0.6,1.5-1.2,2.2-1.8h0.1C44.4,32,44.4,32,44.4,32.1
				z M48.4,36.8c0,0.3,0,0.5,0,0.8h-6.5c0-0.2,0-0.4,0-0.6c0-0.6,0-1.1,0-1.7c0.2,0,0.4,0,0.6,0c0.3,0,0.7,0,1,0
				c0.4,0,0.9-0.1,1.3-0.2c0.1,0,0.2-0.1,0.3-0.2c0.1-0.1,0.1-0.5,0.1-0.7c0-0.3,0-0.6,0.1-0.9c0-0.4,0-0.9,0.1-1.3
				c0-0.1,0-0.1,0-0.2h3.2C48.4,33.5,48.4,35.2,48.4,36.8z M55.2,36.8c0,0.3,0,0.5,0,0.8h-6.5c0-0.2,0-0.4,0-0.6c0-1.7,0-3.4,0-5.1
				h6.5C55.2,33.5,55.2,35.2,55.2,36.8z M61,33c0,0.8,0,1.5,0,2.3c0,0.8,0,1.6,0,2.4h-5.6c0-0.2,0-0.4,0-0.6c0-1.7,0-3.4,0-5.1H61
				C61,32.2,61,32.6,61,33z M34.8,34.3c-0.1,0-0.3,0-0.4,0c-0.4,0-0.8-0.1-1.3-0.1c0.5-0.6,1-1.2,1.7-1.6
				C34.8,33.2,34.8,33.8,34.8,34.3z M41.6,34.5c-0.1,0-0.2,0-0.3,0c0.1-0.1,0.2-0.2,0.3-0.3C41.6,34.3,41.6,34.4,41.6,34.5z
				 M39.9,35.4c0.6,0,1.1,0,1.7,0c0,0.5,0,1,0,1.5c0,0.3,0,0.5,0,0.8h-6.5c0-0.2,0-0.4,0-0.6c0-0.6,0-1.2,0-1.8c0,0,0,0,0,0
				c0,0,0,0,0,0C36.7,35.3,38.3,35.3,39.9,35.4z M21.3,40.3c0,1.2,0,2.5,0,3.7c-0.7,0-1.5,0-2.2,0c-0.6,0-1.3,0-1.9-0.1
				c-0.2,0-0.5,0-0.7-0.1c-0.4-0.1-0.9-0.1-1.3-0.2L15,43.6l0.1-1.5c0-0.2,0-0.3,0-0.5c0-0.3,0-0.5,0-0.8c0-0.4,0-0.8,0-1.2
				c0-0.5,0-1,0.1-1.6c0-0.1,0-0.2,0-0.3h6C21.3,38.7,21.3,39.5,21.3,40.3z M28.1,40.3c0,1.1,0,2.3,0,3.4c-0.1,0-0.3,0-0.4,0
				c-0.6,0-1.3,0-2,0.1c-0.3,0-0.6,0-0.9,0.1c-0.7,0-1.3,0.1-2,0.1c-0.4,0-0.9,0-1.3,0.1c0-1.2,0-2.3,0-3.5c0-0.9,0-1.8,0-2.7H28
				C28,38.7,28,39.5,28.1,40.3z M34.8,40.3c0,1.1,0,2.3,0,3.4c-1.6,0-3.2,0-4.7,0c-0.6,0-1.2,0-1.9,0c0-1.1,0-2.1,0-3.2
				c0-0.9,0-1.8,0-2.7h6.5C34.8,38.7,34.8,39.5,34.8,40.3z M41.6,40.3c0,1.2,0,2.3,0,3.5c-2.1,0-4.3-0.1-6.4-0.1c-0.1,0-0.1,0-0.2,0
				c0-1,0-2.1,0-3.1c0-0.9,0-1.8,0-2.7h6.5C41.6,38.7,41.6,39.5,41.6,40.3z M48.4,40.3c0,1.2,0,2.4,0,3.6c-1.3,0-2.5,0-3.8-0.1
				c-0.9,0-1.9,0-2.8-0.1c0-1.1,0-2.1,0-3.2c0-0.9,0-1.8,0-2.7h6.5C48.4,38.7,48.4,39.5,48.4,40.3z M55.2,40.3c0,1.2,0,2.4,0,3.6
				c-0.2,0-0.4,0-0.7,0c-0.6,0-1.3,0-1.9,0c-1.3,0-2.7,0-4,0c0-1.1,0-2.2,0-3.3c0-0.9,0-1.8,0-2.7h6.5
				C55.2,38.7,55.2,39.5,55.2,40.3z M61,38.4c0,0.4,0,0.9,0,1.3c0,0.4,0,0.7,0,1.1c0,0.6,0,1.2,0,1.8l0,1.1l-1.8,0.1
				c-1.3,0-2.7,0.1-4,0.1c0-1.1,0-2.2,0-3.3c0-0.9,0-1.8,0-2.7H61C61,38,61,38.2,61,38.4z M5.2,45.3c0,0.6,0,1.2-0.1,1.8
				c0-2.2,0-4.3,0-6.5C5.2,42.2,5.2,43.8,5.2,45.3z M6,51.7c-0.3,0-0.6,0.1-0.9,0.1c0,0,0,0,0,0c0,0,0-0.1,0-0.1c0,0,0,0,0,0
				C5.4,51.7,5.7,51.7,6,51.7z M6.4,52.6C6.4,52.6,6.4,52.7,6.4,52.6c0,0.1,0,0.1,0.1,0.1c0.2-0.1,0.3-0.2,0.5-0.3h4.5
				c-0.1,0.1-0.3,0.3-0.4,0.4c-0.7,0.7-1.4,1.4-2.1,2.1c-1.1,1.1-2.3,2.2-3.3,3.4c-0.4,0.5-0.8,0.9-1.2,1.4
				c-0.3,0.3-0.5,0.6-0.8,0.9c0.1-1,0.2-2,0.2-3c0.1-0.1,0.1-0.1,0.2-0.2c0.3-0.3,0.6-0.6,0.9-0.9c0.5-0.6,1.1-1.1,1.6-1.7
				c0.5-0.5,1-1.1,1.5-1.6C8,53.1,8,53,7.9,53c-0.1-0.1-0.2-0.1-0.3,0c-1,1.1-2,2.2-3,3.4c-0.3,0.3-0.5,0.6-0.8,0.9
				c0-1.2,0.1-2.4,0.1-3.6c0.5-0.2,0.8-0.6,1.2-0.9c0.1-0.1,0.1-0.2,0.1-0.2h1.4C6.6,52.5,6.5,52.6,6.4,52.6z M13.5,53.4
				c-0.8,0.9-1.6,1.7-2.4,2.6c-1.1,1.2-2.2,2.4-3.3,3.6c-0.4,0.5-0.8,1-1.2,1.5c-0.3,0.4-0.5,0.7-0.8,1.1c-0.7,1-1.4,2-2,3.1
				c0,0,0,0.1,0,0.1c0,0,0,0,0.1,0C5,63,6.7,61,8.4,59.2c0.7-0.8,1.5-1.5,2.2-2.3c1-1,2-2,2.9-3c0.4-0.5,0.9-0.9,1.3-1.4
				c0,0,0,0,0,0h0.5c0,0,0,0,0,0c0.1,0.1,0.2,0.1,0.3,0c0,0,0,0,0,0h1.5c-0.2,0.2-0.4,0.4-0.6,0.6c-0.3,0.3-0.5,0.6-0.8,0.9
				c-0.5,0.5-0.9,1-1.4,1.4c-0.6,0.7-1.2,1.4-1.9,2.1c-1.1,1.2-2.2,2.4-3.2,3.6c-1.9,2.2-3.8,4.4-5.6,6.6c0,0,0-0.1,0-0.1
				c-0.2-0.6-0.4-1.2-0.5-1.8l0-0.2l0.1-1.1c0-0.5,0.1-1,0.1-1.5c0.1-0.7,0.1-1.3,0.2-2c0-0.1,0.1-0.1,0.1-0.2
				c1.4-1.7,2.9-3.3,4.5-4.8c0.6-0.5,1.1-1.1,1.7-1.6c0.6-0.5,1.1-1.1,1.7-1.6c0.1-0.1,0.3-0.3,0.4-0.4h2.3
				C14.1,52.8,13.8,53.1,13.5,53.4z M19.9,53.7c-1.5,1.4-2.8,2.9-4.2,4.4c-1,1.1-1.9,2.2-2.9,3.3c-2,2.4-4,4.8-6,7.2
				c-0.7,0.9-1.4,1.7-2.1,2.6l0,0.1l0.1,0c1.6-2,3.3-4.1,5-6c1-1.1,2-2.3,3-3.4c0.9-1.1,1.9-2.1,2.9-3.1c0.6-0.6,1.2-1.2,1.8-1.8
				c0.8-0.8,1.5-1.5,2.3-2.3c0.4-0.4,0.9-0.8,1.3-1.3c0.3-0.3,0.6-0.6,0.9-0.9h1.4c0,0,0.1,0,0.2,0c0,0,0,0,0,0H24
				c-0.6,0.6-1.2,1.1-1.7,1.7c-0.3,0.4-0.7,0.7-1,1.1c-0.7,0.7-1.3,1.5-1.9,2.2c-1.4,1.7-2.8,3.3-4.2,5c-1.7,2-3.3,4.1-5,6.1
				c-0.3,0.4-0.7,0.9-1,1.3c-0.3,0.3-0.6,0.7-0.9,1c-1.2,0-2.5,0.1-3.7,0.5c-0.3-0.2-0.6-0.4-0.7-0.8c0-0.1,0-0.1-0.1-0.2
				c0-0.2,0-0.3,0-0.5c0-0.1-0.1-0.2-0.2-0.3c-0.1,0-0.2,0-0.2,0.1c0-0.1,0-0.1,0-0.2c0-0.1,0-0.2,0-0.4c0-0.2-0.1-0.4-0.1-0.6
				c0.7-0.9,1.5-1.8,2.3-2.7c2.3-2.7,4.8-5.4,7.2-8c1.1-1.1,2.2-2.3,3.2-3.4c0.5-0.6,1.1-1.1,1.6-1.7c0.1-0.1,0.2-0.2,0.3-0.3h3.4
				C20.7,52.9,20.3,53.3,19.9,53.7z M29,52.6c-0.3,0.2-0.5,0.5-0.8,0.8c-0.5,0.5-1,1-1.4,1.5c-0.9,1-1.8,1.9-2.7,2.9
				c-0.6,0.6-1.1,1.2-1.7,1.8c-0.2,0.2-0.5,0.5-0.7,0.7c-0.4-0.2-0.9-0.3-1.3-0.3c-0.2,0-0.3,0-0.5,0c-0.1,0-0.3,0.1-0.4,0.1
				c-0.3,0.1-0.6,0.2-0.8,0.4c-0.7,0.5-1.3,1.6-0.9,2.5c0.1,0.2,0.2,0.4,0.3,0.6c0.1,0.1,0.2,0.2,0.3,0.3c-1.1,1.2-2.3,2.4-3.5,3.7
				c-1.1,1.2-2.2,2.3-3.4,3.5c-1,0-2-0.1-3-0.1c-0.1,0-0.1,0-0.2,0c3.2-3.8,6.4-7.6,9.7-11.3c1-1.1,2-2.2,3-3.3
				c0.5-0.6,1.1-1.1,1.6-1.7c0.2-0.2,0.5-0.5,0.7-0.7c0.4-0.4,0.8-0.8,1.2-1.3c0.1-0.1,0.1-0.1,0.1-0.2h4.6
				C29.1,52.5,29.1,52.5,29,52.6z M33.3,52.5c-0.1,0.1-0.3,0.2-0.4,0.3c-0.4,0.4-0.8,0.8-1.3,1.2c-0.7,0.7-1.4,1.4-2.1,2.1
				c-1.1,1.1-2.1,2.2-3.2,3.4c-1,1.1-1.9,2.1-2.9,3.2c0-0.7-0.3-1.2-0.9-1.7c-0.1-0.1-0.3-0.2-0.4-0.3c0.1-0.1,0.3-0.3,0.4-0.4
				c1.5-1.6,3-3.2,4.5-4.8c0.5-0.5,1-1.1,1.5-1.6c0.3-0.3,0.6-0.6,0.9-1c0.1-0.1,0.2-0.2,0.3-0.4h3.2C33.1,52.5,33.2,52.5,33.3,52.5
				z M68.8,52.7c0,0.2,0.1,0.4,0.3,0.4c0.2,0,0.4-0.1,0.4-0.3c0.1,0,0.3,0,0.4,0c0.2,0.3,0.4,0.7,0.7,0.9c0,0,0,0,0,0
				c0,0-0.1,0-0.1,0.1c-0.8,0.7-1.7,1.3-2.5,2c-0.8,0.7-1.6,1.5-2.3,2.2c-0.4,0.4-0.8,0.8-1.2,1.2c-0.6,0.6-1.2,1.2-1.7,1.8
				c-0.6,0.6-1.2,1.3-1.8,1.9c-0.6,0.6-1.1,1.3-1.7,1.9c-1.6,1.8-3.1,3.6-4.6,5.5c0,0,0,0.1,0,0.1c0,0,0.1,0,0.1,0
				c0.5-0.6,1-1.3,1.6-1.9c0.5-0.6,1-1.2,1.5-1.8c0.4-0.5,0.9-1,1.3-1.5c0.7-0.8,1.5-1.6,2.2-2.3c0.7-0.7,1.3-1.3,2-2
				c0.3-0.3,0.7-0.6,1-0.9c0.5-0.5,1.1-1,1.7-1.6c0.7-0.6,1.4-1.3,2.1-1.9c0.9-0.8,1.8-1.6,2.7-2.3c0.1-0.1,0.1-0.2,0-0.3
				c0,0,0,0,0.1,0l0.1,0c0,0,0.1,0,0.1,0c0,0.1,0,0.1,0.1,0.2l0.1,0.2c0.1,0.4,0.1,0.9,0.2,1.3c-0.6,0.6-1.3,1.2-1.9,1.7
				c-1.2,1.2-2.4,2.4-3.6,3.6c-0.5,0.6-1.1,1.1-1.6,1.7c-0.6,0.7-1.3,1.4-1.9,2.1c-1.9,2.1-3.8,4.2-5.6,6.4c0,0.1,0,0.1,0,0.2
				c0.1,0,0.1,0,0.2,0c0.8-1,1.7-1.9,2.6-2.9c1.1-1.3,2.3-2.6,3.5-3.8c1.2-1.3,2.4-2.6,3.6-3.8c0.3-0.3,0.5-0.5,0.8-0.8
				c0.9-0.9,1.9-1.8,2.8-2.7c0.4-0.3,0.7-0.7,1.1-1c0.1,0.6,0.1,1.2,0.1,1.8c0,0.2,0,0.5,0,0.7c-0.3,0.3-0.6,0.5-0.9,0.8
				c-0.2,0.2-0.4,0.4-0.6,0.5c-1.6,1.6-3.2,3.1-4.7,4.7c-1.8,1.9-3.6,3.9-5.4,5.9l0,0.1l0.1,0c1.4-1.6,2.8-3.1,4.3-4.6
				c1-1,2-2,3.1-2.9c1-0.9,1.9-1.7,2.9-2.6c0.4-0.3,0.8-0.7,1.2-1c0,0.7,0,1.4,0,2c0,0.1,0,0.3,0,0.4c-0.1,0.1-0.3,0.2-0.4,0.3
				c-1.2,1-2.4,2.1-3.5,3.2c-1.2,1.2-2.4,2.4-3.6,3.5c-0.4,0.4-0.8,0.8-1.3,1.2c-0.1,0.1-0.1,0.2,0,0.2c0.1,0.1,0.2,0.1,0.2,0
				c0.9-0.8,1.7-1.6,2.6-2.5c0.3-0.3,0.6-0.6,0.9-0.9c1-0.9,1.9-1.8,2.9-2.7c0.7-0.6,1.4-1.2,2.1-1.8c0,0.3,0,0.6-0.1,0.9
				c0,0.5-0.1,1.1-0.1,1.6c-0.5,0.4-0.9,0.8-1.4,1.3c-0.7,0.8-1.4,1.6-2.2,2.4c-0.2,0.3-0.5,0.5-0.7,0.8c-0.3,0.3-0.7,0.7-1,1
				c-0.1,0.1-0.3,0.2-0.4,0.3c-0.1,0.1-0.1,0.2,0,0.2c0.1,0.1,0.2,0.1,0.2,0c0.3-0.2,0.6-0.5,0.9-0.7c0.3-0.3,0.6-0.5,0.8-0.8
				c1.2-1.3,2.4-2.6,3.8-3.8c-0.1,0.8-0.2,1.5-0.3,2.3c-0.1,0.1-0.1,0.1-0.2,0.2c-0.1,0.1-0.2,0.2-0.3,0.3c-0.3,0.3-0.5,0.6-0.8,1
				c-0.4,0.5-0.8,1-1.3,1.5c-0.1,0.1-0.2,0.2-0.3,0.3c-0.3,0-0.6,0-0.9,0.1H57.2c-2.2-0.1-4.5-0.3-6.7-0.4c0.1-0.1,0.2-0.2,0.3-0.3
				c0.1-0.1,0.3-0.3,0.4-0.4c0.2-0.2,0.4-0.4,0.6-0.6c0.2-0.2,0.4-0.4,0.6-0.6c0.7-0.7,1.4-1.4,2.1-2.1c0.7-0.7,1.3-1.4,2-2.1
				c0.9-0.9,1.7-1.8,2.5-2.7c0.9-1,1.9-2,2.8-3.1c0.9-0.9,1.7-1.8,2.6-2.7c0.4-0.4,0.9-0.8,1.3-1.3c0.6-0.6,1.2-1.2,1.9-1.8
				c0.1-0.1,0.1-0.2,0-0.2c-0.1-0.1-0.2-0.1-0.2,0c-0.7,0.5-1.3,1-1.9,1.5c-0.2,0.2-0.5,0.4-0.7,0.6c-0.5,0.5-1.1,1-1.6,1.5
				c-1.5,1.5-3,3.2-4.4,4.8c-1.3,1.5-2.5,3-3.8,4.4c-0.5,0.6-1.1,1.2-1.6,1.8c-0.7,0.8-1.5,1.5-2.2,2.3c-0.3,0.3-0.6,0.6-0.9,0.9
				c-2.5-0.1-4.9-0.3-7.4-0.4c0.1-0.1,0.3-0.2,0.4-0.4c0.5-0.4,0.9-0.9,1.4-1.3c0.8-0.8,1.6-1.5,2.4-2.3c0.8-0.8,1.7-1.7,2.5-2.6
				c0.5-0.5,0.9-0.9,1.4-1.4c0.1,0.2,0.3,0.3,0.5,0.5c0.2,0.2,0.4,0.3,0.7,0.5c0.1,0.1,0.3,0.2,0.4,0.2c-0.4,0.5-0.9,1-1.3,1.5
				c-1.3,1.5-2.6,2.9-3.9,4.4c-0.2,0.3-0.5,0.6-0.7,0.9l0,0c0.2-0.3,0.5-0.6,0.8-0.8c0.4-0.5,0.8-0.9,1.2-1.3c1.4-1.5,2.8-3,4.2-4.5
				c0.2,0.1,0.5,0.2,0.7,0.2c0.5,0.1,1.1,0.1,1.6,0c0.2-0.1,0.3-0.1,0.5-0.2c0.5-0.3,0.7-0.5,0.9-1c0-0.1,0.1-0.2,0.1-0.3
				c0-0.2,0-0.3,0-0.5c0-0.3-0.1-0.6-0.3-0.9c-0.1-0.2-0.2-0.3-0.3-0.4l0,0l0,0c0.8-0.8,1.5-1.5,2.3-2.3c1.1-1.1,2.3-2.2,3.4-3.3
				c0.8-0.8,1.7-1.5,2.6-2.2c0.1-0.1,0.1-0.2,0-0.3c-0.1-0.1-0.2-0.1-0.3,0c0,0,0.1,0,0.1,0c0.7,0,1.3,0,2-0.1c0.3,0,0.6,0,0.9,0
				c0.1,0,0.3,0,0.4-0.1c0.5,0,0.9-0.1,1.4-0.1C68.8,52.6,68.8,52.6,68.8,52.7z M36.4,52.6c-0.4,0.4-0.8,0.9-1.2,1.3
				c-0.8,0.8-1.5,1.7-2.3,2.5c-1,1.1-1.9,2.2-2.9,3.4c-1,1.1-1.9,2.3-2.9,3.5c-1,1.2-2,2.4-3,3.7c-1.1,1.3-2.1,2.6-3.2,3.9
				c-0.2,0-0.3,0-0.5,0c-0.4,0-0.8,0-1.1,0c-0.5,0-1,0.1-1.5,0.1c-0.5,0-1.1,0.1-1.6,0.1c0,0-0.1,0-0.1,0c1.1-1.1,2.2-2.2,3.2-3.4
				c0.3-0.3,0.6-0.6,0.9-1c0.5-0.5,1-1.1,1.5-1.6c0.1,0,0.2,0,0.3-0.1c0.2,0,0.5-0.2,0.7-0.3c0.1-0.1,0.3-0.2,0.4-0.3
				c0.1-0.1,0.2-0.2,0.2-0.3c0.1-0.2,0.2-0.5,0.3-0.7c0-0.2,0.1-0.3,0.1-0.5c0.9-1,1.8-2,2.7-2.9c0.7-0.7,1.4-1.4,2.1-2.1
				c1.3-1.3,2.7-2.6,4-3.9c0.4-0.3,0.8-0.7,1.1-1c0.2-0.2,0.4-0.3,0.6-0.5C34.8,52.5,35.6,52.5,36.4,52.6z M38,52.6
				c0.9,0,1.9,0.1,2.8,0.1c-0.3,0.3-0.7,0.6-1,0.9c-0.4,0.4-0.8,0.8-1.3,1.2c-1.3,1.3-2.5,2.5-3.7,3.8c-3.7,3.9-7.3,7.9-10.8,12
				c-0.7,0-1.4,0-2.1,0c-0.3,0-0.6,0-0.9,0c0.7-0.8,1.4-1.6,2-2.4c2.5-3,5.1-6,7.7-9c1.6-1.8,3.2-3.5,4.9-5.2c0.5-0.5,1-1.1,1.5-1.6
				C37.5,52.6,37.7,52.6,38,52.6z M42,52.7c0.4,0,0.8,0,1.2,0c-0.4,0.4-0.9,0.9-1.3,1.3c-0.6,0.6-1.2,1.2-1.8,1.9s-1.2,1.3-1.8,1.9
				c-1.1,1.1-2.2,2.3-3.2,3.4c-2.1,2.3-4.2,4.5-6.4,6.8c-0.8,0.9-1.6,1.7-2.4,2.6c-0.7,0-1.4,0-2,0c3.7-4.3,7.6-8.5,11.6-12.4
				c1.1-1.1,2.3-2.3,3.5-3.3c0.4-0.4,0.8-0.7,1.2-1.1c0.4-0.4,0.8-0.7,1.2-1.1C41.7,52.7,41.8,52.7,42,52.7z M63.2,53.4
				c-0.6,0.5-1.2,1-1.7,1.5c-0.5,0.5-1,0.9-1.5,1.4c-0.3,0.3-0.6,0.6-0.9,0.9c-0.6,0.6-1.2,1.2-1.9,1.9c-0.5,0.5-1,1-1.4,1.5
				c-0.1-0.2-0.2-0.5-0.4-0.7c-0.2-0.3-0.6-0.5-0.9-0.6c0.8-0.8,1.5-1.6,2.2-2.4c0.8-0.8,1.5-1.7,2.2-2.5c0.1-0.1,0.1-0.3,0-0.4
				c-0.1-0.1-0.3-0.1-0.4,0c-1.5,1.7-3.1,3.4-4.6,5.1c-0.7-0.2-1.5-0.1-2.2,0.2c-0.5,0.2-0.9,0.6-1.2,1.1c-0.1,0.3-0.2,0.6-0.2,0.9
				c0,0.5,0.1,0.9,0.3,1.3c-0.3,0.4-0.7,0.7-1,1.1c-1.6,1.6-3.1,3.2-4.7,4.8c-0.4,0.4-0.8,0.8-1.2,1.2c-0.4,0.4-0.7,0.7-1.1,1.1
				c-0.1,0.1-0.2,0.2-0.4,0.4c-0.2,0-0.5,0-0.7,0c-0.8,0-1.7-0.1-2.5-0.1c0.3-0.3,0.6-0.6,0.9-0.9c1.5-1.6,2.9-3.2,4.4-4.8
				c0.8-0.8,1.5-1.7,2.3-2.5c0.7-0.7,1.3-1.5,2-2.2c1-1.1,1.9-2.1,2.8-3.2c0.6-0.7,1.3-1.4,1.9-2.1c0.6-0.7,1.2-1.4,1.7-2.2
				c0.3,0,0.6,0,0.9,0c0.2,0,0.3,0,0.5,0c1.6,0,3.2,0,4.8,0c0.9,0,1.8,0,2.7-0.1C63.8,53,63.5,53.2,63.2,53.4z M46,52.8
				c-0.2,0.3-0.5,0.6-0.7,0.9c-1.5,1.7-3,3.4-4.5,5.2c-2.7,3.2-5.4,6.3-7.9,9.6c-0.6,0.7-1.1,1.4-1.7,2.2c-0.4,0-0.8,0-1.1,0
				c-1.2,0-2.4,0-3.7,0c0,0,0,0,0,0c2.8-3,5.7-5.9,8.6-8.9c3-3,6-6,8.9-9C44.6,52.8,45.3,52.8,46,52.8z M53.1,54.3
				c-0.8,1-1.6,2-2.5,3c-1.1,1.4-2.3,2.7-3.4,4.1c-1.5,1.8-3,3.6-4.6,5.4c-0.9,1.1-1.9,2.1-2.8,3.2c-0.3,0.3-0.5,0.6-0.8,0.9
				c-0.2,0-0.4,0-0.6,0c-0.8,0-1.5,0-2.3-0.1c-0.4,0-0.7,0-1.1,0c0.4-0.5,0.8-1,1.2-1.4c1-1.2,2-2.3,3-3.4c0.9-1,1.7-1.9,2.6-2.8
				c0.8-0.9,1.7-1.8,2.5-2.7c1.3-1.3,2.5-2.7,3.8-4.1c0.4-0.5,0.8-1,1.2-1.4c0.4-0.5,0.8-0.9,1.1-1.4c0.1-0.1,0.1-0.3,0-0.3
				c-0.1-0.1-0.3-0.1-0.3,0c-0.4,0.4-0.7,0.7-1,1.1c-0.3,0.3-0.5,0.6-0.8,0.9c-1.3,1.6-2.6,3.1-4,4.6c-1.8,2.1-3.7,4.1-5.5,6.3
				c-0.9,1.1-1.8,2.1-2.7,3.2c-0.4,0.5-0.8,1-1.1,1.5c-0.3,0-0.6,0-0.9,0c-0.9,0-1.9,0-2.8,0c1-1.3,2-2.5,3-3.7
				c1.1-1.3,2.2-2.6,3.4-3.8c1.1-1.2,2.3-2.5,3.4-3.7c0.6-0.7,1.3-1.4,1.9-2.1c0.6-0.7,1.3-1.4,1.9-2.1c0.7-0.8,1.3-1.5,2-2.3
				c0.2,0,0.5,0,0.7,0c1,0,2,0,3,0c1.3,0,2.7,0,4-0.1C54,53.3,53.5,53.8,53.1,54.3z M3.3,54.6l0,1.4c0,0.6,0,1.3-0.1,1.9
				C3.1,58,3,58.1,3,58.2c0-0.2,0-0.5,0-0.7c0-0.4,0.1-0.7,0.1-1.1c0.1-0.5,0.1-1.1,0.2-1.6L3.3,54.6z M72.7,56.6c0-0.1,0-0.3,0-0.4
				c0-0.2,0-0.5,0-0.7c0,0,0,0,0,0C72.7,55.8,72.7,56.2,72.7,56.6z M3.2,58.3C3.2,58.3,3.1,58.3,3.2,58.3
				C3.1,58.3,3.2,58.3,3.2,58.3C3.2,58.3,3.2,58.3,3.2,58.3z M52.4,59.7l0,0.1c0.1,0.1,0.2,0.2,0.4,0.2c0,0,0.1,0,0.1,0
				c-0.1,0.1-0.1,0.1-0.2,0.2c-0.5,0.5-1,1-1.5,1.6c0-0.1-0.1-0.2-0.1-0.3c-0.1-0.5,0.2-1.1,0.6-1.4c0,0,0.1-0.1,0.1-0.1l0,0
				l0.2-0.1C52.2,59.8,52.3,59.8,52.4,59.7L52.4,59.7z M54.2,60.4c0.3,0.2,0.7,0.5,1,0.8l0-0.1c-0.6,0.7-1.2,1.3-1.8,2l0.1,0l0,0
				l-0.3,0c-0.4,0-0.8-0.1-1.1-0.4c-0.2-0.1-0.4-0.3-0.5-0.5c0.7-0.7,1.4-1.4,2-2.1C53.8,60.2,54.1,60.3,54.2,60.4z M20.8,60.8
				l0.1,0l0.1,0L20.8,60.8z M21.1,60.9l0.1,0C21.2,60.9,21.2,60.9,21.1,60.9L21.1,60.9z M20.6,61.5c-0.6,0.6-1.2,1.2-1.7,1.9
				c-0.1-0.1-0.1-0.1-0.2-0.2l-0.1-0.1l0-0.1c-0.2-0.5,0-1,0.4-1.3l0.2-0.1l0.1,0c0.3-0.1,0.5-0.1,0.7-0.1
				C20.2,61.4,20.4,61.5,20.6,61.5z M22.4,62.9c0,0.1,0,0.2,0,0.3l0,0.2l-0.1,0.1c0,0.1-0.1,0.1-0.2,0.2c-0.1,0.1-0.2,0.1-0.3,0.2
				c-0.1,0.1-0.4,0.2-0.5,0.2c-0.4,0.1-1.3,0-1.7-0.2c-0.1-0.1-0.3-0.1-0.4-0.2c0.6-0.7,1.3-1.3,1.9-2
				C21.7,61.9,22.3,62.2,22.4,62.9z M54.5,62.7c-0.2,0.1-0.3,0.2-0.5,0.3c0.4-0.4,0.7-0.8,1.1-1.1C55,62.2,54.8,62.5,54.5,62.7z
				 M55.8,62.1l0.1,0.3c0,0.2,0,0.3,0,0.4c0,0.1-0.1,0.2-0.1,0.3l-0.1,0.2l-0.2,0.2c-0.1,0.1-0.2,0.1-0.2,0.2
				c-0.1,0-0.2,0.1-0.2,0.1c-0.1,0-0.2,0-0.3,0.1c-0.2,0-0.3,0-0.5,0l-0.2,0l0.2-0.1c0.4-0.1,0.8-0.4,1.1-0.7
				c0.2-0.2,0.4-0.5,0.5-0.7L55.8,62.1z M19.1,64.4l0.2,0.1l0.2,0.1c0.5,0.3,1.2,0.5,1.8,0.4c-0.4,0.5-0.8,0.9-1.2,1.4
				c-0.8,0.9-1.6,1.7-2.4,2.6c-0.6,0.7-1.2,1.3-1.9,1.9c-0.4,0-0.8,0-1.2,0.1c-0.7,0-1.3,0-2,0c-0.2,0-0.5,0-0.7,0
				c0.9-0.9,1.8-1.8,2.6-2.6c1.4-1.4,2.8-2.8,4.1-4.2C18.8,64.3,18.9,64.3,19.1,64.4z M72.2,65.5l0,4.2l-0.1,0.3c0,0,0,0,0,0.1
				c-0.1,0-0.1,0.1-0.1,0.1c-0.1,0.1-0.1,0.2-0.2,0.2c-0.1,0.1-0.1,0.1-0.2,0.2c-0.1,0.1-0.1,0.1-0.2,0.2l-0.1,0
				c0.1-0.4,0.1-0.7,0.2-1.1c0.1-0.5,0.2-1,0.3-1.5c0-0.1,0.1-0.2,0.1-0.3c0,0,0,0-0.1,0c0-0.3,0.1-0.5,0.1-0.8
				C72,66.6,72.1,66,72.2,65.5C72.1,65.5,72.2,65.5,72.2,65.5L72.2,65.5z M3.4,68c-0.1,0.1-0.2,0.2-0.3,0.3c0-0.1,0-0.3-0.1-0.4
				C3.2,68,3.3,68,3.4,68z M10.2,71.5c0.3,0,0.6,0,0.9,0.1c-0.1,0.1-0.1,0.1-0.2,0.2H7.7c0.1-0.1,0.2-0.2,0.3-0.3
				C8.7,71.4,9.4,71.4,10.2,71.5z M7.5,71.7H5.1c0,0,0,0,0,0c0.2,0,0.4-0.1,0.6-0.1c0.7-0.1,1.4-0.2,2.1-0.2
				C7.7,71.5,7.6,71.6,7.5,71.7z M25.4,71.5c-0.1,0.1-0.1,0.1-0.2,0.2h-5c0,0,0.1-0.1,0.1-0.1c1,0,2,0,3-0.1c0,0-0.1,0.1-0.1,0.1
				l0,0.1l0.1,0c0-0.1,0.1-0.1,0.1-0.2c0.6,0,1.2,0,1.8,0C25.2,71.5,25.3,71.5,25.4,71.5z M30.5,71.5c0,0-0.1,0.1-0.1,0.1
				c0,0,0,0,0,0.1h-5.1c0.1-0.1,0.1-0.1,0.2-0.2C27.2,71.5,28.8,71.5,30.5,71.5z M33.6,71.6c0.2,0,0.4,0,0.7,0c0,0,0,0,0,0.1
				c0,0,0,0,0,0.1h-3.7c0,0,0,0,0,0c0-0.1,0.1-0.1,0.1-0.2C31.6,71.5,32.6,71.5,33.6,71.6z M13.3,71.7c0.5,0,0.9,0,1.4,0
				c0.2,0,0.3,0,0.5,0c0.6,0,1.2,0,1.8,0c1.1,0,2.2,0,3.3,0c0,0-0.1,0.1-0.1,0.1h-8.8c0,0,0.1-0.1,0.1-0.1
				C12,71.6,12.7,71.6,13.3,71.7z M38.2,71.7C38.2,71.7,38.2,71.7,38.2,71.7l-3.9,0c0,0,0,0,0,0c0,0,0.1-0.1,0.1-0.1
				C35.7,71.6,36.9,71.6,38.2,71.7z M38.7,71.7c0.2,0,0.4,0,0.5,0h-0.9c0,0,0,0,0,0C38.5,71.7,38.6,71.7,38.7,71.7z"/>
		</g>
	</g>
</g>
</svg>
