<?xml version="1.0" encoding="utf-8"?>
<!-- Generator: Adobe Illustrator 22.1.0, SVG Export Plug-In . SVG Version: 6.00 Build 0)  -->
<svg version="1.1" id="Слой_1" xmlns="http://www.w3.org/2000/svg" xmlns:xlink="http://www.w3.org/1999/xlink" x="0px" y="0px"
	 viewBox="0 0 75 75" style="enable-background:new 0 0 75 75;" xml:space="preserve">
<g transform="scale(1 -1)">
	<g transform="translate(0 -75)">
		<g>
			<path marker-start="none" marker-end="none" d="M14.9,2.5c-0.1,0.1-0.2,0.2-0.1,0.4c0,0.1,0,0.1,0.1,0.2
				c-0.7,0.3-1.4,0.7-2.1,1.1c0,0,0,0,0,0c-0.1-0.2-0.3-0.2-0.5-0.1c-0.5,0.3-1.1,0.7-1.5,1.1c-0.5,0.4-0.9,0.7-1.3,1.1
				C9,6.5,8.6,6.8,8.2,7.2c-0.5,0.5-0.9,1-1.4,1.5c-1.3,1.4-2.4,3-3.3,4.7c-0.5,0.8-0.9,1.7-1.2,2.6c-0.1,0.2-0.2,0.4-0.3,0.5
				c0,0.1,0,0.2,0,0.2c0,0,0,0,0,0c0,0.1-0.1,0.3-0.1,0.4c0,0.1,0,0.2,0.1,0.2c0.1,0,0.2,0,0.2-0.1c0.1-0.4,0.3-0.8,0.4-1.2
				c0.7-1.1,1.4-2.2,2.2-3.3c0.8-1.1,1.6-2.1,2.5-3.1c0.4-0.5,0.9-1,1.4-1.4c0,0,0,0,0,0C8.4,8.5,8.1,8.9,7.7,9.3
				c-1.1,1.3-2.1,2.8-3,4.2c-0.4,0.6-0.8,1.3-1.2,2c-0.2,0.3-0.3,0.5-0.4,0.8c-0.1,0.1-0.1,0.2-0.2,0.4c0,0-0.1,0.1-0.1,0.1
				c-0.1,0.1-0.2,0.2-0.3,0.3c-0.1,0.1-0.2,0.2-0.3,0.3c-0.1,0-0.1,0-0.2,0c-0.3,0-0.5-0.1-0.8-0.1c-0.2,0-0.3,0.1-0.4,0.2
				c0,0.2,0.1,0.3,0.2,0.4c0.2,0,0.4,0.1,0.5,0.1c0,0,0,0.1,0,0.1C1.7,18.1,1.9,18.1,2,18C2,18,2,18,2.1,18c0.1,0,0.3,0.1,0.4,0.1
				c0.3,0,0.5,0.1,0.8,0.2c0.1,0,0.1,0,0.2,0c0,0-0.1,0-0.1,0.1c0,0-0.1,0.1,0,0.2c0,0,0.1,0.1,0.2,0c0.1-0.1,0.2-0.1,0.2-0.2
				c0.5,0.1,1.1,0.3,1.6,0.4c0,0,0,0.1,0,0.1h0.2c0,0,0,0,0.1-0.1c0.7,0.1,1.3,0.3,2,0.4c0.4,0.1,0.8,0.2,1.3,0.2
				c0.1,0.1,0.2,0.1,0.3,0.2c0.1,0,0.2,0,0.3,0c0.7,1,1.4,2,2,3c0.2,0.2,0.3,0.5,0.5,0.7c0,0,0,0,0,0c-0.4,0.1-1.1,0.1-1.3,0.4
				c0,0-0.1,0.1-0.1,0.1c0,0,0,0.1,0,0.1c0,0,0.1,0,0.1,0c0.1-0.2,0.4-0.3,0.6-0.3c0.2,0,0.6,0,0.8-0.1c0.3,0.5,0.7,1,1,1.6
				c-0.1,0.1-0.3,0.2-0.4,0.3c-0.1,0.1-0.3,0.2-0.4,0.3c0,0,0,0.1,0,0.1c0,0,0.1,0,0.1,0c0.2-0.1,0.4-0.3,0.6-0.4
				c0.1-0.1,0.2-0.1,0.3-0.2c0.3,0.4,0.6,0.9,0.9,1.3c0,0,0,0-0.1,0c-0.1,0-0.1,0-0.2,0.1c-0.1,0-0.2,0-0.3,0c0,0-0.1,0-0.1,0.1
				c0,0,0,0.1,0.1,0.1c0.1,0,0.2,0,0.3,0c0,0,0.1,0,0.1,0c0.1,0,0.2-0.1,0.2-0.1c0.2,0.3,0.4,0.6,0.6,0.9c-0.2,0.2-0.5,0.4-0.6,0.6
				c0,0,0,0.1,0,0.1s0.1,0,0.1,0c0.2-0.2,0.4-0.4,0.6-0.6c0,0.1,0.1,0.1,0.1,0.2c0.3,0.4,0.6,0.9,0.8,1.3c-0.1,0.1-0.1,0.1-0.2,0.2
				c0,0,0,0.1,0,0.1c0,0,0.1,0,0.1,0c0.1-0.1,0.1-0.1,0.2-0.2c0,0,0,0.1,0.1,0.1c0.2,0.4,0.5,0.7,0.7,1.1c0,0.1-0.1,0.2,0,0.4
				c0,0,0,0.1,0.1,0.1s0.1,0,0.1-0.1c0-0.1,0-0.2,0-0.2c0.3,0.4,0.6,0.9,0.8,1.3c0,0,0,0.1,0.1,0.1c-0.1,0.1-0.2,0.2-0.3,0.2
				c0,0-0.1,0.1,0,0.1c0,0,0.1,0.1,0.1,0c0.1-0.1,0.2-0.1,0.3-0.2c0.6,1,1.2,2,1.8,3c-0.1,0.1-0.2,0.2-0.3,0.3c0,0-0.1,0.1,0,0.2
				c0,0,0.1,0.1,0.2,0c0.1-0.1,0.2-0.1,0.2-0.2c0.4,0.6,0.7,1.3,1.1,1.9c-0.1,0.1-0.2,0.1-0.3,0.2c-0.1,0-0.1,0.1,0,0.1
				s0.1,0.1,0.1,0c0.1-0.1,0.2-0.1,0.3-0.2c0.3,0.5,0.5,0.9,0.8,1.4c0.1,0.2,0.2,0.4,0.4,0.6c-0.1,0.1-0.1,0.2-0.2,0.2
				c0,0.1,0,0.1,0,0.2s0.1,0,0.2,0c0,0,0.1-0.1,0.1-0.1c0.3,0.5,0.6,1.1,1,1.6c0,0,0,0,0,0c0,0-0.1,0-0.2,0.1
				c-0.1,0-0.1,0.1-0.1,0.2c0,0.1,0.1,0.1,0.2,0.1c0,0,0.1,0,0.2-0.1c0,0,0,0,0.1,0c1.6,2.7,3.2,5.4,4.8,8.2c1.3,2.2,2.7,4.5,4,6.7
				c0.7,1.2,1.5,2.4,2.2,3.6c0.4,0.7,0.9,1.4,1.3,2.1c1,1.6,2.1,3.3,3.2,4.9c0,0,0,0,0.1,0c0,0,0,0,0-0.1c-0.8-1.4-1.6-2.9-2.5-4.3
				c-1-1.7-2.1-3.5-3.1-5.2c-0.8-1.4-1.7-2.7-2.5-4.1c0.1-0.1,0.2-0.2,0.3-0.2c0.4,0.6,0.8,1.3,1.2,1.9c2.5,4.1,5,8.2,7.5,12.3
				c0.1,0.2,0.4,0.3,0.7,0.2c0.1-0.1,0.2-0.1,0.2-0.2c-0.2,0.2-0.2,0.3-0.3,0.3c0,0,0,0.1,0,0.1c0,0,0.1,0,0.1,0
				c0.1-0.2,0.3-0.4,0.4-0.6c0.1,0,0.2,0,0.3,0c0,0.1,0,0.2,0,0.3c0,0.1,0,0.3,0.1,0.3c0.1,0,0.1,0,0.2,0c0.2-0.1,0.3-0.1,0.5-0.2
				c0.7-0.3,1.4-0.6,2-1.1c0.8-0.5,1.5-1.1,2.3-1.7c0,0,0,0.1,0,0.1c0,0.1,0.1,0.2,0.1,0.2c0.1,0,0.2-0.1,0.2-0.1c0-0.1,0-0.2,0-0.4
				c0.2-0.2,0.4-0.3,0.6-0.5c0.4-0.4,0.9-0.8,1.3-1.2c0,0,0,0,0,0c0.1,0,0.2-0.1,0.2-0.2c0,0,0,0,0,0c0.3-0.3,0.7-0.6,1-0.9
				c0,0.1,0.1,0.1,0.2,0.1c0.1,0,0.2-0.1,0.2-0.2c0-0.1,0-0.2,0-0.3c0.3-0.3,0.6-0.6,0.9-0.9c0.5-0.5,0.9-1,1.4-1.5
				c0.3-0.3,0.6-0.7,0.9-1c0.5-0.5,1-1.1,1.4-1.6c0.5-0.6,1.1-1.3,1.6-1.9c0,0,0,0,0.1,0c0.2,0.1,0.4,0,0.4-0.2
				c0.1-0.2,0.2-0.4,0.2-0.6c0-0.1,0-0.1,0.1-0.2c0.1-0.1,0.1-0.1,0.2-0.2c0.4-0.4,0.7-0.9,1.1-1.3c0,0.1,0,0.3-0.1,0.4
				c0,0.2,0.1,0.3,0.3,0.3s0.3-0.1,0.3-0.3c0.1-0.5,0.1-1,0.2-1.5c0.3-0.4,0.6-0.8,0.9-1.2c0.4-0.6,0.8-1.2,1.2-1.8
				c0.2-0.3,0.4-0.6,0.6-0.9c0.5-0.7,1-1.5,1.5-2.2c0.8-1.2,1.5-2.3,2.2-3.5c0.3-0.5,0.6-1.1,0.9-1.6c0.3-0.5,0.5-1,0.8-1.5
				c0.4-0.7,0.7-1.5,1-2.3c0.1-0.2,0.1-0.3,0.1-0.5c0-0.1,0-0.2,0.1-0.3c0-0.1,0-0.1,0-0.2c0-0.1,0-0.1,0.1-0.2
				c0.1-0.2,0-0.4-0.1-0.5c0-0.1,0-0.2,0-0.3c0-0.1-0.1-0.2-0.2-0.4c-0.3-0.3-0.6-0.1-0.9,0c-0.3,0.1-0.6,0.2-0.8,0.3
				c-0.2-0.1-0.4-0.2-0.6-0.3c0.3,0.1,0.6-0.1,0.6-0.4c0.1-0.3-0.1-0.6-0.4-0.7c-0.1,0-0.1,0-0.2-0.1c0,0,0-0.1,0-0.2
				c0-0.1-0.1-0.1-0.2-0.1c-0.1,0-0.2,0.1-0.4,0.1c-0.2-0.1-0.5-0.1-0.7-0.2c-0.2-0.1-0.4-0.1-0.6-0.2c0.2-0.1,0.5-0.2,0.7-0.4
				c0,0,0,0,0-0.1c0,0,0,0-0.1,0c-0.4,0.1-0.8,0.2-1.2,0.3c-0.5-0.2-1-0.3-1.5-0.5c-1.7-0.6-3.3-1.3-4.9-1.9
				c-1.9-0.8-3.9-1.7-5.8-2.6c-0.1-0.1-0.3-0.1-0.4-0.2c0,0,0,0,0,0c0,0-0.1-0.1-0.1-0.1c0,0,0,0-0.1,0c0,0-0.1,0-0.1,0
				c0-0.1,0.1-0.1,0.1-0.2c0.1-0.2,0.2-0.3,0.3-0.5c0.1-0.1,0.1-0.3,0.2-0.4c0-0.1,0.1-0.2,0.1-0.3c0.1-0.2,0.2-0.4,0.3-0.7
				c0.4-1.1,0.7-2.2,0.7-3.4c0-0.2,0-0.4-0.1-0.6c0-0.3,0-0.6,0-0.8c0-0.1,0-0.3,0-0.4c0-0.2-0.1-0.3-0.1-0.5c0-0.1,0-0.3-0.1-0.4
				c-0.1-0.3-0.1-0.5-0.2-0.8c-0.1-0.4-0.3-0.8-0.5-1.2c-0.2-0.3-0.3-0.7-0.5-1c-0.2-0.3-0.4-0.7-0.7-1c-0.1-0.1-0.2-0.3-0.3-0.4
				c-0.1-0.1-0.2-0.3-0.3-0.4c-0.1-0.2-0.3-0.3-0.4-0.5c0,0,0.1,0,0.1,0c0.1,0,0.1-0.2,0.1-0.2c0-0.1-0.2-0.1-0.2-0.1
				c-0.1,0-0.1,0.1-0.2,0.1c-0.7-0.7-1.4-1.3-2.2-1.9c-0.8-0.6-1.7-1.1-2.6-1.4c-0.2-0.1-0.4-0.2-0.6-0.2c0,0,0.1-0.1,0.1-0.1
				c0-0.1-0.1-0.1-0.1-0.1c-0.1,0-0.2,0.1-0.3,0.1c-0.3-0.1-0.5-0.1-0.8-0.2c-0.5-0.1-1-0.2-1.6-0.2c0,0,0-0.1,0-0.1
				c0-0.1-0.1-0.1-0.2-0.1c-0.1,0.1-0.3,0.1-0.4,0.2C38.1,9,35.7,9.8,34,11.1c-0.7,0.5-1.3,0.9-1.9,1.5c-0.2,0.3-0.5,0.5-0.7,0.8
				c-0.2,0.2-0.4,0.5-0.6,0.7c-0.1,0.1-0.2,0.3-0.3,0.4c-0.4,0.2-0.8,0.5-1.1,0.7c0,0,0,0.1,0,0.1c0,0,0.1,0,0.1,0
				c0.1-0.1,0.3-0.2,0.9-0.5c0,0,0,0,0,0.1c-0.1,0.2-0.3,0.4-0.4,0.5c-0.3,0.2-0.5,0.4-0.8,0.5c-1.7-0.8-3.3-1.5-5-2.2
				c-1.6-0.6-3.2-1.2-4.8-1.7c-0.2-0.1-0.3,0-0.4,0.2c-0.1,0-0.2-0.1-0.2-0.1c0-0.1-0.1-0.2-0.1-0.3c-0.1-0.1-0.3-0.2-0.5-0.1
				c0-0.1,0-0.2-0.1-0.3c0.1-0.1,0.2-0.3,0.1-0.4c-0.2-0.7-0.4-1.4-0.6-2.1c-0.1-0.3-0.2-0.5-0.3-0.8c-0.2-0.6-0.4-1.1-0.5-1.7
				c-0.3-0.8-0.5-1.5-0.8-2.3c0,0,0.1,0,0.1,0c0.1-0.1,0.2-0.2,0.1-0.3c0-0.1-0.2-0.2-0.3-0.1c0,0-0.1,0-0.1,0
				c-0.1-0.4-0.3-0.7-0.5-1.1C15.2,2.5,15,2.4,14.9,2.5z M15.2,3.9C15.1,3.9,15.1,4,15,4c0,0,0,0,0,0c0.1,0,0.1-0.2,0.1-0.3
				c0,0,0,0,0,0c0,0,0,0,0,0C15.1,3.8,15.1,3.8,15.2,3.9z M15.6,5.1c0,0-0.1,0-0.1,0c-2.8,1.1-5.3,2.8-7.7,4.5
				c0.6-0.8,1.3-1.5,2.1-2.2C10,7.3,10.1,7.1,10.3,7c0.5-0.3,1-0.6,1.5-0.9c0.8-0.5,1.7-0.9,2.5-1.3c0.3-0.2,0.6-0.3,1-0.4
				C15.4,4.7,15.5,4.9,15.6,5.1z M15.9,6.2C15.9,6.2,15.9,6.2,15.9,6.2c-0.4,0.1-0.9,0.3-1.3,0.4c-0.1,0.1-0.3,0.1-0.4,0.2
				C13.5,7.1,12.7,7.5,12,8c-0.2,0.1-0.3,0.2-0.5,0.3C10.8,8.7,10,9.1,9.3,9.6c0.1-0.1,0.2-0.2,0.3-0.3C10.1,8.9,10.5,8.4,11,8
				c0.1-0.1,0.1-0.2,0-0.3c1.5-0.9,3-1.6,4.6-2.2c0,0,0,0,0.1,0C15.8,5.7,15.9,6,15.9,6.2z M16.2,7.1c0.1,0.3,0.2,0.6,0.2,0.9
				c0.1,0.3,0.2,0.7,0.3,1c0.1,0.2,0.1,0.5,0.2,0.7c0,0.2,0.1,0.3,0.1,0.5c-0.6,0.3-1.2,0.6-1.8,0.9c-0.2,0.1-0.4,0.1-0.6,0.2
				c-0.5,0.2-1.1,0.3-1.6,0.6c-0.3,0.1-0.5,0.2-0.8,0.4c0.6-0.5,1.2-1.1,1.8-1.6c0,0,0-0.1,0-0.1c0,0-0.1,0-0.1,0
				c-0.8,0.7-1.6,1.5-2.4,2.2c-0.2,0.1-0.5,0.3-0.7,0.4c-0.1,0.1-0.4,0.2-0.5,0.3l0,0c0,0,0,0.1,0.1,0.1l0,0l0,0
				c0.1-0.1,0.2-0.1,0.3-0.2l0.2-0.1c-0.3,0.3-0.6,0.6-1,0.9c0,0,0,0.1,0,0.1c0,0,0.1,0,0.1,0c0.3-0.3,0.6-0.5,0.9-0.8
				c0,0,0.1,0,0.1,0c0.3-0.1,0.5-0.2,0.8-0.3c0.4-0.2,0.8-0.4,1.2-0.6c0.5-0.2,1-0.5,1.5-0.7c-0.4,0.4-0.8,0.9-1.2,1.4
				c-0.1,0.2-0.3,0.3-0.4,0.5c-0.1,0.1-0.1,0.2-0.2,0.2c-0.2,0.3-0.5,0.6-0.8,0.8c-0.1,0.1-0.2,0.1-0.3,0.2c-0.1,0-0.3,0.1-0.4,0.1
				h-0.4c-0.1,0-0.1,0-0.2,0c-0.1,0-0.2,0-0.2,0.1c0,0.1,0,0.2,0.1,0.2c0.1,0,0.1,0,0.2,0c0.2,0,0.3,0,0.5,0
				c0.3-0.1,0.6-0.2,0.9-0.4c0,0,0,0,0,0c0,0,0.1,0,0.1,0c0.3-0.2,0.6-0.4,0.9-0.7c0.1-0.1,0.3-0.2,0.4-0.3c0.3-0.2,0.7-0.4,1-0.5
				c0.9-0.4,1.8-0.8,2.7-1.1c0,0,0,0,0,0c-0.1,0.1-0.3,0.2-0.4,0.3c0,0,0,0-0.1,0c-0.8,0.5-1.5,1-2.1,1.7c0,0,0,0-0.1,0
				c-0.3,0.2-0.7,0.3-1,0.5c-0.2,0.1-0.5,0.3-0.7,0.4c-0.2,0.1-0.4,0.2-0.5,0.3c-0.1,0.1-0.2,0.1-0.3,0.2c-0.1,0-0.1,0.1-0.1,0.2
				c0,0.1,0.1,0.1,0.2,0.1c0.1-0.1,0.3-0.1,0.4-0.2c0.2-0.1,0.4-0.2,0.6-0.3c0.2-0.1,0.3-0.2,0.5-0.2c0.1-0.1,0.2-0.1,0.3-0.2
				c-0.7,0.7-1.4,1.5-2,2.3c-0.2,0.3-0.5,0.6-0.7,1c-0.1,0.1-0.2,0.2-0.2,0.3c-0.2,0.3-0.3,0.6-0.5,0.9c-0.2,0-0.3-0.1-0.5-0.1
				c0.1-0.1,0.1-0.1,0.1-0.2c0-0.2-0.1-0.4-0.4-0.5c-0.5-0.1-1-0.1-1.6-0.2c-0.1-0.1-0.3-0.2-0.4-0.3c0.5-0.2,1-0.4,1.5-0.6
				c0.1,0,0.1-0.1,0.1-0.2c0-0.1-0.1-0.1-0.2-0.1c-0.6,0.2-1.1,0.5-1.7,0.7c-0.3-0.2-0.7-0.3-1-0.4c0,0,0.1-0.1,0.1-0.1
				c0.1-0.1,0.1-0.2,0-0.2H6.5c-0.1,0.1-0.2,0.2-0.3,0.3c-0.1,0-0.2,0-0.2,0c-0.1,0-0.2,0-0.3,0.1c-0.3-0.1-0.6-0.2-1-0.3
				c0.3-0.3,0.7-0.6,1-0.8c0.2-0.2,0.5-0.4,0.7-0.6C6.6,16,6.8,15.9,7,15.8C7,15.7,7,15.6,7,15.6c-0.1-0.1-0.2-0.1-0.2,0
				c-0.7,0.4-1.3,1-1.9,1.5c-0.2,0.2-0.4,0.3-0.6,0.5c-0.2,0-0.3,0-0.5-0.1c-0.1,0-0.2,0.1-0.2,0.2c0,0,0,0,0,0
				c-0.3-0.1-0.6-0.1-0.9-0.2c0.2-0.2,0.4-0.4,0.5-0.6c0.2-0.3,0.5-0.6,0.7-0.8c0.1-0.2,0.3-0.3,0.5-0.4c0.1,0,0.1-0.1,0.2-0.1
				c0.1-0.1,0.2-0.2,0.1-0.3s-0.2-0.2-0.3-0.1c-0.1,0-0.2,0.1-0.3,0.2c-0.4,0.3-0.6,0.6-0.9,0.9c0,0,0-0.1,0.1-0.1
				c0.6-1.1,1.2-2.1,1.9-3.1c0.7-1,1.4-2.1,2.6-3.4c0,0,0,0.1,0,0.1c0,0,0.1,0.1,0.1,0c0.8-0.6,1.5-1.1,2.3-1.6
				C9.7,8.7,9.3,9.1,8.9,9.6c-0.3,0.3-0.6,0.6-0.8,0.9C8,10.6,7.8,10.8,7.7,11c-0.2,0.2-0.3,0.4-0.5,0.7C7.1,11.7,7,11.9,6.9,12
				c0,0.1,0,0.1,0,0.2c0.1,0,0.1,0,0.2,0C7.6,11.4,8.3,10.6,9,10c0,0,0.1,0,0.1,0c0.5-0.3,1-0.7,1.6-1c0.4-0.3,0.9-0.5,1.4-0.8
				c0.9-0.5,1.8-0.9,2.8-1.3c0.4-0.1,0.8-0.3,1.2-0.4C16.1,6.7,16.1,6.9,16.2,7.1z M14.4,7.9c-0.3,0.1-0.7,0.3-1,0.5
				c-0.4,0.2-0.8,0.4-1.1,0.6c0,0-0.1,0-0.1,0c0,0,0,0.1-0.1,0.1c-0.5,0.3-0.9,0.6-1.4,0.8c-0.4,0.2-0.8,0.5-1.2,0.7
				c-0.3,0.2-0.6,0.3-0.9,0.5c-0.1,0-0.1,0.1,0,0.2s0.1,0.1,0.2,0c0.7-0.4,1.3-0.8,2-1.2c0.2-0.1,0.4-0.3,0.6-0.4
				c-1.1,1.2-2.2,2.4-3.4,3.6c0,0.1,0,0.1,0,0.2c0.1,0,0.1,0,0.2,0c1.3-1.4,2.6-2.8,3.9-4.2c1.2-0.7,2.5-1.3,3.8-1.7
				c0.1,0,0.2-0.2,0.1-0.3S16,7.3,15.9,7.3C15.4,7.5,14.9,7.7,14.4,7.9z M9.3,12.6c-0.1,0-0.1,0.1,0,0.2s0.1,0.1,0.2,0
				c0.6-0.4,1.1-0.8,1.7-1.1c0.8-0.5,1.6-0.8,2.4-1.2c1-0.4,2-0.9,2.9-1.3c0.1,0,0.1-0.2,0.1-0.2c0-0.1-0.2-0.1-0.2-0.1
				C13.9,9.9,11.4,11,9.3,12.6z M40.8,10.1c-3.3,1.2-6.4,2.5-9.4,4.3c0.2-0.3,0.5-0.5,0.7-0.8c1-0.6,2-1.1,2.9-1.6
				c0.9-0.5,1.8-0.9,2.7-1.4c0.2-0.1,0.4-0.2,0.6-0.3c0.8-0.2,1.6-0.2,2.4-0.2C40.8,10.1,40.8,10.1,40.8,10.1z M42.2,10.2
				c0.4,0.1,0.8,0.1,1.2,0.2c-1.6,0.4-3.3,1.1-4.8,1.8c-0.4,0.2-0.8,0.4-1.2,0.6c-1.1,0.6-2.1,1.2-3.1,1.9c-0.9,0.6-1.9,1.2-2.8,1.8
				c-0.1,0-0.1,0.2-0.1,0.2c0,0.1,0.2,0.1,0.2,0.1c0.4-0.3,0.8-0.5,1.2-0.8c0.4-0.2,0.8-0.5,1.2-0.8c0.3-0.2,0.6-0.4,1-0.6
				c-0.2,0.1-0.3,0.3-0.5,0.4c-0.3,0.3-0.6,0.6-0.8,0.9c-0.1,0.1-0.1,0.2-0.2,0.3c-0.1,0.2-0.3,0.4-0.4,0.5
				c-0.1,0.2-0.3,0.4-0.4,0.6c0,0.1-0.1,0.1-0.1,0.2c-0.9-0.4-1.9-0.9-2.8-1.3c0.1-0.2,0.2-0.3,0.4-0.5c0.1-0.1,0.1-0.2,0.2-0.4
				c0.2-0.3,0.4-0.5,0.6-0.8c0,0,0,0,0-0.1c0,0,0,0,0,0c1.2-0.7,2.4-1.3,3.6-1.9c1.3-0.6,2.7-1.1,4.1-1.6c0.6-0.2,1.2-0.4,1.7-0.6
				c0.3-0.1,0.5-0.2,0.8-0.3C41.8,10.2,42,10.2,42.2,10.2z M5.3,11.3c-0.3,0.4-0.6,0.9-0.9,1.4c-0.2,0.2-0.3,0.5-0.5,0.7
				c0.4-0.6,0.7-1.2,1.2-1.8c0.3-0.4,0.6-0.8,0.9-1.1C5.7,10.8,5.5,11.1,5.3,11.3z M17.1,10.6c0,0-0.1,0-0.1,0
				C17,10.6,17.1,10.6,17.1,10.6C17.1,10.6,17.1,10.6,17.1,10.6z M44.6,10.8L44.6,10.8l0.4,0.2c-1.6,0.6-3.2,1.3-4.8,2.1
				c-0.3,0-0.7,0-1,0c-0.4,0.1-0.8,0.1-1.1,0.3c0,0,0,0-0.1,0c-0.1,0-0.3,0-0.4,0.1c-0.5,0.1-1,0.3-1.5,0.5c0,0,0,0,0.1,0
				c2.4-1.3,4.8-2.5,7.4-3.2c0.1,0,0.2-0.1,0.1-0.2C44.3,10.7,44.5,10.8,44.6,10.8z M34.7,11.9c-0.7,0.4-1.4,0.8-2.1,1.2
				c0,0,0.1-0.1,0.1-0.1c0.1-0.1,0.2-0.2,0.3-0.3c0.5-0.4,1-0.7,1.5-1c0.3-0.2,0.5-0.3,0.8-0.4c0.5-0.2,0.9-0.4,1.4-0.6c0,0,0,0,0,0
				C36.1,11.1,35.4,11.5,34.7,11.9z M17.3,11.2c0,0.1,0.1,0.2,0.2,0.2c0,0.1,0.1,0.3,0.1,0.4c0,0,0,0,0,0c-0.6,0.2-1.2,0.5-1.7,0.8
				c-0.5,0.2-1,0.4-1.4,0.7c-0.2,0.1-0.4,0.2-0.5,0.3c-0.4,0.2-0.7,0.5-1.1,0.7c0.4-0.5,0.8-1.1,1.2-1.6c0.2-0.3,0.5-0.6,0.7-0.8
				c0,0,0.1-0.1,0.1-0.1c0,0,0.1-0.1,0-0.2c0.1,0,0.1-0.1,0.2-0.1c0.3-0.1,0.5-0.1,0.8-0.2c0.5-0.1,0.9-0.2,1.4-0.3c0,0,0,0,0,0
				C17.3,11.1,17.3,11.1,17.3,11.2z M45.4,11.3l0.3,0.2c0.4,0.2,0.7,0.5,1,0.7c0,0,0,0,0,0c-0.2,0.1-0.5,0.2-0.7,0.3
				c-0.9,0.4-1.7,0.9-2.6,1.3c-0.3-0.1-0.6-0.2-0.9-0.3c-0.3-0.1-0.7-0.2-1-0.3c-0.2-0.1-0.5-0.1-0.7-0.1c0.1,0,0.2-0.1,0.3-0.1
				c0.3-0.2,0.7-0.3,1-0.4C43.2,12.1,44.3,11.7,45.4,11.3L45.4,11.3z M11.5,12.9C11.5,12.9,11.6,12.8,11.5,12.9
				c0.4-0.2,0.7-0.4,1-0.5c0.1,0,0.1,0,0.2-0.1C12.3,12.5,11.9,12.7,11.5,12.9z M48.2,13.4c-0.8,0.4-1.5,0.8-2.3,1.2
				c-0.1,0.1-0.2,0.1-0.4,0.2c0,0-0.1,0-0.1-0.1c-0.4-0.3-0.9-0.5-1.4-0.7c0.7-0.3,1.4-0.7,2.1-1c0.3-0.2,0.7-0.3,1-0.5
				c0,0,0,0,0.1,0C47.5,12.8,47.8,13.1,48.2,13.4z M20.6,13.6c-0.1,0-0.1,0-0.2,0.1c-0.7-0.3-1.4-0.5-2-0.8c0,0,0,0,0,0
				c0,0,0.1-0.1,0.1-0.1C19.2,13.1,19.9,13.3,20.6,13.6z M18.2,13.1c0.6,0.2,1.3,0.5,1.9,0.7c-0.4,0.1-0.7,0.3-1.1,0.4
				c-0.2,0.1-0.3,0.1-0.5,0.2c-0.3,0.1-0.5,0.3-0.8,0.4c-0.6,0.3-1.1,0.6-1.6,1c-0.7,0.4-1.4,0.9-2,1.3c-0.1,0-0.1,0.1,0,0.2
				s0.1,0.1,0.2,0c0.3-0.2,0.6-0.4,0.9-0.6c0.5-0.3,1-0.6,1.5-0.9c0.2-0.1,0.5-0.3,0.7-0.4c0,0.1-0.1,0.2-0.1,0.2
				c-0.1,0.1-0.1,0.1-0.2,0.1c0,0-0.1,0-0.1,0.1c-0.1,0-0.2,0.3-0.2,0.4c-0.1,0.1-0.1,0.2-0.1,0.3c-0.1,0.2-0.3,0.4-0.5,0.7
				c-0.4,0.6-1,1-1.4,1.6c-0.4,0.4-0.7,0.9-1,1.5c0,0,0,0.1,0,0.1c0,0,0.1,0,0.1,0c0.1-0.1,0.1-0.3,0.2-0.4c0.1-0.1,0.1-0.2,0.2-0.3
				c0.1-0.1,0.1-0.1,0.1-0.2c0.1-0.2,0.3-0.4,0.4-0.5c0.1-0.1,0.3-0.3,0.4-0.4c0,0,0,0,0,0c0.1,0.1,0.2,0.1,0.3,0
				c0.6-0.5,1.3-0.9,2-1.2c0,0,0,0.1-0.1,0.1c-0.1,0.2-0.3,0.4-0.4,0.6c-0.2,0.3-0.5,0.7-0.7,1c-0.3,0.4-0.5,0.8-0.8,1.3
				c0,0,0,0.1,0,0.1c0,0,0.1,0,0.1,0c0.4-0.7,0.8-1.4,1.3-2.1c0.2-0.3,0.4-0.5,0.6-0.8c0.1-0.1,0.2-0.2,0.3-0.4
				c0.4-0.2,0.8-0.4,1.2-0.6c0.6-0.3,1.2-0.5,1.9-0.8c0.7-0.3,1.4-0.5,2.1-0.8c0.8,0.3,1.7,0.7,2.5,1c-0.1,0-0.2,0-0.3,0
				c-0.3,0-0.6,0-0.8,0c-0.5,0.1-1,0.2-1.5,0.4c-1.1,0.4-2.2,1-3.2,1.6c-0.2,0.1-0.3,0.2-0.5,0.3c0.2-0.3,0.3-0.5,0.5-0.7
				c0,0,0-0.1,0-0.1s-0.1,0-0.1,0c-0.2,0.2-0.3,0.5-0.5,0.7c-0.1,0.1-0.2,0.3-0.2,0.4c-0.3,0.2-0.6,0.4-0.9,0.5
				c-0.2,0.1-0.3,0.2-0.5,0.3c-0.2,0.1-0.3,0.2-0.5,0.3c-0.1,0-0.1,0.1-0.1,0.2c0,0.1,0.1,0.1,0.2,0.1c0.4-0.2,0.8-0.4,1.1-0.6
				c0.1-0.1,0.2-0.1,0.3-0.2c0,0,0,0,0,0c-0.2,0.4-0.4,0.7-0.7,1.1c-0.1,0.1-0.2,0.3-0.3,0.4c-0.2,0.2-0.5,0.5-0.7,0.6
				c-0.1,0.1-0.2,0.1-0.3,0.2c0,0-0.1,0.1,0,0.1c0,0.1,0.1,0.1,0.1,0c0.1,0,0.2-0.1,0.3-0.1c0.3-0.1,0.6-0.4,0.8-0.6
				c0.5-0.6,0.9-1.3,1.3-1.9c0.3-0.2,0.6-0.3,0.9-0.5c0.3-0.2,0.6-0.4,0.9-0.5c0.3-0.2,0.6-0.3,0.9-0.5c0.1-0.1,0.3-0.1,0.5-0.2
				c0.5-0.3,1.1-0.5,1.7-0.6c0.2-0.1,0.4-0.1,0.6-0.2c0.2-0.1,0.4-0.1,0.7-0.2c0.1,0,0.3-0.1,0.4-0.1c0.3,0.1,0.6,0.3,1,0.4
				c0.2,0.1,0.3,0.1,0.5,0.2c-0.5,0.2-1.1,0.5-1.6,0.7c-0.7,0.3-1.5,0.6-2.2,1c0,0,0,0,0,0l0,0c-1.7,0.7-2.2,1-2.6,1.2
				c-0.2,0.1-0.4,0.2-0.6,0.3c0.7-0.9,1.4-1.8,2.4-2.4c0.1,0,0.1-0.1,0-0.2c0-0.1-0.1-0.1-0.2,0c-1,0.6-1.8,1.5-2.5,2.5
				c-0.1,0.1-0.2,0.3-0.3,0.4c-0.6,0.3-1.1,0.6-1.6,1c-0.1,0-0.1,0.1,0,0.2c0,0.1,0.1,0.1,0.2,0c0.4-0.2,0.7-0.4,1.1-0.7
				c-0.1,0.1-0.2,0.2-0.2,0.3c-0.1,0.2-0.3,0.3-0.4,0.5c-0.1,0.1-0.1,0.2-0.2,0.2c0,0,0,0.1,0,0.2s0.1,0,0.2,0
				c0.2-0.2,0.3-0.4,0.5-0.6c0.2-0.3,0.4-0.6,0.7-0.9c0.6-0.3,1.2-0.6,1.8-0.9c0.5-0.2,1-0.5,1.5-0.7c-0.5,0.7-0.9,1.4-1.4,2.1
				c-0.2,0.3-0.4,0.6-0.7,0.9c-0.2,0.1-0.4,0.2-0.6,0.4c-0.1,0-0.1,0.1,0,0.2c0,0.1,0.1,0.1,0.2,0c0,0,0,0,0.1,0c0,0,0,0,0,0
				c-0.1,0.1-0.2,0.1-0.2,0.2c-0.1,0.1-0.2,0.2-0.3,0.2c-0.2,0.2-0.4,0.3-0.7,0.4c-0.1,0-0.1,0.1,0,0.2c0,0.1,0.1,0.1,0.2,0
				c0.1-0.1,0.3-0.1,0.4-0.2c0.1-0.1,0.2-0.1,0.3-0.2c0.3-0.2,0.7-0.6,0.9-0.8c0-0.1,0.1-0.1,0.1-0.2c0.5-0.3,1-0.5,1.6-0.8
				c0.2-0.1,0.4-0.2,0.6-0.3c-0.2,0.3-0.5,0.5-0.7,0.8c-0.5,0.7-1.1,1.4-1.6,2.1c-0.1,0.2-0.2,0.3-0.4,0.5c-0.1,0.1-0.2,0.2-0.2,0.3
				c0,0,0,0.1,0,0.1c0,0,0.1,0,0.1,0c0,0,0.1-0.1,0.1-0.2c0.1-0.1,0.2-0.3,0.3-0.4c0.3-0.4,0.6-0.8,0.9-1.3c0.6-0.8,1.2-1.6,1.9-2.2
				c0.8-0.4,1.6-0.7,2.4-1.1c0.7-0.3,1.4-0.6,2.1-0.8c0.6-0.2,1.2-0.4,1.8-0.6c0,0,0.1,0,0.1,0c0.7,0.3,1.5,0.7,2.2,1
				c-0.3,0.1-0.6,0.2-0.9,0.3c-1.3,0.5-2.6,1.1-3.9,1.7c-0.8,0.4-1.6,0.8-2.4,1.1c0.4-0.4,0.9-0.8,1.4-1.1c0.1,0,0.1-0.1,0-0.2
				c0-0.1-0.1-0.1-0.2,0c-0.7,0.4-1.3,1-1.9,1.6c-0.4,0.2-0.8,0.4-1.2,0.6c-0.1,0-0.1,0.1-0.1,0.2c0,0.1,0.1,0.1,0.2,0.1
				c0.2-0.1,0.5-0.2,0.7-0.3c-0.1,0.2-0.3,0.4-0.4,0.5c-0.6,0.7-1.1,1.5-1.5,2.3c-0.1,0.2-0.3,0.4-0.4,0.6c0,0,0,0.1,0,0.1
				c0,0,0.1,0,0.1,0c0.2-0.3,0.3-0.6,0.5-0.9c0.3-0.5,0.7-1.1,1.1-1.6c0.4-0.5,0.7-0.9,1.1-1.4c0.5-0.3,1.1-0.5,1.6-0.8
				c0.7-0.3,1.3-0.6,2-0.9c0.5-0.2,1-0.4,1.4-0.6c0.2-0.1,0.3-0.1,0.5-0.2c0.2-0.1,0.5-0.2,0.7-0.3c0.5-0.2,1-0.4,1.5-0.5
				c0,0-0.1,0.1-0.1,0.1c0,0,0,0.1,0,0.1c0,0,0.1,0,0.1,0c0.1-0.1,0.1-0.2,0.2-0.3c0,0,0.1,0,0.1,0c0,0,0,0,0.1,0
				c0,0.1,0.2,0.2,0.3,0.2c0,0,0.1,0,0.1,0c0.4,0.2,0.8,0.4,1.2,0.5c-0.6,0.2-1.2,0.5-1.7,0.7c-1,0.4-2,0.8-3,1.2
				c-1,0.5-2.1,1-3.1,1.5c0,0,0,0,0,0c0.4-0.4,0.7-0.7,1-1.1c0-0.1,0-0.2,0-0.2c-0.1,0-0.2,0-0.2,0c-0.1,0.1-0.2,0.2-0.3,0.3
				c-0.2,0.3-0.5,0.6-0.7,0.8c-0.2,0.2-0.5,0.5-0.7,0.7c-0.4,0.2-0.8,0.5-1.2,0.7c0,0,0,0,0,0.1c0,0,0,0,0.1,0
				c0.3-0.2,0.5-0.3,0.8-0.5c-0.7,0.8-1.4,1.6-1.8,2.6c0,0.1,0,0.1,0.1,0.2c0.1,0,0.1,0,0.2-0.1c0.2-0.5,0.4-0.9,0.8-1.3
				c0.5-0.6,1.1-1.2,1.6-1.7c1.3-0.8,2.7-1.4,4.2-2c1.5-0.6,3-1.1,4.6-1.6c0.9,0.4,1.8,0.8,2.7,1.2c-0.4,0-0.7,0.1-1.1,0.2
				c-2.9,0.6-5.7,2-8.3,3.6c0.6-0.7,1.1-1.4,1.7-2c0.1-0.1,0-0.2,0-0.2s-0.2,0-0.2,0c-0.2,0.2-0.4,0.5-0.6,0.7
				c-0.6,0.7-1.1,1.4-1.6,2c-0.2,0.1-0.4,0.2-0.6,0.4c-0.1,0-0.1,0.1,0,0.2c0,0,0.1,0.1,0.1,0.1c-0.4,0.5-0.8,0.9-1.1,1.4
				c-0.2,0.2-0.4,0.5-0.7,0.7c-0.2,0.3-0.5,0.5-0.8,0.8c0,0,0,0.1,0,0.2c0,0,0.1,0,0.2,0c0.2-0.3,0.5-0.5,0.7-0.8
				c0.5-0.5,0.9-1,1.3-1.5c0.3-0.4,0.6-0.8,1-1.2c0.5-0.4,1.1-0.7,1.7-1c0.5-0.3,1-0.5,1.4-0.8c0.2-0.1,0.3-0.2,0.5-0.2
				c0.3-0.2,0.7-0.3,1-0.5c0.4-0.2,0.9-0.4,1.3-0.5c1.3-0.5,2.6-0.8,4-1.1c0.2,0,0.3-0.1,0.5-0.1c0.5,0.2,1.1,0.5,1.6,0.7
				c-0.2,0.1-0.5,0.2-0.7,0.3c-0.3,0.1-0.7,0.3-1,0.4c-0.6,0.3-1.3,0.5-1.9,0.8c-0.7,0.3-1.4,0.6-2.2,1c0,0,0,0,0.1-0.1
				c0.2-0.2,0.4-0.5,0.7-0.7c0.1-0.1,0.1-0.2,0-0.2c-0.1-0.1-0.2-0.1-0.2,0c-0.2,0.2-0.5,0.5-0.7,0.7c-0.2,0.2-0.4,0.4-0.6,0.6
				c-1.2,0.6-2.5,1.2-3.7,1.8c-0.2,0.1-0.3,0.2-0.5,0.2c0.2-0.2,0.3-0.4,0.5-0.6c0.3-0.3,0.6-0.7,0.9-1c0.3-0.3,0.7-0.7,1-1
				c0.1-0.1,0.1-0.2,0-0.2c-0.1-0.1-0.2-0.1-0.2,0c-0.2,0.1-0.3,0.3-0.5,0.5c-0.4,0.4-0.8,0.9-1.2,1.3c-0.4,0.4-0.7,0.9-1,1.3
				c-0.5,0.3-1,0.5-1.5,0.8c0,0-0.1,0.1,0,0.1c0,0,0.1,0.1,0.1,0c0.4-0.2,0.8-0.4,1.2-0.6c-0.5,0.7-1,1.5-1.4,2.3
				c0,0.1,0,0.1,0.1,0.2c0.1,0,0.1,0,0.2-0.1c0.4-0.8,0.9-1.5,1.4-2.3c0.1-0.1,0.2-0.3,0.3-0.4c0,0,0.1,0,0.1-0.1
				c0.9-0.4,1.7-0.8,2.6-1.3c0.4-0.2,0.8-0.4,1.2-0.5c-0.3,0.3-0.6,0.6-0.9,0.9c-1,1.1-2,2.2-2.7,3.6c0,0.1,0,0.1,0.1,0.2
				s0.1,0,0.2-0.1c0.4-0.8,1-1.6,1.6-2.3c0.3-0.4,0.6-0.7,1-1.1c0.2-0.2,0.4-0.5,0.7-0.7c0.3-0.3,0.6-0.6,1-0.9
				c0.1-0.1,0.2-0.1,0.4-0.2c0.7-0.3,1.5-0.6,2.3-0.9c0.4-0.1,0.7-0.3,1.1-0.4c0.5-0.2,1.1-0.4,1.6-0.6c0.5-0.2,1.1-0.4,1.6-0.5
				c0.6,0.3,1.3,0.6,1.9,0.9c-0.7,0.2-1.3,0.4-2,0.7c-0.6,0.2-1.2,0.4-1.7,0.6c-0.6,0.2-1.1,0.4-1.7,0.7c-0.2-0.2-0.5-0.6-0.7-0.6
				c-0.1,0-0.2,0.1-0.3,0.2c-0.1,0.1-0.2,0.1-0.2,0.2c-0.4,0.4-0.8,0.8-1.2,1.2c-0.1,0.1-0.1,0.1-0.2,0.2c-0.5,0.2-1,0.5-1.5,0.8
				c-0.9,0.5-1.8,0.9-2.6,1.4c-0.1,0-0.1,0.1-0.1,0.2c0,0.1,0.1,0.1,0.2,0.1c1.1-0.6,2.2-1.2,3.4-1.8c-0.3,0.3-0.6,0.6-0.9,1
				c-0.5,0.5-1,1.1-1.5,1.7c-0.7,0.8-1.3,1.6-1.9,2.4c-0.1,0.1,0,0.2,0,0.2s0.2,0,0.2,0c1.2-1.6,2.5-3.2,3.9-4.6
				c0.4-0.4,0.8-0.8,1.2-1.2c1.2-0.6,2.5-1.1,3.7-1.5c1.1-0.4,2.2-0.8,3.3-1.1c0.3-0.1,0.6-0.2,0.9-0.3c0.1,0,0.1-0.1,0.2-0.2
				c0.6,0.3,1.1,0.6,1.7,0.9c-0.1,0-0.1,0-0.2,0c-0.5,0.1-1,0.3-1.4,0.4c-0.7,0.2-1.4,0.5-2.1,0.7c-0.8,0.3-1.6,0.7-2.4,1
				c-0.2,0.1-0.4,0.2-0.5,0.3c0,0,0,0,0,0c0.1-0.1,0.1-0.2,0-0.3s-0.2-0.1-0.3,0c-0.2,0.2-0.4,0.4-0.6,0.7c-0.2,0.1-0.5,0.2-0.7,0.4
				c-1.6,0.8-3.1,1.7-4.5,2.6c-0.1,0.1-0.1,0.2-0.1,0.3s0.2,0.1,0.3,0.1c1.4-0.9,2.8-1.7,4.3-2.5c-0.8,0.9-1.6,1.9-2.4,2.9
				c-0.8,1-1.5,2-2.2,3c-0.1,0.1,0,0.2,0,0.2c0.1,0.1,0.2,0,0.2,0c0.5-0.8,1.1-1.6,1.6-2.3c0.2-0.2,0.3-0.4,0.5-0.6
				c0.5-0.6,0.9-1.2,1.4-1.8c0.2-0.2,0.4-0.5,0.6-0.7c0.3-0.4,0.7-0.7,1-1.1c0.2-0.1,0.4-0.2,0.6-0.3c1-0.5,2-0.9,3-1.3
				c0.9-0.4,1.9-0.7,2.8-0.9c0.4-0.1,0.7-0.2,1.1-0.3c0.2,0,0.3-0.1,0.5-0.2c0.6,0.3,1.2,0.6,1.9,1c0,0,0,0,0,0
				c-0.6,0.2-1.3,0.5-1.9,0.7c-0.7,0.3-1.4,0.6-2.2,1c-0.3,0.1-0.6,0.3-1,0.4c0.1,0,0.1-0.1,0.2-0.1c0.1-0.1,0.1-0.2,0.1-0.3
				c-0.1-0.1-0.2-0.1-0.3-0.1c-0.6,0.3-1.1,0.7-1.7,1.1c-0.2,0.1-0.4,0.3-0.5,0.5c-0.2,0.1-0.4,0.2-0.7,0.3c-0.9,0.5-1.8,1-2.7,1.5
				c0.8-0.9,1.7-1.8,2.6-2.8c0.1-0.1,0.1-0.2,0-0.3c-0.1-0.1-0.2-0.1-0.3,0c-0.2,0.3-0.5,0.5-0.7,0.8c-0.5,0.5-0.9,1-1.4,1.5
				c-0.4,0.4-0.7,0.8-1.1,1.2c-0.3,0.2-0.6,0.3-0.9,0.5c0,0-0.1,0.1,0,0.1s0.1,0.1,0.1,0c0.1-0.1,0.3-0.2,0.4-0.2
				c-0.6,0.7-1.1,1.4-1.5,2.1c0,0.1,0,0.2,0,0.2c0.1,0,0.2,0,0.2,0c0.6-1,1.3-1.9,2.1-2.8c0.9-0.5,1.8-1,2.7-1.4
				c0.2-0.1,0.4-0.2,0.5-0.3c-0.7,0.8-1.3,1.6-1.9,2.5c-0.3,0.4-0.6,0.9-0.9,1.3c-0.3,0.4-0.5,0.8-0.8,1.2c-0.3,0.4-0.5,0.7-0.8,1.1
				c-0.1,0.1,0,0.2,0,0.2c0.1,0.1,0.2,0,0.2,0c0.3-0.4,0.5-0.7,0.8-1.1c0.1-0.1,0.2-0.3,0.3-0.5c0.2-0.3,0.4-0.5,0.5-0.8
				c0.1,0.1,0.2,0.1,0.2,0c0.7-0.5,1.3-1,2-1.4c1-0.7,1.9-1.3,3-1.9c-1.3,1.3-2.5,2.8-3.4,4.3c0,0,0,0.1-0.1,0.1
				c-0.2,0.1-0.4,0.3-0.6,0.4c-0.1,0-0.1,0.1,0,0.2s0.1,0.1,0.2,0c0.1,0,0.1-0.1,0.2-0.1c-0.3,0.5-0.6,1-0.9,1.4
				c-0.3,0.4-0.5,0.8-0.8,1.2c0,0.1,0,0.1,0,0.2c0.1,0,0.1,0,0.2,0c0.6-1,1.3-2,1.9-3c0,0,0.1-0.1,0.1-0.1c1.2-0.7,2.5-1.4,3.7-2
				c0,0,0,0,0,0c-0.2,0.2-0.4,0.4-0.6,0.7c-0.5,0.5-0.9,1.1-1.3,1.7c-0.3,0.4-0.6,0.9-0.9,1.3c0,0-0.1,0.1-0.1,0.1c0,0,0,0.1,0,0.1
				c0,0,0,0,0,0c0,0.1-0.1,0.1-0.1,0.2c-0.4,0.6-0.7,1.2-1,1.9c-0.1,0.2-0.2,0.5-0.3,0.7c0,0.1,0,0.1,0.1,0.1s0.1,0,0.1-0.1
				c0.2-0.5,0.4-0.9,0.6-1.4c0.1-0.2,0.2-0.4,0.3-0.6c0.2-0.3,0.4-0.6,0.6-1c0-0.1,0.1-0.1,0.1-0.2c0.8-0.4,1.5-0.9,2.3-1.3
				c0.9-0.5,1.8-0.9,2.7-1.4c-0.5,0.5-0.9,1-1.3,1.5c-0.6,0.8-1.1,1.6-1.7,2.4c-0.4,0.5-0.8,1.1-1.1,1.6c-0.3,0.4-0.6,0.7-0.9,1.1
				c-0.1,0.1-0.1,0.3,0,0.3c0.1,0.1,0.3,0.1,0.3,0c0.3-0.4,0.6-0.7,0.8-1.1c0.3-0.4,0.6-0.9,0.9-1.3c1.3-1.9,2.6-3.7,4.3-5.2
				c1.3-0.6,2.5-1.1,3.8-1.6c1.1-0.4,2.3-0.8,3.4-1.2c0.3-0.1,0.6-0.2,0.9-0.3c0.2-0.1,0.4-0.1,0.6-0.2c0,0,0.1,0,0.1,0
				c1.4,0.6,2.9,1.3,4.3,1.8c-0.5,0.1-1.1,0.3-1.6,0.5c-1.1,0.4-2.1,0.8-3.2,1.2c-0.4,0.2-0.9,0.4-1.3,0.6c-0.1-0.1-0.2-0.1-0.3,0
				c-0.2,0.1-0.4,0.2-0.6,0.3c-0.4,0.2-0.8,0.5-1.1,0.7c0,0-0.1,0-0.1,0.1c-0.4,0.2-0.9,0.4-1.3,0.6c-0.4,0.2-0.9,0.5-1.3,0.7
				c-1.4,0.8-2.8,1.6-4.1,2.5c0.9-1.1,1.7-2.1,2.7-3.1c0.2-0.2,0.4-0.4,0.6-0.6c0.9-0.5,1.7-0.9,2.6-1.3c0.5-0.2,1-0.5,1.4-0.7
				c0.2-0.1,0.4-0.2,0.6-0.3c0.3-0.1,0.6-0.3,0.9-0.4c0.7-0.3,1.5-0.5,2.3-0.7c0.5-0.1,1-0.3,1.4-0.4c0.1,0,0.2-0.2,0.2-0.3
				c0-0.1-0.2-0.2-0.3-0.2c-0.3,0.1-0.6,0.2-0.9,0.2c-0.2,0.1-0.4,0.1-0.6,0.2c-0.8,0.2-1.5,0.5-2.3,0.8c-1.5,0.6-3,1.3-4.4,2.1
				c0.3-0.2,0.5-0.4,0.8-0.5c0.1-0.1,0.2-0.3,0.1-0.4c-0.1-0.1-0.3-0.2-0.4-0.1c-0.4,0.3-0.8,0.6-1.2,0.9c-0.1,0.1-0.3,0.2-0.4,0.4
				c-0.3,0.2-0.5,0.5-0.8,0.7c-0.1,0-0.1,0.1-0.1,0.1c0,0-0.1,0.1-0.1,0.1c-0.6,0.4-1.3,0.7-1.9,1.1c-0.6,0.3-1.2,0.6-1.8,1
				c0,0-0.1,0.1,0,0.1s0.1,0.1,0.1,0c0.6-0.3,1.2-0.7,1.8-1c0.5-0.3,0.9-0.5,1.4-0.8c-0.3,0.3-0.5,0.6-0.8,0.9
				c-1.3,1.5-2.5,3.2-3.6,4.8c-0.1,0.1,0,0.2,0,0.3c0.1,0.1,0.2,0,0.3,0c0.7-1,1.4-1.9,2.1-2.9c0,0,0.1,0,0.1,0
				c0.9-0.5,1.8-1.1,2.8-1.6c0.4-0.2,0.8-0.4,1.1-0.6c0.2-0.1,0.5-0.2,0.7-0.4c0.3-0.2,0.6-0.3,0.9-0.5c-1.2,1.1-2.2,2.3-3.3,3.5
				c-0.2,0.2-0.4,0.5-0.6,0.7c-0.2,0.1-0.4,0.3-0.5,0.4c0,0,0,0.1,0,0.1c0,0,0.1,0,0.1,0c0,0,0,0,0,0c-0.3,0.4-0.6,0.7-1,1.1
				c-0.2,0.3-0.5,0.5-0.7,0.8c-0.2,0.2-0.4,0.4-0.6,0.6c-0.1,0.1-0.1,0.3,0,0.4c0.1,0.1,0.3,0.1,0.4,0c0.2-0.2,0.4-0.4,0.6-0.7
				c0.4-0.5,0.8-0.9,1.2-1.4c0.6-0.7,1.2-1.4,1.9-2.2c0.4-0.3,0.8-0.5,1.2-0.8c0.5-0.3,1-0.6,1.5-0.9c0.3-0.2,0.6-0.3,0.9-0.5
				c0.4-0.2,0.8-0.4,1.2-0.6c0.6-0.3,1.1-0.5,1.7-0.8c0.5-0.2,1-0.4,1.5-0.6c0.7-0.3,1.4-0.6,2.2-0.9c1.1-0.4,2.3-0.8,3.4-1.3
				c0.4-0.1,0.8-0.3,1.1-0.4c0,0,0,0,0,0c0.3,0.1,0.7,0.3,1,0.4c-1.2,0.4-2.3,0.9-3.5,1.4c-0.8,0.4-1.7,0.8-2.5,1.2
				c-2.2,1-4.3,2.2-6.4,3.4c0.1-0.1,0.1-0.1,0.2-0.2c0.6-0.5,1.3-1,1.9-1.4c0.1-0.1,0.1-0.2,0.1-0.4C53.1,37,53,37,52.8,37.1
				C51.7,38,50.6,39,49.6,40c-1.1,0.7-2.1,1.3-3.2,2.1c-0.1,0-0.1,0.1,0,0.2s0.1,0.1,0.2,0c0.4-0.3,0.8-0.5,1.2-0.8
				c0.4-0.2,0.8-0.5,1.1-0.7c-0.3,0.3-0.5,0.6-0.8,0.9c-0.7,0.8-1.4,1.6-2.1,2.4c-0.3,0.3-0.6,0.7-0.9,1c0,0,0,0.1,0,0.1
				c0,0,0.1,0,0.1,0c1.4-1.6,2.8-3.2,4.4-4.7c0.1-0.1,0.3-0.3,0.4-0.4c2.3-1.4,4.7-2.6,7.2-3.7c0.8-0.4,1.6-0.7,2.4-1.1
				c0.8-0.3,1.5-0.6,2.3-0.9c0.6-0.3,1.3-0.5,2-0.8c0.1,0,0.1-0.1,0.2-0.1c0.6,0.3,1.2,0.5,1.8,0.8c-0.3,0.2-0.6,0.3-0.9,0.5
				c-1,0.6-2,1.3-2.9,2c-0.1,0-0.2,0.1-0.3,0.1c-0.9,0.4-1.9,0.7-2.8,1.1c-0.9,0.4-1.9,0.8-2.8,1.2c-0.6,0.3-1.2,0.5-1.7,0.8
				c-1,0.5-1.9,1-2.8,1.5c-1.6,0.9-3.1,1.9-4.6,2.9c-0.1,0-0.1,0.1,0,0.2c0,0.1,0.1,0.1,0.2,0c1-0.7,2.1-1.4,3.2-2
				c0.7-0.4,1.5-0.8,2.3-1.2c1.1-0.5,2.2-1.1,3.3-1.6c0.4-0.2,0.8-0.3,1.1-0.5c-0.6,0.4-1.3,0.8-1.9,1.2c-0.5,0.4-1.1,0.8-1.6,1.1
				c-0.7,0.5-1.3,1-2,1.5c-0.9,0.8-1.8,1.6-2.6,2.5c-0.2,0.3-0.4,0.5-0.6,0.8c-0.1,0.1-0.1,0.3,0.1,0.4c0.1,0.1,0.3,0.1,0.4-0.1
				c0.3-0.5,0.7-0.9,1.1-1.3c0.1,0.1,0.2,0.1,0.3,0.1c2.2-1.6,4.5-2.9,7-4.1c-0.5,0.5-0.9,1-1.4,1.5c0-0.1-0.1-0.1-0.2-0.1
				c-0.2-0.1-0.4,0-0.5,0.2c-0.1,0.2-0.1,0.4-0.2,0.5l-0.6,0.5l0.3-0.3l0,0c-0.1,0.1-0.3,0.3-0.4,0.4c0,0-0.1,0.1-0.1,0.1l0,0l0,0
				l0,0c0,0,0.1,0,0.1,0c0.1,0,0.2-0.1,0.2-0.2c0.2-0.1,0.4-0.3,0.6-0.4c0,0.1,0,0.1-0.1,0.2c0,0,0,0.1,0,0.1
				c-0.2,0.2-0.4,0.5-0.6,0.7c-0.3,0.4-0.6,0.7-0.9,1.1c-0.1,0-0.2,0.1-0.2,0.2c0,0,0,0,0,0.1c-0.6,0.8-1.3,1.6-1.9,2.4
				c-0.2,0.2-0.4,0.5-0.6,0.7c-0.1,0.1-0.2,0.3-0.3,0.4c0-0.1-0.1-0.1-0.2-0.1c-0.2,0-0.3,0.1-0.4,0.2c-0.1,0.4-0.2,0.7-0.3,1.1
				c-0.2,0.2-0.3,0.5-0.5,0.7c-0.1,0.2-0.2,0.3-0.3,0.5c-0.1,0-0.3,0.1-0.3,0.2c0,0.1,0,0.2,0,0.2c-0.6,0.9-1.2,1.7-1.8,2.6
				c-0.3,0.5-0.7,1-1,1.5c0,0,0,0,0,0c0-0.1,0.1-0.2,0.1-0.3c0-0.1,0-0.2-0.2-0.3c-0.1,0-0.2,0-0.3,0.2c-0.2,0.5-0.3,1-0.4,1.4
				c-0.4,0.6-0.9,1.3-1.3,1.9c0,0.1,0,0.2,0,0.2c-0.5,0.8-0.8,1.3-1.1,1.8c-0.2,0.4-0.5,0.8-0.7,1.2c0,0.1-0.1,0.1-0.1,0.2
				c-0.1,0.2-0.3,0.4-0.4,0.7c-0.3,0.6-0.7,1.2-1,1.8c-0.1,0.2-0.2,0.4-0.3,0.5c-1-1.6-1.9-3.1-2.9-4.7c0.3-0.3,0.6-0.5,0.8-0.7
				c0.4-0.4,0.8-0.7,1.3-1.1c0.4-0.4,0.9-0.7,1.4-1.1c0.1-0.1,0.1-0.2,0-0.3c-0.1-0.1-0.2-0.1-0.3,0c-0.8,0.5-1.6,1.2-2.3,1.8
				c-0.4,0.4-0.8,0.7-1.2,1.1c-0.3-0.6-0.7-1.1-1-1.7c1.2-1,2.5-2.1,3.9-2.7c0.1,0,0.1-0.1,0.1-0.2c0-0.1-0.1-0.1-0.2-0.1
				c-0.1,0-0.2,0.1-0.3,0.1c-0.3,0.1-0.5,0.3-0.8,0.4c-1,0.6-2,1.4-2.9,2.2c-0.4-0.6-0.7-1.2-1.1-1.8c0.2-0.1,0.4-0.3,0.6-0.4
				c0.3-0.2,0.7-0.5,1.1-0.7c0.1-0.1,0.3-0.2,0.4-0.3c0.4-0.3,0.9-0.6,1.4-0.8c0.1,0,0.1-0.2,0.1-0.3s-0.2-0.1-0.3-0.1
				c-0.6,0.3-1.1,0.6-1.6,1c-0.5,0.4-1,0.8-1.6,1.1c-0.1,0-0.1,0.1-0.2,0.1c-0.4-0.6-0.8-1.2-1.1-1.9c0-0.1-0.1-0.1-0.1-0.2
				c0.1-0.1,0.2-0.2,0.4-0.3c0.2-0.1,0.3-0.3,0.5-0.4c0.7-0.5,1.6-1.1,2.5-1.3c0.1,0,0.2-0.1,0.1-0.2c0-0.1-0.1-0.2-0.2-0.1
				c-1.2,0.2-2.1,1-3,1.7c-0.1,0.1-0.3,0.2-0.4,0.3c-0.5-0.7-0.9-1.5-1.4-2.2c0.3-0.3,0.6-0.5,0.9-0.8c0.6-0.5,1.2-1,1.9-1.4
				c0.1-0.1,0.1-0.2,0.1-0.3c-0.1-0.1-0.2-0.1-0.3-0.1c-0.3,0.1-0.5,0.3-0.8,0.5c-0.5,0.4-1,0.7-1.4,1.1c-0.2,0.2-0.4,0.4-0.6,0.5
				c-0.4-0.7-0.9-1.4-1.3-2.1c0.3-0.2,0.6-0.4,0.9-0.6c0.3-0.2,0.7-0.4,1-0.7c0.1-0.1,0.2-0.2,0.4-0.3c0.1-0.1,0.1-0.2,0-0.2
				c-0.1-0.1-0.2-0.1-0.2,0c-0.1,0.1-0.2,0.2-0.4,0.3c-0.2,0.1-0.4,0.2-0.5,0.4c-0.4,0.3-0.9,0.5-1.2,0.8c0,0-0.1,0.1-0.1,0.1
				c-0.3-0.5-0.6-1-0.9-1.5c0.2-0.2,0.5-0.4,0.7-0.6c0.3-0.2,0.7-0.4,1-0.7c0.2-0.2,0.5-0.3,0.7-0.5c0.1-0.1,0.2-0.1,0.2-0.2
				c0.1-0.1,0.1-0.2,0-0.3s-0.2-0.1-0.3,0c-0.1,0.1-0.3,0.2-0.4,0.3c-0.2,0.2-0.5,0.4-0.7,0.5c-0.4,0.2-0.7,0.5-1,0.7
				c-0.1,0.1-0.3,0.2-0.4,0.3c0,0,0,0-0.1,0.1c-0.4-0.6-0.7-1.2-1.1-1.8c0.1-0.1,0.2-0.2,0.3-0.3c0.5-0.5,1-0.9,1.6-1.3
				c0.2-0.1,0.4-0.3,0.6-0.5c0.1-0.1,0.1-0.2,0-0.2c-0.1-0.1-0.2-0.1-0.2,0c-0.1,0.1-0.2,0.2-0.3,0.3c-0.1,0.1-0.3,0.2-0.4,0.3
				c-0.4,0.3-0.8,0.7-1.2,1c-0.2,0.2-0.3,0.3-0.5,0.5c-0.3-0.5-0.6-1-1-1.5c0.2-0.2,0.4-0.4,0.6-0.6c0.4-0.3,0.7-0.7,1.2-0.8
				c0.1,0,0.2-0.1,0.1-0.2c0-0.1-0.1-0.2-0.2-0.1c-0.4,0.1-0.8,0.4-1,0.6c-0.2,0.2-0.5,0.4-0.7,0.7c0,0-0.1,0.1-0.1,0.1
				c-0.4-0.7-0.9-1.4-1.3-2.1c0.6-0.7,1.4-1.2,2.2-1.6c0.1,0,0.1-0.1,0.1-0.2c0-0.1-0.1-0.1-0.2-0.1c-0.9,0.4-1.6,0.9-2.2,1.6
				c-0.3-0.5-0.6-0.9-0.9-1.4c0.4-0.4,0.8-0.8,1.3-1c0.1-0.1,0.2-0.1,0.3-0.1c0.1,0,0.1-0.1,0.1-0.2c0-0.1-0.1-0.1-0.2-0.1
				c-0.6,0.1-1.2,0.7-1.7,1.2c-0.3-0.5-0.7-1.1-1-1.6c0.2-0.1,0.5-0.3,0.7-0.4c0.2-0.1,0.4-0.2,0.5-0.3c0.1-0.1,0.2-0.2,0.4-0.2
				c0.1,0,0.1-0.1,0-0.2s-0.1-0.1-0.2,0c-0.1,0.1-0.2,0.2-0.4,0.2c-0.2,0.1-0.3,0.2-0.5,0.3c-0.3,0.2-0.5,0.3-0.8,0.4
				c-0.4-0.6-0.8-1.2-1.2-1.8c0.1-0.1,0.3-0.2,0.4-0.2c0.5-0.3,1.1-0.7,1.6-0.7c0.1,0,0.1-0.1,0.1-0.2c0-0.1-0.1-0.1-0.2-0.1
				c-0.6,0.1-1.1,0.4-1.6,0.8c-0.2,0.1-0.3,0.2-0.5,0.3c0,0,0,0,0,0c-0.4-0.5-0.7-1.1-1.1-1.6c-0.1-0.1-0.1-0.2-0.2-0.3
				c0.8-0.5,1.6-0.9,2.5-1.2c0.1,0,0.1-0.1,0.1-0.2c0-0.1-0.1-0.1-0.2-0.1c-0.9,0.4-1.8,0.8-2.6,1.3c-0.3-0.5-0.7-1-1-1.5
				c0.4-0.3,0.8-0.5,1.2-0.7c0.1-0.1,0.2-0.1,0.3-0.2c0.3-0.1,0.6-0.2,0.8-0.3c0.1,0,0.1-0.1,0.1-0.1s-0.1-0.1-0.1-0.1
				c-0.8,0.2-1.6,0.7-2.2,1.2c0,0-0.1,0-0.1,0.1c-0.3-0.4-0.5-0.8-0.8-1.2c0.2-0.1,0.4-0.3,0.6-0.4c0,0,0.1-0.1,0-0.1
				c0,0-0.1-0.1-0.1,0c-0.2,0.1-0.4,0.3-0.6,0.4c-0.3-0.5-0.7-1-1-1.6c0.3-0.2,0.6-0.3,0.8-0.5c0,0,0-0.1,0-0.1c0,0-0.1,0-0.1,0
				c-0.1,0-0.1,0.1-0.2,0.1c-0.1,0.1-0.2,0.1-0.3,0.2c-0.1,0.1-0.2,0.1-0.3,0.2c-0.3-0.4-0.5-0.8-0.8-1.1c0.2-0.2,0.4-0.4,0.6-0.6
				c0,0,0-0.1,0-0.1c0,0-0.1,0-0.1,0c-0.2,0.2-0.4,0.4-0.6,0.6c-0.2-0.4-0.5-0.7-0.7-1.1c-0.1-0.1-0.1-0.2-0.2-0.3
				c0.1,0,0.1-0.1,0.2-0.1c0.2-0.2,0.5-0.4,0.8-0.5c0,0,0.1-0.1,0-0.2s-0.1-0.1-0.2,0c-0.3,0.2-0.6,0.5-0.9,0.7
				c-0.2-0.3-0.4-0.6-0.6-0.9c0.1-0.1,0.1-0.1,0.2-0.2c0.2-0.2,0.4-0.4,0.6-0.5c0,0,0-0.1,0-0.1c0,0-0.1,0-0.1,0
				c-0.2,0.1-0.3,0.2-0.4,0.4c-0.1,0.1-0.2,0.2-0.3,0.3c-0.3-0.4-0.5-0.8-0.8-1.2c0.3-0.1,0.5-0.3,0.8-0.4c0,0,0.1-0.1,0-0.1
				c0,0-0.1-0.1-0.1,0c-0.3,0.1-0.5,0.3-0.8,0.5c-0.1-0.2-0.3-0.4-0.4-0.6c-0.2-0.3-0.4-0.6-0.6-1c0,0,0-0.1,0-0.1c0,0,0,0,0,0
				c-0.5-0.8-1-1.7-1.5-2.5c0-0.1-0.1-0.1-0.2,0s-0.1,0.1,0,0.2c0.2,0.3,0.4,0.7,0.6,1c-0.4-0.6-0.9-1.3-1.3-1.9c0,0,0,0,0,0
				c0.1,0,0.2,0,0.3,0c0,0-0.1,0.1-0.1,0.1c0,0,0,0.1,0,0.1s0.1,0,0.1,0c0,0,0-0.1,0.1-0.2c0.1,0,0.1,0,0.1-0.1c0,0,0-0.1,0-0.1
				c0.1-0.1,0.1-0.2,0.2-0.3c0.1-0.1,0.2-0.3,0.3-0.4c0.1-0.1,0.1-0.2,0.2-0.3c0.2-0.3,0.5-0.7,0.7-1c-0.4,0.6-0.7,1.2-1,1.8
				c-0.1,0.1-0.1,0.2-0.2,0.3c-0.1,0.1-0.1,0.3,0.1,0.3s0.3,0.1,0.3-0.1c0.6-0.9,1.3-1.7,2-2.4c1-1.1,2.1-2.2,3.2-3.2
				c0.3-0.3,0.6-0.6,0.9-0.9c0.1-0.1,0.1-0.1,0.2-0.2c0,0,0.1,0,0.1-0.1C17.9,13.1,18,13.1,18.2,13.1C18.1,13,18.2,13.1,18.2,13.1z
				 M10.9,13.2L10.9,13.2L10.9,13.2L10.9,13.2z M49.2,14.5c-0.7,0.3-1.3,0.7-1.9,1.1c-0.1,0.1-0.3,0.2-0.4,0.2
				c-0.1-0.1-0.1-0.1-0.2-0.2c-0.1-0.1-0.3-0.2-0.4-0.3c-0.2-0.1-0.4-0.3-0.5-0.4c0.2-0.1,0.4-0.2,0.6-0.3c0.6-0.3,1.2-0.6,1.8-0.9
				c0.1,0,0.1-0.1,0.2-0.1C48.7,13.9,48.9,14.2,49.2,14.5z M22.3,14.3c0.2,0.1,0.4,0.1,0.6,0.2c-0.1,0-0.1,0-0.2,0.1
				c-0.6-0.2-1.1-0.4-1.7-0.7c0,0,0.1-0.1,0.1-0.1C21.4,13.9,21.9,14.1,22.3,14.3z M22.3,14.7c-1,0.4-2,0.7-3,1.2
				c-1.2,0.5-2.4,1.2-3.5,1.9c0.1-0.1,0.3-0.3,0.4-0.4c0-0.1,0.1-0.1,0.2-0.2c0.1-0.2,0.3-0.4,0.4-0.6c0.1-0.1,0.1-0.2,0.2-0.3
				L17,16l0.1,0c0.3-0.1,0.5-0.4,0.6-0.6c0,0,0-0.1,0-0.1c0.5-0.2,0.9-0.5,1.4-0.7c0.4-0.2,0.8-0.3,1.2-0.5c0.1,0,0.3-0.1,0.4-0.1
				C21.2,14.2,21.7,14.4,22.3,14.7z M42.2,14.5c-0.3,0.2-0.6,0.3-0.9,0.5c-0.3,0.1-0.6,0.3-0.9,0.4c-0.3,0.1-0.5,0.2-0.8,0.4
				c-0.1,0-0.2,0.1-0.3,0.1c-0.1,0-0.1,0.2-0.1,0.2c0,0.1,0.2,0.1,0.2,0.1c0.1-0.1,0.2-0.1,0.3-0.1c0.2-0.1,0.5-0.2,0.7-0.4
				c0.3-0.1,0.6-0.3,0.9-0.4c0.4-0.2,0.9-0.4,1.3-0.6c0.6,0.2,1.2,0.4,1.8,0.8c-0.1,0-0.1,0.1-0.2,0.1c-0.2,0.1-0.5,0.3-0.7,0.5
				c0,0,0,0.1,0,0.1c0,0,0.1,0,0.1,0c0.3-0.2,0.6-0.4,0.9-0.6c0.1,0.1,0.2,0.1,0.3,0.2c0.3,0.2,0.5,0.5,0.8,0.8
				c-0.2,0.1-0.4,0.2-0.6,0.4C45,16.9,45,17,45.1,17c0,0.1,0.1,0.1,0.2,0.1c0.2-0.1,0.4-0.3,0.7-0.4c0.6,0.8,1.1,1.7,1.4,2.8
				c0.1,0.3,0.2,0.7,0.2,1c-0.1,0.6-0.5,1.3-0.8,1.9c-0.4,0.6-0.7,1.2-1,1.8c-1.4-0.7-2.7-1.4-4.1-2.1c0.1-0.1,0.1-0.2,0.1-0.3
				c0-0.1-0.2-0.2-0.3-0.1c-0.1,0-0.3,0.1-0.4,0.1c-1.4-0.7-2.8-1.4-4.2-2.1c-0.2-0.1-0.3-0.2-0.5-0.2c0,0,0-0.1,0-0.1
				c0-0.1-0.2-0.2-0.3-0.1c0,0-0.1,0-0.1,0c-0.8-0.4-1.7-0.8-2.5-1.2c0.2-0.2,0.4-0.5,0.6-0.7c0.7-0.7,1.4-1.5,2.2-2.1
				c0.5-0.3,1.1-0.5,1.7-0.7c-0.7,0.5-1.4,1-2.1,1.5c-0.1,0.1-0.1,0.2,0,0.2s0.2,0.1,0.2,0c0.2-0.2,0.4-0.3,0.6-0.5
				c0.2-0.1,0.4-0.3,0.6-0.5c0.5-0.3,1-0.7,1.5-1C39.9,14.2,41.1,14.3,42.2,14.5z M24.1,15c0.6,0.2,1.2,0.5,1.8,0.7
				c0.4,0.1,0.7,0.3,1.1,0.4c0.1,0,0.3,0,0.4,0.1c0.1,0,0.2,0.1,0.3,0.1c-0.2,0.1-0.3,0.1-0.5,0.2c-1.3-0.6-2.6-1.1-4-1.6
				c0.1,0,0.1,0,0.2-0.1C23.7,14.8,23.9,14.9,24.1,15z M50.3,16.2c-0.1,0.1-0.2,0.1-0.3,0.2c-0.6,0.3-1.1,0.8-1.6,1.1
				c-0.1,0-0.1,0.1-0.2,0.1c-0.2-0.4-0.4-0.8-0.7-1.1c-0.1-0.1-0.2-0.3-0.4-0.4c0,0,0,0,0.1,0c0.8-0.4,1.5-0.8,2.3-1.2
				C49.7,15.3,50,15.7,50.3,16.2z M29.5,16.1c-0.1,0-0.2-0.1-0.3-0.1c0.2-0.1,0.4-0.3,0.6-0.4C29.7,15.7,29.6,15.9,29.5,16.1z
				 M28.6,16.6c0.2,0.1,0.4,0.2,0.6,0.3c0,0.1,0,0.1,0,0.2c0,0,0,0.1,0,0.1c-0.5-0.2-0.9-0.4-1.4-0.6c0.2-0.1,0.3-0.1,0.5-0.2
				C28.4,16.5,28.5,16.5,28.6,16.6z M51.3,21.3c-0.1,0.4-0.2,0.9-0.3,1.3c-0.1,0.1-0.1,0.3-0.2,0.4c0,0.1-0.1,0.1-0.1,0.2
				c-0.1,0.1-0.1,0.3-0.2,0.4c-0.3,0.5-0.6,1-1,1.5c-0.2,0.2-0.1,0.5,0.1,0.7c0.2,0.2,0.5,0.1,0.7-0.1c0.1-0.1,0.2-0.3,0.3-0.5
				c-0.1,0.1-0.1,0.3-0.2,0.4c-0.1,0.2-0.3,0.4-0.4,0.7c-0.8-0.4-1.6-0.8-2.4-1.2c0.1,0,0.3,0,0.4-0.1c0.3-0.1,0.7-0.3,1-0.5
				c0.3-0.2,0.7-0.5,1.1-0.6c0.1,0,0.1-0.1,0.1-0.2c0-0.1-0.1-0.1-0.2-0.1c-0.6,0.1-1.1,0.6-1.5,0.9c-0.1,0.1-0.2,0.1-0.3,0.2
				c-0.1,0.1-0.2,0.1-0.3,0.1c-0.1,0-0.3,0.1-0.4,0l0,0l0.1-0.5c0-0.1,0-0.2,0.1-0.3c0.1-0.2,0.2-0.5,0.3-0.7c0-0.1,0.1-0.3,0.1-0.4
				c0-0.2,0.1-0.4,0.1-0.6c0-0.1,0-0.2,0-0.3c0.4-0.8,0.6-1.6,0.6-2.5c0-0.2-0.1-0.4-0.1-0.6c0-0.1-0.1-0.3-0.1-0.4
				c0.1,0,0.1,0,0.2,0c0.3-0.1,0.8-0.3,1.1-0.5c0.2-0.1,0.4-0.2,0.5-0.3c0.1,0,0.1-0.1,0.1-0.2c0-0.1-0.1-0.1-0.2-0.1
				c-0.3,0.2-0.6,0.3-0.9,0.5c-0.1,0.1-0.4,0.2-0.6,0.3c-0.1,0-0.1,0-0.2,0c0-0.1-0.1-0.2-0.1-0.3c0.6-0.3,1.1-0.8,1.7-1.2l0.2-0.1
				l-0.1,0.1c-0.1,0.1-0.2,0.2-0.3,0.3c0.1,0,0.2-0.1,0.3-0.1c0.2-0.1,0.3-0.2,0.5-0.3C51.2,18,51.6,19.6,51.3,21.3z M29.1,17.5
				c0,0.1,0,0.2,0,0.3c-0.1,0-0.2,0.1-0.2,0.1c-0.9,0.3-1.9,0.7-2.8,1.1c-0.6,0.3-1.2,0.5-1.8,0.8c0,0,0,0,0,0c0.1,0,0.1-0.1,0-0.2
				s-0.1-0.1-0.2,0c-0.3,0.2-0.5,0.4-0.7,0.6c-0.8,0.4-1.5,0.7-2.3,1.1c0.3-0.5,0.6-0.9,1-1.4c0.2-0.4,0.5-0.7,0.7-1.1
				c0.1-0.1,0.2-0.3,0.3-0.4c1.3-0.6,2.7-1.1,4-1.6c0.1,0,0.2-0.1,0.2-0.1C28,17,28.6,17.3,29.1,17.5z M29.4,17c0,0,0,0.1,0.1,0.1
				c0,0,0.1,0,0.1,0c0.3,0.1,0.5,0.2,0.8,0.4c-0.1,0-0.3,0.1-0.4,0.1c-0.2-0.1-0.4-0.2-0.6-0.3C29.3,17.2,29.3,17.1,29.4,17
				C29.4,17,29.4,17,29.4,17C29.4,17,29.4,17,29.4,17z M29.5,17.7c-0.1,0-0.2,0.1-0.3,0.1c0-0.1,0-0.2,0-0.2
				C29.3,17.6,29.4,17.7,29.5,17.7z M32.7,18.6C32.7,18.6,32.7,18.6,32.7,18.6c0,0.1,0,0.1-0.1,0.2c-0.7-0.3-1.4-0.6-2.1-0.9
				c0.1,0,0.3-0.1,0.4-0.1C31.5,18,32.1,18.3,32.7,18.6z M7.2,18.3C7.2,18.4,7.1,18.4,7.2,18.3c-0.3-0.1-0.5-0.2-0.7-0.2
				C6.7,18.1,7,18.2,7.2,18.3z M34.8,19.6C34.8,19.6,34.8,19.7,34.8,19.6c-0.5-0.2-0.9-0.4-1.4-0.6c-0.1,0-0.1-0.1-0.2-0.1
				c0,0,0-0.1,0-0.1c0,0,0,0,0.1,0l0,0C33.8,19.1,34.3,19.4,34.8,19.6z M49.8,20c-0.1,0.1-0.3,0.2-0.4,0.3c-0.3,0.2-0.5,0.3-0.7,0.5
				c-0.1,0-0.1,0.1,0,0.2c0,0.1,0.1,0.1,0.2,0c0.1-0.1,0.2-0.1,0.3-0.2c0.2-0.1,0.3-0.2,0.5-0.3c0.5-0.3,0.8-0.5,1.3-0.6
				c0.1,0,0.2,0,0.2,0c0.1,0,0.2-0.1,0.2-0.2c0-0.1-0.1-0.2-0.2-0.2C50.6,19.5,50.1,19.8,49.8,20z M35.4,19.9c0,0-0.1,0-0.1-0.1
				c0,0,0,0,0,0C35.3,19.9,35.3,19.9,35.4,19.9z M46.8,24.5c0,0,0,0.1,0,0.2c0,0-0.1,0-0.1-0.1c0.1-0.3,0.3-0.6,0.4-0.8
				C47,24,46.9,24.3,46.8,24.5z M47.2,24.9C47.2,24.9,47.2,24.9,47.2,24.9C47.2,24.9,47.2,24.9,47.2,24.9
				C47.1,24.9,47.1,24.9,47.2,24.9z M36.1,25.3L36.1,25.3c0.2,0.1,0.3,0.1,0.5,0.2c-0.4,0.2-0.9,0.4-1.3,0.6L36.1,25.3z M48.9,26.9
				c-0.1,0-0.2,0.1-0.3,0.1c-0.6,0.2-1.1,0.3-1.7,0.5c-0.3,0.1-0.6,0.2-0.8,0.3c-0.2,0.1-0.4,0.2-0.6,0.2c-0.5,0.2-1,0.4-1.5,0.7
				c-0.8,0.4-1.6,0.8-2.4,1.3c-0.4,0.2-0.7,0.4-1.1,0.7c-1.2,0.8-2.4,1.6-3.6,2.4c0,0,0,0,0,0c0.8-1.2,1.7-2.4,2.7-3.4
				c0.2-0.2,0.4-0.4,0.6-0.6c0.6-0.3,1.2-0.6,1.8-0.8c1.6-0.7,3.1-1.3,4.8-2c0.2-0.1,0.3-0.1,0.5-0.2C47.9,26.4,48.4,26.6,48.9,26.9
				z M52.1,28.4c-0.8,0.3-1.6,0.6-2.4,0.9c-0.6,0.2-1.3,0.5-1.9,0.8c-0.4,0.2-0.8,0.3-1.2,0.5c-0.9,0.4-1.7,0.8-2.6,1.2
				c0.5-0.5,1-1,1.6-1.5c0.1-0.1,0.1-0.3,0-0.4h-0.4c-0.7,0.8-1.5,1.5-2.2,2.3c-0.4,0.2-0.8,0.4-1.2,0.6c-0.9,0.5-1.9,1-2.8,1.6
				c0.8-1.1,1.6-2.1,2.5-3.1c0.3-0.3,0.7-0.7,1-1c0.2-0.2,0.4-0.4,0.7-0.6c0.1-0.1,0.1-0.1,0.1-0.2c0.2-0.1,0.4-0.2,0.5-0.3
				c0.7-0.3,1.5-0.7,2.2-1c0.7-0.3,1.4-0.5,2.1-0.7c0.2-0.1,0.5-0.1,0.7-0.2c0.3-0.1,0.5-0.1,0.8-0.2C50.4,27.6,51.2,28,52.1,28.4z
				 M54.5,29.6c-0.2,0.1-0.3,0.1-0.5,0.2c-0.3,0.1-0.5,0.2-0.8,0.3c-0.6,0.2-1.2,0.5-1.9,0.7c-0.6,0.3-1.3,0.5-1.9,0.8
				c-0.8,0.3-1.5,0.7-2.3,1c0.1-0.1,0.2-0.1,0.3-0.2c0.1-0.1,0.2-0.3,0.1-0.4c-0.1-0.1-0.3-0.2-0.4-0.1c-0.3,0.2-0.5,0.4-0.8,0.6
				c-0.4,0.3-0.7,0.6-1,0.9c-0.5,0.3-1,0.5-1.6,0.8c-1.2,0.6-2.5,1.3-3.7,2c0.3-0.5,0.7-1,1.1-1.4c0.7-0.9,1.4-1.7,2.2-2.4
				c0.6-0.3,1.2-0.6,1.9-0.9c1.5-0.7,3.1-1.3,4.7-1.8c1-0.4,1.9-0.7,2.9-1C53.3,29,53.9,29.3,54.5,29.6z M61.4,32.4
				c0.1,0,0.2,0.1,0.3,0.1c-0.3,0.1-0.5,0.2-0.7,0.3c-1.3,0.5-2.7,1-4,1.6c-0.9,0.4-1.8,0.8-2.8,1.2c-0.3,0.1-0.6,0.3-0.9,0.4
				c-0.3,0.2-0.7,0.3-1,0.5c-0.5,0.3-1,0.5-1.5,0.8c-0.6,0.3-1.2,0.7-1.7,1c-0.4,0.2-0.7,0.5-1.1,0.7c0.7-0.8,1.4-1.6,2.2-2.3
				c0.8-0.7,1.6-1.3,2.4-1.9c0.1-0.1,0.3-0.1,0.4-0.2c0.5-0.2,1-0.4,1.5-0.7c1.1-0.5,2.2-0.9,3.2-1.3c0.3-0.1,0.7-0.2,1-0.3
				c0.2-0.1,0.4-0.1,0.6-0.2c0.1,0,0.2-0.1,0.4-0.2c0.1,0,0.1-0.1,0.1-0.2C60.4,32.1,60.9,32.2,61.4,32.4z M66.3,36.3
				c0,0,0,0.1,0,0.1c0,0,0,0,0.1,0c-0.3,0.3-0.5,0.7-0.8,1c-0.1,0-0.1,0.1-0.2,0.1c0.3-0.8,0.7-1.5,1.1-2.3l0.2-0.1
				C66.5,35.5,66.3,35.9,66.3,36.3z M64.8,37.9c-0.5,0.3-1,0.6-1.5,0.9c0-0.1,0.1-0.2,0.1-0.3c0.1-0.1,0.2-0.1,0.4-0.2
				c0,0,0.1-0.1,0-0.1c0,0-0.1-0.1-0.1,0c-0.1,0-0.1,0-0.2,0c0.1-0.2,0.1-0.5,0.2-0.7c0.1-0.3,0.2-0.5,0.3-0.8
				c0.1-0.1,0.2-0.1,0.2-0.2c0.2-0.1,0.4-0.2,0.6-0.2c0.1,0,0.1-0.1,0.1-0.2c0.3-0.2,0.6-0.4,1-0.6C65.5,36.3,65.2,37.1,64.8,37.9z
				 M62.9,38.3c-0.1,0-0.2,0.1-0.3,0.1c-0.2,0-0.3,0.1-0.5,0.2c0-0.1,0.1-0.2,0.1-0.3c0.3-0.2,0.6-0.4,0.9-0.7
				C63,37.9,63,38.1,62.9,38.3z M58.8,39.8c-0.2,0.2-0.4,0.4-0.6,0.6c-2.6,1.2-5.1,2.6-7.4,4.2c0.7-0.6,1.4-1.2,2-1.7
				c0.3-0.3,0.7-0.5,1-0.8c0.5-0.4,1.1-0.8,1.6-1.2c0.4-0.4,0.8-0.7,1.2-1.1c0.2-0.2,0.3-0.3,0.5-0.5c0.2-0.1,0.5-0.2,0.7-0.3
				c1-0.4,2-0.8,3-1.2C60.2,38.5,59.5,39.1,58.8,39.8z M65.5,38.9c-0.3,0.5-0.5,1-0.8,1.5c-0.1,0.1-0.1,0.2-0.2,0.4
				c-0.3,0.6-0.6,1.1-1,1.7c-0.5,0.8-1,1.7-1.5,2.5c0.1-0.2,0.1-0.4,0.2-0.6c0.2-0.5,0.3-1.1,0.4-1.7c0-0.2,0.1-0.4,0.1-0.7
				c0.2-0.2,0.3-0.4,0.5-0.6c0.9-1.1,1.9-2.2,2.8-3.4C65.8,38.3,65.6,38.6,65.5,38.9z M62.7,39.3c-0.4,0.3-0.8,0.6-1.2,0.8l0,0
				c0,0,0-0.1,0.1-0.1c0.2-0.1,0.3-0.2,0.5-0.3c0.1-0.1,0.1-0.2,0.1-0.2c-0.1-0.1-0.2-0.1-0.2-0.1c0,0,0,0,0,0c0,0,0,0,0,0
				c0,0,0-0.1,0-0.1c0,0,0,0,0,0c0.3-0.1,0.5-0.2,0.8-0.4c0,0,0,0,0,0C62.7,39,62.7,39.1,62.7,39.3z M64.4,39c0,0-0.1,0.1-0.1,0.1
				c-0.5,0.6-0.9,1.1-1.4,1.7c0.1-0.3,0.1-0.7,0.2-1c0.4-0.3,0.8-0.6,1.3-0.9C64.4,38.9,64.4,39,64.4,39z M23.3,41.1
				C23.3,41.1,23.3,41.1,23.3,41.1c-0.1,0-0.1-0.1-0.2-0.2c-0.3-0.5-0.6-1-0.9-1.5c0,0,0,0,0,0C22.6,40,23,40.5,23.3,41.1z M60.8,40
				c0,0.1-0.1,0.1-0.1,0.2c-0.4,0.3-0.7,0.5-1.1,0.8c-0.2-0.1-0.4,0-0.5,0.2c-0.1,0.1-0.1,0.2-0.2,0.4c-0.5,0.4-0.9,0.8-1.3,1.1
				c-0.1,0-0.1,0.1-0.2,0.1c0,0,0,0,0,0c0.2-0.2,0.4-0.4,0.6-0.7c0.2-0.3,0.5-0.5,0.8-0.8c0.4-0.4,0.8-0.8,1.2-1.2
				c0.2-0.1,0.4-0.2,0.5-0.2c0.1,0,0.2-0.1,0.3-0.1C60.9,39.8,60.8,39.9,60.8,40z M62.2,41.6c-0.1,0.1-0.2,0.3-0.4,0.4
				c-0.3,0.3-0.5,0.6-0.8,0.9c0-0.1,0-0.1,0-0.2c-0.1-0.1-0.2-0.2-0.4-0.1c-0.1,0-0.1,0.1-0.2,0.1c0.2-0.5,0.3-1,0.5-1.5
				c0.5-0.4,1-0.7,1.4-1C62.4,40.7,62.3,41.2,62.2,41.6z M60.5,40.8c0,0,0,0.1-0.1,0.1c-0.2,0.1-0.4,0.3-0.6,0.4c0,0,0-0.1,0-0.1
				C60,41,60.3,40.9,60.5,40.8C60.5,40.7,60.5,40.8,60.5,40.8z M25.8,45C25.8,45,25.8,45,25.8,45c-0.1,0.1-0.1,0.1,0,0.2
				c0,0.1,0.1,0.1,0.2,0c0.3,0.5,0.6,1,0.9,1.5c0.4,0.7,0.9,1.4,1.3,2.1C28.1,48.9,28.1,49,28,49c-1.5-2.5-3-5.1-4.6-7.7
				c0,0,0,0,0.1,0C24.3,42.6,25,43.8,25.8,45z M60,42.2c-0.1,0.4-0.2,0.8-0.3,1.2c-0.3,0.2-0.5,0.4-0.8,0.5c0.1-0.4,0.3-0.9,0.4-1.3
				c0.2-0.2,0.5-0.4,0.7-0.6C60,42.1,60,42.1,60,42.2z M58.6,42.3c-0.5,0.4-0.9,0.8-1.3,1.1c0-0.1,0-0.1,0.1-0.2
				c0.1-0.1,0.2-0.2,0.3-0.3c0.3-0.3,0.7-0.6,1.1-0.9C58.7,42.2,58.7,42.2,58.6,42.3z M61.8,43.6c-0.1,0.4-0.2,0.8-0.3,1.2
				c0,0.1,0,0.3,0.2,0.3c0.1,0,0.2,0,0.2,0c-0.1,0.2-0.3,0.4-0.4,0.6c-0.7,1.1-1.4,2.2-2.2,3.3c0.1-0.6,0.2-1.2,0.3-1.8
				c0.1-0.6,0.2-1.3,0.4-1.9c0.5-0.5,1-1.1,1.4-1.6c0.2-0.2,0.4-0.5,0.6-0.7C61.9,43.1,61.8,43.3,61.8,43.6z M60.9,43.2
				c-0.2,0.3-0.5,0.6-0.7,0.9c0-0.2,0.1-0.3,0.1-0.5C60.5,43.4,60.7,43.3,60.9,43.2C60.9,43.2,60.9,43.2,60.9,43.2z M58,44.5
				C58,44.5,58,44.5,58,44.5c-0.3,0.3-0.5,0.4-0.7,0.6c-0.2,0.2-0.5,0.4-0.7,0.6c0-0.1,0.1-0.2,0.1-0.3c0.1-0.3,0.2-0.6,0.2-0.8
				c0.3-0.2,0.5-0.5,0.8-0.7c0.2-0.1,0.3-0.3,0.5-0.4C58.2,43.8,58.1,44.1,58,44.5z M59.2,45.1C59.2,45.1,59.2,45.1,59.2,45.1
				c-0.3,0.3-0.6,0.7-0.8,1c0.1-0.5,0.2-1,0.3-1.5c0.2-0.2,0.5-0.3,0.8-0.5C59.4,44.4,59.3,44.8,59.2,45.1z M56.3,44.3
				c-0.3,0.3-0.7,0.6-1,1c0.1-0.1,0.1-0.2,0.2-0.2c0.3-0.3,0.6-0.6,0.9-0.8C56.3,44.2,56.3,44.3,56.3,44.3z M57.6,46.6
				c-0.5,0.4-1,0.8-1.6,1.2c0-0.2,0.1-0.3,0.1-0.5c0.1-0.4,0.2-0.7,0.3-1.1c0.5-0.4,0.9-0.7,1.4-1C57.8,45.6,57.7,46.1,57.6,46.6z
				 M55.7,46.5c-0.2,0.2-0.4,0.4-0.6,0.6l-0.4,0.3c0.1-0.3,0.2-0.6,0.2-1c0,0,0,0,0,0c0.3-0.3,0.7-0.6,1-0.9
				C55.9,45.8,55.8,46.2,55.7,46.5z M58.7,48.6c-0.1,0.5-0.1,0.9-0.2,1.4c0,0,0,0,0,0c-0.3,0.4-0.6,0.8-0.9,1.2c0,0,0-0.1,0-0.1
				c0.2-1.3,0.4-2.6,0.6-4c0.3-0.3,0.6-0.6,0.8-1c0,0,0,0,0,0C58.9,46.9,58.8,47.8,58.7,48.6z M55.5,47c-0.1,0.4-0.2,0.9-0.3,1.3
				c-0.3,0.2-0.6,0.5-0.9,0.7c0.1-0.5,0.2-0.9,0.3-1.4c0.3-0.3,0.6-0.5,1-0.8C55.6,46.9,55.5,47,55.5,47z M53.9,47.9
				c-0.3,0.3-0.5,0.6-0.8,0.9c0,0-0.1,0.1-0.2,0.2c0.1-0.3,0.1-0.5,0.2-0.8c0.3-0.3,0.6-0.6,0.9-0.9C54,47.5,53.9,47.7,53.9,47.9z
				 M56.9,47.7c-0.4,0.5-0.9,1-1.3,1.5c0.1-0.2,0.1-0.4,0.2-0.6c0-0.1,0-0.1,0-0.2c0.1-0.1,0.2-0.1,0.2-0.2c0.4-0.3,0.8-0.6,1.2-0.9
				C57.2,47.5,57.1,47.6,56.9,47.7z M53.9,48.1l-0.6,0.5l0.6-0.7C53.9,48,53.9,48.1,53.9,48.1z M57.3,48.6c-0.1,0.6-0.2,1.1-0.2,1.7
				c-0.1,0.7-0.2,1.4-0.4,2.1c-0.2,0.3-0.4,0.5-0.6,0.8c-0.7,0.9-1.4,1.7-2.1,2.5c-0.2,0.3-0.5,0.6-0.7,0.9c0.2-1.5,0.4-3,0.6-4.5
				c0.1-0.1,0.1-0.1,0.2-0.2c0.1-0.1,0.2-0.1,0.3-0.2c0.1-0.1,0.2-0.2,0.4-0.3c-0.2,1-0.3,2-0.4,3c0,0.1,0.1,0.2,0.2,0.3
				c0.1,0,0.2-0.1,0.3-0.2c0.1-1.2,0.3-2.3,0.6-3.5c0.1-0.1,0.3-0.2,0.4-0.3c0.2-0.1,0.4-0.3,0.6-0.4c0.1-0.1,0.3-0.2,0.4-0.3
				c0.1-0.1,0.1-0.2,0-0.3s-0.2-0.1-0.3,0c-0.4,0.2-0.7,0.4-1,0.7c0,0,0,0,0,0c0.7-0.7,1.3-1.5,2-2.2C57.3,48.2,57.3,48.4,57.3,48.6
				z M53.6,49.7c-0.2,0.2-0.4,0.4-0.6,0.6c0-0.1,0-0.1-0.1-0.1c-0.1-0.1-0.1-0.1-0.2,0c0.1-0.3,0.2-0.6,0.2-0.9
				c0.1-0.1,0.1-0.1,0.2-0.2c0.2-0.2,0.4-0.4,0.7-0.6c0,0,0,0,0.1-0.1C53.7,48.8,53.7,49.2,53.6,49.7z M52.3,49.4
				C52.3,49.4,52.3,49.4,52.3,49.4c-0.1,0.1-0.3,0.2-0.4,0.3c0-0.1,0.1-0.3,0.1-0.4c0.1-0.1,0.2-0.3,0.4-0.4
				C52.4,49.1,52.4,49.3,52.3,49.4z M54.9,50.1c-0.3,0.3-0.6,0.7-0.9,1c0.1-0.4,0.1-0.9,0.2-1.3c0,0,0-0.1,0-0.1
				c0.3-0.2,0.6-0.5,0.9-0.7C55,49.3,54.9,49.7,54.9,50.1z M29.3,50.7c0,0.1-0.1,0.1-0.1,0.2c0,0.1,0,0.2,0.1,0.2
				c0.1,0,0.1,0,0.2-0.1c0.4,0.6,0.8,1.3,1.2,1.9c-0.1,0.1-0.2,0.2-0.3,0.2c-0.6-0.9-1.1-1.9-1.7-2.8c-0.2-0.3-0.4-0.6-0.5-0.9
				c0,0,0,0,0,0c0.1-0.1,0.1-0.1,0.2-0.2C28.7,49.7,29,50.2,29.3,50.7z M64.9,50.2c0,0.2,0.1,0.3,0.2,0.5c0.1,0.1,0.1,0.2,0.2,0.3
				l0,0c-0.2,0-0.3,0.1-0.4,0.3c0,0.2,0.1,0.3,0.3,0.4c0.2,0,0.5,0.1,0.8,0.1l0.2,0.1c1.4,1.2,3.2,1.7,4.9,2.5
				c0.1,0.1,0.3,0.1,0.4,0c0.1,0,0.1-0.1,0.2-0.1l0,0l0.2,0.1c0.3,0.1,0.6,0.3,1,0.4c0.3,0.1,0.5,0.2,0.8,0.2
				c0.3,0.1,0.6-0.3,0.5-0.6c0-0.1-0.1-0.1-0.2-0.2c-0.3-0.2-0.5-0.5-0.8-0.7c-0.3-0.2-0.6-0.5-1-0.7c-0.3-0.2-0.6-0.4-0.9-0.5
				c-1.2-0.6-2.4-1.2-3.6-1.6c-0.4-0.2-0.9-0.3-1.3-0.5C66,50,65.8,50,65.6,49.9C65.3,49.8,65,49.9,64.9,50.2z M52.1,50.3
				c-0.1,0.1-0.3,0.2-0.4,0.3c0,0,0-0.1,0-0.1c0.1-0.2,0.3-0.3,0.4-0.5C52.2,50.1,52.2,50.2,52.1,50.3z M53.3,51.8
				c-0.4,0.3-0.8,0.7-1.2,1c0.1-0.3,0.1-0.5,0.2-0.8c0-0.2,0.1-0.4,0.1-0.6c0.4-0.4,0.8-0.8,1.2-1.2C53.4,50.8,53.3,51.3,53.3,51.8z
				 M51.2,50.4c-0.2,0.2-0.4,0.4-0.7,0.6c0.2-0.3,0.5-0.5,0.7-0.8C51.2,50.3,51.2,50.4,51.2,50.4z M52,51.3
				c-0.1,0.1-0.2,0.2-0.2,0.3c-0.1,0.1-0.2,0.3-0.3,0.4c0,0,0,0,0-0.1c0-0.2,0.1-0.3,0.1-0.5c0.1-0.1,0.2-0.2,0.4-0.3L52,51
				C52,51.1,52,51.2,52,51.3z M66.9,51.3l0.5,0.2l-0.1,0L67,51.4L66.9,51.3z M50.8,52.1c0,0.1,0,0.2-0.1,0.3
				c-0.1,0.1-0.2,0.1-0.3,0.2c-0.3,0.2-0.6,0.4-0.9,0.7c0,0.1,0-0.2,0.1-0.5c0.4-0.4,0.8-0.7,1.2-1C50.9,51.9,50.8,52,50.8,52.1z
				 M51.6,53.2c-0.2,0.2-0.4,0.3-0.6,0.5c0,0,0,0,0,0c0-0.2,0.1-0.3,0.1-0.5c0-0.1,0-0.2,0.1-0.3c0.2-0.3,0.4-0.6,0.6-0.9
				C51.7,52.4,51.7,52.8,51.6,53.2z M52.6,57.3c-0.1,0.1-0.3,0.3-0.4,0.4c-0.3,0.3-0.6,0.6-0.9,0.9c0-0.5,0-1,0.1-1.5
				c0.1-0.7,0.1-1.4,0.2-2.1c0.3-0.2,0.6-0.4,0.9-0.6c0.1-0.1,0.1-0.2,0.1-0.3c-0.1-0.1-0.2-0.1-0.3-0.1c-0.2,0.1-0.4,0.3-0.6,0.4
				c0-0.1,0-0.1,0-0.2c0.3-0.4,0.6-0.7,0.9-1.1c0.1-0.2,0.3-0.3,0.4-0.5C52.9,54.2,52.8,55.8,52.6,57.3z M50.4,54.2
				c-0.2,0.1-0.3,0.3-0.5,0.5c-0.1,0.1-0.1,0.2,0,0.3c0,0,0,0,0,0c-0.2,0.2-0.4,0.3-0.6,0.5c0,0-0.1,0.1-0.1,0.1
				c0.1-0.5,0.1-1,0.2-1.4c0.4-0.4,0.8-0.7,1.2-1.1C50.5,53.5,50.5,53.9,50.4,54.2z M48.9,53.7c0,0.1,0,0.3-0.1,0.4
				c-0.1,0.1-0.2,0.3-0.3,0.4c0-0.2,0.1-0.4,0.1-0.6c0.1-0.1,0.2-0.2,0.3-0.3C48.9,53.7,48.9,53.7,48.9,53.7z M51.5,53.8
				c-0.2,0.3-0.5,0.5-0.7,0.8c0-0.1,0-0.2,0.1-0.3C51.1,54.2,51.3,54,51.5,53.8C51.5,53.8,51.5,53.8,51.5,53.8
				C51.5,53.8,51.5,53.8,51.5,53.8z M51.4,54.7c-0.1,0-0.1,0.1-0.2,0.1C51.3,54.8,51.3,54.7,51.4,54.7
				C51.4,54.7,51.4,54.7,51.4,54.7z M47.7,55.5C47.7,55.5,47.7,55.5,47.7,55.5c-0.2,0.2-0.4,0.5-0.6,0.7c-0.1,0.1-0.1,0.2-0.2,0.3
				c0.1-0.3,0.2-0.7,0.3-1c0,0,0,0,0-0.1c0.1-0.1,0.1-0.2,0.2-0.2c0.1-0.1,0.2-0.2,0.3-0.3c0.1-0.1,0.2-0.2,0.2-0.3
				C47.8,55,47.8,55.3,47.7,55.5z M50.3,54.9C50.3,54.9,50.3,54.9,50.3,54.9C50.3,54.9,50.3,54.9,50.3,54.9
				C50.3,54.9,50.3,54.9,50.3,54.9z M50.3,54.9C50.3,54.9,50.3,54.9,50.3,54.9C50.3,54.9,50.3,54.9,50.3,54.9z M50.2,55.3L50.2,55.3
				c0-0.1,0-0.2,0.1-0.4C50.3,55.1,50.3,55.2,50.2,55.3z M48.6,55.8c0,0.2,0,0.4-0.1,0.6c-0.2,0.2-0.4,0.5-0.6,0.7
				c0.1-0.5,0.2-1,0.3-1.6c0.1-0.2,0.3-0.3,0.4-0.5C48.6,55.3,48.6,55.5,48.6,55.8z M51.2,56.6c-0.1,0.8-0.1,1.5-0.1,2.3
				c0,0,0,0,0,0c-0.4,0.4-0.7,0.8-1.1,1.1c0.1-0.9,0.2-1.8,0.3-2.7c0.1-0.5,0.1-1,0.2-1.5c0.2-0.1,0.3-0.3,0.5-0.4
				c0.1-0.1,0.2-0.1,0.3-0.2C51.3,55.7,51.2,56.1,51.2,56.6z M49.1,56.6C49.1,56.7,49.1,56.7,49.1,56.6C49,56.7,49,56.6,49.1,56.6
				c0-0.1,0-0.1,0.1-0.1c0.1-0.1,0.3-0.3,0.4-0.4C49.4,56.3,49.2,56.5,49.1,56.6z M49.9,57.5c-0.1,0.5-0.1,1-0.2,1.5
				c0,0.5-0.1,0.9-0.1,1.4c0,0-0.1,0.1-0.1,0.1c-0.3,0.3-0.6,0.6-0.9,1c0-1,0.1-2.1,0.2-3.1c0.4-0.3,0.7-0.7,1.1-1
				c0.1-0.1,0.1-0.2,0-0.2h-0.2c-0.3,0.2-0.5,0.5-0.8,0.7c0-0.1,0-0.2,0-0.3c0.4-0.4,0.8-0.8,1.1-1.1C50,56.8,50,57.2,49.9,57.5z
				 M46.3,57.5c-0.3,0.4-0.6,0.7-0.9,1.1c-0.2,0.2-0.4,0.5-0.6,0.7c0-0.1,0.1-0.3,0.1-0.5c0.2-0.2,0.3-0.5,0.5-0.7
				c0.4-0.5,0.7-1.1,1.1-1.6C46.4,56.8,46.3,57.2,46.3,57.5z M47.1,58.2c-0.3,0.4-0.6,0.9-0.9,1.3c0.1-0.5,0.2-1,0.4-1.6
				c0-0.1,0-0.1,0-0.2c0.3-0.4,0.5-0.7,0.8-1.1C47.4,57.2,47.3,57.7,47.1,58.2z M48.4,57.4c-0.3,0.3-0.5,0.6-0.3,0.4
				c0,0-0.1,0.1-0.1,0.1C48.1,57.8,48.3,57.6,48.4,57.4C48.4,57.4,48.4,57.4,48.4,57.4z M48.4,58.4c-0.3,0.3-0.6,0.6-0.9,0.9
				c0,0,0,0,0,0c0-0.1,0-0.2,0.1-0.3c0.1-0.1,0.3-0.3,0.4-0.4c0.2-0.2,0.3-0.4,0.5-0.5C48.4,58.2,48.4,58.3,48.4,58.4z M45.8,60.2
				c-0.3,0.4-0.6,0.7-0.9,1c-0.1,0.1-0.3,0.3-0.4,0.4c-0.1,0.1-0.3,0.2-0.4,0.4c0.1-0.5,0.2-0.9,0.3-1.4c0-0.1,0.1-0.3,0.1-0.4
				c0.1-0.1,0.2-0.2,0.3-0.3c0.2-0.2,0.4-0.3,0.5-0.5c0.1-0.2,0.3-0.3,0.4-0.5c0.1-0.1,0.2-0.2,0.3-0.4C46,59.1,45.9,59.6,45.8,60.2
				z M60.2,58.8c-0.1,0.1-0.1,0.3,0,0.4c0.6,0.6,1.1,1.1,1.8,1.7c0.4,0.3,0.7,0.6,1.1,0.9c1.4,1.2,2.9,2.2,4.5,3.1
				c0.7,0.4,1.4,0.7,2.1,1c0.2,0.1,0.4,0.2,0.6,0.3c0.1,0.1,0.2,0.1,0.4,0c0.3-0.1,0.3-0.5,0.1-0.7c-0.1-0.1-0.2-0.2-0.3-0.3
				c-0.1-0.1-0.2-0.2-0.3-0.3c-0.5-0.4-1-0.8-1.5-1.2c-0.3-0.2-0.6-0.5-1-0.7c-0.3-0.2-0.6-0.4-0.9-0.7c-0.2-0.2-0.4-0.3-0.7-0.5
				c-0.8-0.6-1.6-1.1-2.5-1.6l-0.8-0.5l-0.5-0.4c0,0-0.1-0.1-0.1-0.1l-0.1,0l-0.1,0c0,0-0.1,0-0.2,0c-0.1,0-0.2,0.1-0.3,0.2l0,0.1
				l-0.9-0.9C60.5,58.7,60.3,58.7,60.2,58.8z M48.3,59c0,0.5,0,1.1-0.1,1.6c0,0.4,0,0.9,0,1.3c-0.2,0.2-0.3,0.3-0.5,0.5
				c-0.3,0.3-0.7,0.6-1,0.9c0,0-0.1,0-0.1,0.1c0.1-0.5,0.1-1,0.2-1.4c0-0.2,0.1-0.3,0.1-0.4c0.2-0.2,0.5-0.4,0.7-0.5
				c0.1-0.1,0.1-0.2,0-0.3c-0.1-0.1-0.2-0.1-0.3,0c-0.1,0.1-0.2,0.2-0.3,0.2c0-0.1,0.1-0.3,0.1-0.4c0-0.2,0.1-0.3,0.1-0.5
				C47.6,59.6,48,59.2,48.3,59C48.3,58.9,48.3,58.9,48.3,59z M46.8,60c-0.2,0.2-0.4,0.5-0.7,0.7c-0.2,0.2,0.3-0.3,0.7-0.8
				C46.8,59.9,46.8,59.9,46.8,60z M46.6,61.3c-0.3,0.2-0.5,0.5-0.8,0.7c0-0.2,0.1-0.4,0.1-0.6c0.3-0.3,0.5-0.6,0.8-0.8
				C46.7,60.8,46.6,61,46.6,61.3z M43.6,63.3c-0.4,0.6-0.9,1.1-1.3,1.7c0.1-0.1,0.1-0.3,0.2-0.4c0.1-0.2,0.2-0.4,0.2-0.6
				c0.2-0.5,0.3-1,0.5-1.4c0.2-0.6,0.4-1.2,0.6-1.8c0.1-0.1,0.2-0.1,0.3-0.2c0,0,0,0,0,0C43.8,61.6,43.7,62.5,43.6,63.3z M39.2,62.4
				c-0.1,0.1-0.1,0.2,0,0.3c0.1,0.1,0.2,0.1,0.3,0c0.7-0.5,1.4-1.1,2.1-1.6c0.1-0.1,0.1-0.2,0-0.3c-0.1-0.1-0.2-0.1-0.3,0
				C40.6,61.3,39.9,61.8,39.2,62.4z M42.6,63.2c-0.1,0.4-0.3,0.9-0.4,1.3c-0.1,0.2-0.2,0.5-0.3,0.7c0,0.1,0,0.2,0.1,0.2c0,0,0,0,0,0
				c-0.3,0.3-0.5,0.7-0.8,1l0.1-0.2c0.1-0.2,0.1-0.5,0.2-0.7c0,0,0-0.1-0.1-0.1s-0.1,0-0.1,0.1c-0.1,0.2-0.1,0.3-0.2,0.5
				c-0.1,0.2-0.2,0.5-0.3,0.7c0,0.1-0.1,0.2-0.1,0.3c-0.1,0.1-0.1,0.2-0.2,0.3c0-0.1,0-0.2-0.1-0.4c-0.1-0.1-0.2-0.3-0.2-0.4
				c0.1-0.2,0.2-0.4,0.3-0.6c0.2-0.4,0.5-0.9,0.7-1.3c0.2-0.3,0.4-0.6,0.6-1c0.1-0.2,0.2-0.4,0.4-0.6c0.3-0.4,0.5-0.9,0.8-1.3
				c0,0,0,0,0,0C42.9,62.2,42.7,62.7,42.6,63.2z M45.4,62.3c-0.6,0.5-1.1,1-1.6,1.6c0-0.2,0.1-0.4,0.1-0.6c0.2-0.2,0.3-0.4,0.5-0.6
				c0,0,0,0,0,0c0.1,0.1,0.2,0.1,0.2,0c0.3-0.3,0.6-0.7,0.9-1C45.5,61.9,45.5,62.1,45.4,62.3z M46.3,63.5c0,0.1,0,0.2,0,0.2
				c-0.3,0.3-0.6,0.5-0.9,0.8c0.1-0.6,0.2-1.3,0.3-1.9c0.2-0.2,0.4-0.3,0.6-0.5c0.1-0.1,0.2-0.2,0.3-0.2
				C46.4,62.4,46.4,62.9,46.3,63.5z M43.9,62.9c0-0.1,0-0.2,0-0.3c0.1,0,0.1,0,0.2-0.1c0,0,0,0,0.1,0C44.1,62.6,44,62.8,43.9,62.9z
				 M45.1,64.7c-0.3,0.2-0.6,0.5-0.9,0.7c-0.1,0.1-0.2,0.1-0.3,0.2c-0.1,0.1-0.2,0.1-0.2,0.2c0,0,0,0-0.1,0c0-0.5,0.1-1,0.1-1.5
				c0.5-0.5,1.1-1,1.6-1.5C45.3,63.5,45.2,64.1,45.1,64.7z M66.2,63.1l0.7,0.5l1,0.7l-1-0.5l-0.5-0.3l0-0.1
				C66.3,63.2,66.3,63.2,66.2,63.1L66.2,63.1z M54.9,63.8l0.1,0.3l-0.1,0c-0.1,0.1-0.1,0.1-0.2,0.2c0,0.1,0,0.1,0,0.2l0,0.1l0,0
				l0,0.1c0.1,0.1,0.2,0.2,0.2,0.4c0.1,0.1,0.1,0.2,0.2,0.3c0.1,0.2,0.2,0.3,0.3,0.5c0.2,0.4,0.4,0.8,0.6,1.2c0.5,1,1.1,2,1.8,2.9
				c0.1,0.2,0.5,0.6,0.6,0.7c0.1,0,0.2,0.1,0.3,0l0,0l0.2,0.2c0.1,0.1,0.1,0.1,0.2,0.2c0.2,0.1,0.5,0,0.5-0.3c0-0.2-0.1-0.3-0.2-0.4
				c0-0.1-0.1-0.2-0.1-0.3c-0.1-0.2-0.3-0.4-0.4-0.6c-0.2-0.4-0.5-0.7-0.7-1.1l-1.1-1.6l-0.1-0.2c-0.3-0.5-0.5-0.9-0.8-1.4
				c-0.1-0.1-0.1-0.2-0.3-0.2l-0.4-0.5l-0.1-0.2c-0.1-0.2-0.2-0.5-0.3-0.7c0-0.1-0.2-0.2-0.3-0.1C54.9,63.6,54.8,63.7,54.9,63.8z
				 M43.5,64.2c-0.3,0.3-0.7,0.6-1,0.9c0.4-0.5,0.7-0.9,1.1-1.4C43.5,63.9,43.5,64.1,43.5,64.2z M43.3,66c-0.1,0.1-0.2,0.1-0.3,0.2
				c-0.2,0.1-0.4,0.2-0.6,0.3c-0.2,0.1-0.5,0.2-0.7,0.3c-0.1,0-0.2,0.1-0.2,0.1c-0.1,0-0.1,0-0.2,0c0-0.1,0-0.2,0-0.3
				c0,0,0-0.1-0.1-0.1c0.3-0.4,0.6-0.7,0.8-1.1c0,0,0,0,0,0c0,0,0.1,0.1,0.2,0c0.4-0.3,0.7-0.6,1.1-1C43.4,65.1,43.3,65.5,43.3,66z
				 M42.7,67.1c-0.3,0.2-0.6,0.3-1,0.4l-0.3,0.1l0-0.3c0,0,0-0.1,0-0.1c0.1,0,0.3,0,0.3,0c0.2,0,0.3-0.1,0.5-0.1
				c0.1,0,0.2-0.1,0.3-0.1c0.1,0,0.2-0.1,0.4-0.1c0.3-0.1,0.5-0.2,0.8-0.3C43.3,66.8,43,67,42.7,67.1z M41.2,67
				C41.2,67,41.2,67,41.2,67C41.2,67,41.1,67,41.2,67L41.1,67l0,0c0.1-0.1,0.1-0.1,0.2-0.2C41.2,66.8,41.2,66.9,41.2,67z M40.5,67.4
				C40.4,67.4,40.5,67.4,40.5,67.4C40.5,67.3,40.5,67.4,40.5,67.4z"/>
		</g>
	</g>
</g>
<text transform="matrix(1 0 0 1 0 89.1667)" style="font-family:'Arial-BoldMT'; font-size:5px;">Created by Denis Sazhin</text>
<text transform="matrix(1 0 0 1 0 94.1667)" style="font-family:'Arial-BoldMT'; font-size:5px;">from the Noun Project</text>
</svg>
