<?xml version="1.0" encoding="utf-8"?>
<!-- Generator: Adobe Illustrator 22.1.0, SVG Export Plug-In . SVG Version: 6.00 Build 0)  -->
<svg version="1.1" id="Слой_1" xmlns="http://www.w3.org/2000/svg" xmlns:xlink="http://www.w3.org/1999/xlink" x="0px" y="0px"
	 viewBox="0 0 75 75" style="enable-background:new 0 0 75 75;" xml:space="preserve">
<path marker-start="none" marker-end="none" d="M41.7,72.4H21.8c0.1,0.1,0.2,0.2,0.4,0.3c0,0-0.1,0-0.1,0c-0.2-0.1-0.3-0.2-0.5-0.3
	c0,0,0,0,0,0h-2.6c0,0,0,0.1,0,0.1c0,0.1-0.1,0.1-0.2,0c-0.1,0-0.2-0.1-0.3-0.1h-3.1c-0.1,0-0.1,0-0.2,0c0,0,0,0,0,0h-4.6
	c0,0,0.1,0,0.1,0.1c0.1,0,0.1,0.1,0,0.2c0,0.1-0.1,0.1-0.2,0c-0.1-0.1-0.3-0.2-0.4-0.3H4.5l0,0.1l0,0.1c0,0.1,0,0.3-0.2,0.4
	C4.1,73,3.9,73,3.8,72.8c-0.2-0.3-0.4-0.7-0.6-1c0-0.1-0.1-0.1-0.1-0.2H2.8c-0.2-0.1-0.3-0.2-0.3-0.3l0-0.1l0,0l0,0l0,0H2.4
	c-0.2,0-0.3-0.2-0.3-0.4c0-0.3,0.1-0.7,0.1-1c0-0.1,0-0.1,0-0.2c0-0.2,0-0.5,0.1-0.7c0,0,0-0.1,0.1-0.1c0-0.1,0-0.1,0-0.2
	c-0.3-0.3-0.6-0.5-0.9-0.7l0,0c0.3,0.2,0.6,0.4,0.9,0.7c0,0,0-0.1,0-0.1c0.2-0.6,0.3-1.2,0.5-1.9c0.2-0.9,0.5-1.7,0.8-2.6l0.2-0.7
	l0-0.1c0.1-0.4,0.2-0.8,0.3-1.2C4.6,61.4,4.7,61,5,60.5c0-0.1,0.1-0.1,0.1-0.2l0.1-0.1l0,0c0.1-0.3,0.3-0.6,0.4-0.9
	c0.1-0.2,0.2-0.4,0.3-0.6c0.1-0.2,0.2-0.3,0.2-0.5c0,0,0-0.1-0.1-0.1c-0.1-0.2,0-0.4,0.2-0.4c0,0,0.1,0,0.1-0.1c0,0,0,0,0,0
	c0.1-0.2,0.2-0.5,0.3-0.7c0-0.1,0.1-0.2,0.1-0.2l0,0l0.1-0.1c0,0,0.1-0.1,0.2-0.1c0,0,0,0,0.1,0c0.2,0,0.3,0,0.4,0.1
	c0.1,0.1,0.1,0.3,0.1,0.4l0,0.1c0.2-0.2,0.4-0.3,0.6-0.4C8.6,56.2,9,56,9.5,55.7c0.1-0.1,0.3-0.2,0.4-0.2c0.8-0.4,1.7-0.7,2.6-1
	c0.4-0.1,0.8-0.3,1.2-0.4c1.1-0.5,2.3-1,3.4-1.5c0.7-0.3,1.3-0.6,2-0.9c0.1-0.1,0.3-0.1,0.4-0.2c1.8-0.9,3.6-1.8,5.4-2.7
	c1.2-0.8,2.3-1.7,3.3-2.7c0.1-0.1,0.2-0.2,0.3-0.3c0-0.1,0-0.1,0-0.2c0-1.5,0-2.9-0.2-4.4c0-0.1,0-0.1,0-0.2c0,0,0,0-0.1-0.1
	c-0.1-0.1-0.1-0.1-0.2-0.2c-0.1,0-0.3,0-0.4-0.2c-0.3-0.5-0.7-1-1-1.5c-0.2-0.2-0.3-0.3-0.5-0.5c0,0,0-0.1,0-0.1h0.1
	c0,0,0.1,0.1,0.1,0.1c-0.3-0.5-0.5-1-0.8-1.4c-0.1-0.2-0.2-0.3-0.2-0.5c-0.1-0.1-0.1-0.2-0.2-0.2c-0.1-0.1-0.2-0.2-0.3-0.3
	c-0.1-0.1-0.2-0.1-0.3-0.2c0,0,0,0,0-0.1c0,0,0,0,0.1,0c0,0,0.1,0.1,0.1,0.1c-0.8-1.2-1.5-2.4-2.1-3.7c0,0.2-0.1,0.3-0.3,0.4
	c-0.1,0-0.1,0-0.2,0c-0.1,0-0.3,0-0.4,0l-0.1,0c-0.4,0-0.5,0-0.8-0.3c0,0,0,0-0.1,0c-0.1,0-0.3,0-0.4-0.1c-0.1-0.1-0.3-0.5-0.4-0.7
	c0-0.1-0.1-0.2-0.1-0.3c0,0,0-0.1,0-0.1c-0.3-0.4-0.5-0.9-0.6-1.2l-0.2-0.5l0-0.1c-0.2-0.5-0.3-1-0.5-1.4c-0.4-1.4-0.6-2.7-0.6-4.1
	c0-0.7,0.1-1.4,0.4-2c0.2-0.3,0.3-0.5,0.6-0.7c0.1-0.1,0.2-0.1,0.3-0.2c0.3-0.1,0.6-0.1,0.9,0.1c0-0.2,0-0.3,0-0.5
	c0-0.3,0-0.7,0-1.1c0-0.1,0-0.1,0-0.2c-0.1-0.1-0.2-0.3-0.3-0.5c0,0-0.1-0.1-0.1-0.1c-0.1-0.1-0.1-0.2-0.2-0.4c0-0.1,0-0.2-0.1-0.2
	c0-0.1,0-0.1,0.1-0.2c0.1,0,0.1,0,0.2,0.1c0.1,0.4,0.2,0.7,0.4,0.9c0-0.1,0-0.2,0-0.3c0-0.2-0.1-0.4-0.1-0.5
	c-0.1-0.2-0.1-0.4-0.2-0.6c-0.1-0.5-0.3-1-0.4-1.5c-0.1-0.5-0.3-1.1-0.4-1.7c-0.1-0.2-0.1-0.5-0.2-0.7c-0.1-0.1-0.1-0.1-0.2-0.2
	c0,0,0-0.1,0-0.1c0,0,0.1,0,0.1,0c0,0,0,0,0,0c0-0.1,0-0.1,0-0.2c-0.1-0.8-0.3-1.7-0.3-2.6c-0.1,0-0.1-0.1-0.2-0.1l0,0
	c0,0,0.1,0.1,0.2,0.1c0-0.5,0-1.1,0.1-1.6c0.1-0.7,0.3-1.5,0.6-2.2c0.2-0.4,0.3-0.7,0.5-1c0,0,0-0.1,0-0.1c-0.2-0.2-0.3-0.4-0.5-0.6
	c0,0,0-0.1,0-0.1c0,0,0.1,0,0.1,0C19.8,5,19.9,5.2,20,5.4c0.3-0.4,0.6-0.8,0.9-1.1c-0.2-0.3-0.4-0.6-0.6-0.9c0,0,0-0.1,0-0.1
	c0,0,0.1,0,0.1,0c0.2,0.3,0.3,0.5,0.5,0.8c0,0,0,0,0,0c0.2-0.2,0.4-0.4,0.6-0.6C21.8,3.3,22,3.1,22.3,3c0,0,0,0,0,0c0,0,0-0.1,0-0.1
	c0,0,0.1,0,0.1,0c0,0,0,0,0,0c0,0,0.1-0.1,0.1-0.1c1.2-0.9,2.5-1.5,3.9-2c1.5-0.5,3.4-0.8,5-0.5c0.3,0,0.5,0.1,0.8,0.2
	c0,0,0,0,0.1,0C32.1,0.2,32,0,31.9-0.1c0,0,0-0.1,0-0.1c0,0,0.1,0,0.1,0c0.1,0.2,0.2,0.3,0.4,0.5c0,0,0.1,0,0.1-0.1c0,0,0,0,0,0
	c0-0.1,0-0.1,0.1-0.1c0.1,0,0.2,0,0.3,0c0.2-0.1,0.4-0.2,0.7-0.3c0,0,0-0.1,0-0.1c0-0.1,0.1-0.1,0.2,0c0,0,0.1,0,0.1,0.1
	c0.7-0.2,1.5-0.3,2.2-0.3c0.5,0,0.9,0,1.4,0c0.6,0,1.1,0.1,1.7,0.1c0.4,0,0.8,0,1.2,0c0.9,0,1.8,0.1,2.7,0.3c3.1,0.5,6,1.6,8.3,3.7
	c0.1,0.1,0.1,0.1,0.2,0.2c0.2,0.2,0.3,0.3,0.5,0.5c0.4,0.5,0.8,1.1,1.2,1.6c0.1,0.2,0.2,0.4,0.3,0.6c0.4,0.8,0.7,1.8,1,2.7
	c0.3,1.2,0.4,2.5,0.4,3.7c0,0.4,0,0.7-0.1,1.1c0,0.2,0,0.4-0.1,0.5c-0.1,0.6-0.2,1.3-0.3,1.9c0.1,0.5,0.2,1,0.2,1.4
	c0,0.3,0,0.6,0,0.9c0,0.1,0,0.3,0,0.4c0,0.3,0,0.7,0,1c0,0.1,0,0.3,0,0.4c0,0.1-0.1,0.1-0.1,0.1c-0.1,0-0.1-0.1-0.1-0.1
	c0-0.1,0-0.3,0-0.4c0-0.2,0-0.4,0-0.6c0-0.7-0.1-1.4-0.2-2C54,18,53.9,18.5,53.7,19c-0.1,0.2-0.1,0.3-0.2,0.5c0,0,0,0,0,0
	c0,0.5,0,0.9-0.1,1.4c0,0.2,0,0.4-0.1,0.6c0.1,0,0.3,0,0.3,0.1c0.1,0.1,0.3,0.3,0.4,0.4c0,0,0,0,0,0c0.1,0.1,0.3,0.5,0.4,0.6
	c0,0.1,0,0.2,0.1,0.2c0.1,0.1,0.1,0.4,0.1,0.5c0.1,0.6,0.1,1.1,0.1,1.7c0,0.2,0,0.4,0,0.6c0,0.3,0,0.7-0.1,1
	c-0.1,0.4-0.1,0.8-0.2,1.2c-0.2,1.2-0.6,2.3-1.1,3.4c-0.1,0.2-0.2,0.4-0.3,0.6c-0.3,0.6-0.7,1.1-1.2,1.5c-0.1,0.1-0.2,0.1-0.4,0.2
	c-0.2,0.1-0.4,0-0.5-0.2c-0.1-0.2,0-0.4,0.2-0.5c0.2,0,0.5-0.3,0.6-0.5c0,0,0,0,0,0c0,0,0,0,0,0c-0.2,0-0.3,0-0.5,0
	c0,0,0.1,0.1,0.1,0.1c0.1,0.1,0.1,0.2,0,0.2c-0.1,0.1-0.2,0.1-0.2,0c-0.1-0.1-0.3-0.2-0.4-0.4c-0.3,0.8-0.6,1.6-1.1,2.4
	c-0.1,0.1-0.2,0.2-0.2,0.4c-0.1,0.3-0.2,0.5-0.3,0.8c-0.2,0.5-0.5,1.1-0.7,1.6c-0.3,0.7-0.8,1.4-1.2,2.1c-0.2,0.3-0.5,0.7-0.8,1
	c-0.1,0.1-0.2,0.2-0.3,0.3c-0.1,0.1-0.2,0.2-0.3,0.3c-0.2,0.2-0.3,0.3-0.5,0.5c0,0.1,0,0.2,0,0.2c0,1.4,0.2,2.9,0.3,4.3l0,0.1
	l0.1,0.4l0,0c0.3,0.2,0.6,0.5,0.9,0.7c0.3,0.2,0.7,0.5,1,0.7c0.6,0.4,1.2,0.8,1.8,1.2c0.5,0.3,0.9,0.6,1.4,0.8
	c0.3,0.2,0.6,0.3,1,0.5c1.1,0.4,2.2,0.8,3.3,1.3c0.5,0.2,1,0.4,1.5,0.6c0.2,0.1,0.4,0.1,0.6,0.2c0.3,0.1,0.7,0.3,1,0.4
	c0.5,0.2,0.9,0.4,1.4,0.7c0.2,0.1,0.4,0.2,0.6,0.3c0.2,0.1,0.3,0.2,0.5,0.3c0.1,0,0.3,0.1,0.4,0.1c0,0,0-0.1,0-0.2
	c0-0.1,0.1-0.1,0.2-0.1c0.3,0.2,0.6,0.3,0.9,0.5c0,0,0,0,0,0c0.6,0.1,1.2,0.3,1.7,0.4c0.5,0.1,1.1,0.3,1.6,0.5
	c0.2,0,0.3,0.2,0.2,0.4c0,0.2-0.2,0.3-0.4,0.2c-0.1,0-0.2,0-0.2,0c0.4,0.1,0.7,0.3,1.1,0.4c0.1,0,0.1,0.1,0.2,0.2
	c0-0.2,0.2-0.3,0.3-0.3h0.1c0.1,0,0.2,0,0.2,0.1l0.1,0.1l0,0l0,0c0.2,0.2,0.3,0.5,0.5,0.7l0.3,0.6l0.3,0.4l0.3,0.2
	c0.2,0.2,0.4,0.4,0.6,0.6c0.1,0.1,0.2,0.2,0.3,0.3c0.2,0.3,0.4,0.6,0.6,0.9c0.3,0.5,0.6,0.9,0.8,1.4c0.2,0.3,0.3,0.7,0.4,1
	c0.1,0.3,0.2,0.7,0.3,1c0.1,0.3,0.2,0.7,0.3,1l0,0.2l0.5,1.1c0.1,0.2,0.2,0.4,0.3,0.7c0,0.1,0.1,0.2,0.1,0.3c0.1,0.1,0,0.3,0,0.4
	l0,0.1c0,0,0,0,0,0c0,0,0,0,0,0c0.1,0,0.1,0.2,0.1,0.2c0,0.1-0.2,0.1-0.2,0.1c-0.1,0-0.2-0.1-0.3-0.1l0.1,0.7c0.1,0.5,0.2,1,0.2,1.5
	c0,0.1,0,0.3,0,0.4c0.1,0.1,0.3,0.1,0.4,0.2c0.1,0.1,0.1,0.2,0.1,0.3c-0.1,0.1-0.2,0.1-0.3,0.1c-0.1-0.1-0.3-0.2-0.4-0.2
	c-0.1,0.1-0.3,0.1-0.5,0c0,0-0.1,0-0.1-0.1l-0.1-0.2l0-0.1c0,0,0,0,0,0c0,0.1,0,0.1-0.1,0.2c0,0.1-0.1,0.3-0.1,0.4
	c0,0.1-0.1,0.2-0.1,0.3c-0.1,0.2-0.1,0.3-0.2,0.5c0.2,0,0.3,0.2,0.3,0.4c0,0.2-0.1,0.4-0.3,0.4c0,0,0,0,0,0
	c-0.1,0.1-0.2,0.1-0.3,0.1c0,0,0,0-0.1,0H62c-0.1,0.1-0.2,0.1-0.2,0c0,0,0,0,0,0H56c0,0,0,0.1,0,0.1c-0.1,0.1-0.2,0.1-0.3,0
	c-0.1-0.1-0.2-0.1-0.3-0.2h-1.6c0.1,0.1,0.3,0.1,0.4,0.2c0.1,0,0.1,0.1,0.1,0.2c0,0.1-0.1,0.1-0.2,0.1c-0.3-0.1-0.6-0.3-0.9-0.4
	h-2.5c0,0,0,0,0,0c0.3,0.2,0.7,0.3,1,0.5c0.1,0,0.1,0.1,0.1,0.2c0,0.1-0.1,0.1-0.2,0.1c-0.6-0.2-1.1-0.5-1.6-0.8h-1.9
	c0,0,0,0.1,0,0.1c0,0-0.1,0.1-0.1,0c-0.1,0-0.2-0.1-0.3-0.1h-3c0.2,0.1,0.4,0.2,0.5,0.3c0.1,0,0.1,0.2,0.1,0.2
	c0,0.1-0.2,0.1-0.2,0.1c-0.3-0.2-0.7-0.4-1-0.6h-2.1c0.3,0.2,0.7,0.4,1,0.7c0.1,0,0.1,0.1,0,0.2c0,0.1-0.1,0.1-0.2,0
	C42.5,73,42.1,72.7,41.7,72.4z M4.2,70.3c-0.2-0.2-0.5-0.5-0.7-0.7c0,0.2,0,0.3-0.1,0.5l0.2,0.2c0.3,0.4,0.6,0.7,1,1.1
	c0.1,0.1,0.2,0.2,0.3,0.3h0.6C5.1,71.2,4.7,70.7,4.2,70.3z M4.3,68.6C4.1,68.4,4,68.2,3.8,68c-0.1,0.4-0.1,0.9-0.2,1.3v0
	c0,0,0,0,0,0c0.3,0.3,0.6,0.6,0.9,0.9c0.3,0.3,0.7,0.7,1.1,1c0.1,0.1,0.3,0.2,0.4,0.3h1.4C6.2,70.7,5.2,69.7,4.3,68.6z M8.2,70.8
	c-0.7-0.6-1.4-1.2-2-1.8c-0.8-0.7-1.5-1.5-2.2-2.3c-0.1,0.4-0.1,0.8-0.2,1.1C3.9,68,4,68.1,4,68.2c0.3,0.3,0.6,0.7,0.9,1
	c0.6,0.6,1.1,1.1,1.8,1.7c0.3,0.3,0.6,0.5,1,0.8h1.5C8.9,71.4,8.5,71.1,8.2,70.8z M9.3,69.8c-0.5-0.4-1-0.8-1.4-1.2
	c-1.2-1.1-2.4-2.2-3.4-3.4c0,0,0,0,0,0.1l-0.2,0.6l-0.1,0.3c0,0.2-0.1,0.3-0.1,0.5c1,1.3,2.3,2.3,3.5,3.4c0.4,0.3,0.8,0.7,1.2,1
	c0.2,0.1,0.3,0.2,0.5,0.4c0.1,0.1,0.2,0.2,0.3,0.3h1.9C10.8,71,10,70.4,9.3,69.8z M11.9,69.8c-2.2-1.7-4.3-3.7-6.1-5.8l0,0
	c0.6,0.7,1.2,1.3,1.8,1.9c0.7,0.6,1.3,1.3,2,1.9c1.4,1.2,3,2.4,4.5,3.5c0.1,0.1,0.3,0.2,0.4,0.3h2.6c-0.6-0.5-1.3-0.9-1.9-1.4
	c-0.5-0.4-1-0.8-1.5-1.3c-1.4-1.2-2.6-2.5-3.8-3.9c0,0,0-0.1,0-0.1c0,0,0.1,0,0.1,0c0.4,0.5,0.8,0.9,1.3,1.4
	c0.8,0.9,1.8,1.7,2.7,2.5c0.7,0.6,1.5,1.2,2.2,1.7c0.5,0.3,0.9,0.7,1.4,1h2.6c-0.2-0.1-0.4-0.2-0.5-0.4c-0.2-0.2-0.5-0.3-0.7-0.5
	c-1.1-0.8-2.2-1.7-3.2-2.6c-0.4-0.3-0.7-0.7-1.1-1.1c-0.5-0.5-1-1.2-1.5-1.8c0,0,0-0.1,0-0.1c0,0,0.1,0,0.1,0c0.9,1.1,1.9,2.2,3,3.1
	c0.4,0.3,0.8,0.7,1.2,1c0.1,0.1,0.2,0.2,0.3,0.3c0.3,0.3,0.7,0.5,1.1,0.8c0.6,0.4,1.2,0.8,1.8,1.3H24c-1.1-0.8-2.1-1.6-3.1-2.5
	c-0.5-0.4-1-0.9-1.5-1.4c-0.2-0.2-0.3-0.3-0.5-0.5c-0.6-0.6-1.2-1.1-1.8-1.7c0,0,0-0.1,0-0.1c0,0,0.1,0,0.1,0
	c0.4,0.4,0.9,0.9,1.4,1.3c0.7,0.6,1.3,1.2,2,1.8c0.3,0.3,0.6,0.5,0.9,0.8c0.4,0.4,0.9,0.7,1.4,1.1c0.5,0.4,1.1,0.8,1.6,1.1
	c0,0,0,0,0,0h8.7c-0.6-0.4-1.1-0.7-1.7-1.1c-0.5-0.3-1-0.7-1.5-1.1c-1.4-1.1-2.7-2.3-3.8-3.6c0,0,0-0.1,0-0.1c0,0,0.1,0,0.1,0
	c2,2.3,4.6,4.2,7.2,5.8c0.1,0,0.1,0.1,0.1,0.2H37c-0.1,0-0.1-0.1-0.2-0.1c-1.2-0.9-2.4-1.8-3.5-2.8c-0.8-0.7-1.7-1.4-2.4-2.2
	c-0.2-0.2-0.4-0.5-0.6-0.7c0,0,0-0.1,0-0.1c0,0,0.1,0,0.1,0c0.9,1.1,2,2,3,2.9c0.3,0.2,0.5,0.4,0.8,0.6c0.5,0.4,0.9,0.7,1.4,1.1
	c0.5,0.3,0.9,0.7,1.4,1c0.1,0.1,0.3,0.2,0.4,0.3h3.1c0,0-0.1-0.1-0.1-0.1c-0.3-0.2-0.6-0.4-0.8-0.6c-0.5-0.3-0.9-0.7-1.4-1
	c-1.9-1.4-3.7-3-5.2-4.8l0,0c1.3,1.6,2.9,3,4.5,4.1c0.4,0.3,0.8,0.6,1.1,0.8c0.5,0.3,1,0.7,1.5,1c0.2,0.2,0.5,0.3,0.7,0.5H43
	c-1-0.8-2-1.6-3-2.5c-0.5-0.5-1-0.9-1.5-1.4c-0.3-0.3-0.5-0.5-0.8-0.8c-0.5-0.5-1-1-1.5-1.5c0,0,0-0.1,0-0.1c0,0,0.1,0,0.1,0
	c1.6,1.6,3.1,3.2,4.9,4.6c0.6,0.5,1.2,1,1.9,1.4c0.2,0.1,0.3,0.2,0.5,0.3h2.7c-0.2-0.1-0.4-0.2-0.6-0.3c-0.5-0.3-1.1-0.7-1.6-1.1
	c-1.6-1.2-2.9-2.4-4.2-4c0,0,0-0.1,0-0.1c0,0,0.1,0,0.1,0c1.4,1.8,3.2,3.3,5.2,4.6c0.5,0.3,1,0.6,1.5,0.9h2
	c-0.2-0.1-0.5-0.3-0.7-0.5c-0.7-0.5-1.4-1.1-2.1-1.6c-1.2-1.1-2.3-2.2-3.4-3.5c0,0,0-0.1,0-0.1c0,0,0.1,0,0.1,0
	c1.8,2.1,3.9,4,6.3,5.4c0.1,0.1,0.2,0.1,0.3,0.2h2.6c-0.1-0.1-0.2-0.1-0.3-0.2c-0.6-0.4-1.2-0.8-1.8-1.2c-0.6-0.4-1.1-0.8-1.6-1.3
	c-0.1-0.1-0.2-0.2-0.3-0.3c-0.3-0.3-0.6-0.6-0.9-1c-0.3-0.4-0.6-0.8-0.9-1.2c-0.1-0.2-0.2-0.3-0.3-0.5c0,0,0-0.1,0-0.1
	c0,0,0.1,0,0.1,0c0.1,0.2,0.3,0.5,0.5,0.7c0.2,0.2,0.3,0.5,0.5,0.7c0.1,0.1,0.1,0.2,0.2,0.3c0.2,0.3,0.5,0.5,0.7,0.7
	c1.4,1.3,3,2.4,4.7,3.2h2c-0.2-0.2-0.5-0.4-0.7-0.5c-0.4-0.3-0.9-0.7-1.3-1c-0.7-0.5-1.4-1.1-2-1.7c-1.5-1.3-3-2.6-4.6-3.8
	c0,0-0.1-0.1,0-0.2c0,0,0.1-0.1,0.2,0c1.1,0.9,2.3,1.9,3.4,2.8c0.6,0.5,1.2,1,1.9,1.5c0.4,0.3,0.8,0.7,1.3,1
	c0.3,0.2,0.6,0.5,0.9,0.7c0.5,0.4,1.1,0.8,1.6,1.2h3.3c-0.5-0.3-0.9-0.6-1.4-0.9c-0.3-0.2-0.5-0.4-0.8-0.5c-0.7-0.5-1.3-1-1.9-1.5
	c-0.9-0.7-1.8-1.5-2.7-2.3c-0.4-0.4-0.8-0.7-1.3-1.1c-0.4-0.4-0.9-0.8-1.3-1.2l0-0.1l0.1,0c1.2,1.2,2.5,2.3,3.8,3.3
	c0.4,0.3,0.8,0.7,1.2,1c0.4,0.3,0.7,0.5,1.1,0.8c1.2,0.8,2.3,1.7,3.6,2.4h1.8c-0.4-0.3-0.8-0.6-1.2-1c-1-0.8-1.9-1.6-2.8-2.4
	c-1.9-1.7-3.7-3.6-5.4-5.6l0-0.1l0.1,0c1.9,2.3,4.1,4.4,6.4,6.3c1,0.8,2,1.6,3,2.3c0.2,0.1,0.4,0.3,0.5,0.4h2.6
	c-0.1-0.1-0.3-0.2-0.4-0.2c-1.3-0.8-2.6-1.7-3.7-2.8c-1.6-1.5-3.1-3.1-4.6-4.8c-0.5-0.6-1-1.2-1.5-1.8c0,0,0-0.1,0-0.1
	c0,0,0.1,0,0.1,0c1.7,2,3.4,3.9,5.3,5.7c0.7,0.6,1.4,1.2,2.1,1.8c0.2,0.1,0.3,0.2,0.5,0.3c1,0.7,1.9,1.4,3,1.9c0,0,0,0,0.1,0.1h2.6
	c-1.2-0.9-2.5-1.8-3.7-2.7c-1-0.8-2-1.6-3-2.5c-0.5-0.5-1-0.9-1.5-1.4c-0.8-0.7-1.5-1.5-2.2-2.3c-0.6-0.6-1.1-1.3-1.6-2
	c0,0,0-0.1,0-0.1c0,0,0.1,0,0.1,0c0.4,0.6,0.8,1.1,1.3,1.6c0.4,0.4,0.7,0.8,1.1,1.2c0.4,0.4,0.7,0.7,1.1,1.1c1,1,2.1,1.9,3.2,2.7
	c1.9,1.5,3.8,2.8,5.7,4.2c0,0,0,0,0,0h2.3c-0.5-0.3-1-0.7-1.4-1c-0.2-0.2-0.4-0.3-0.7-0.5c-0.5-0.3-0.9-0.7-1.3-1
	c-1.9-1.5-3.7-3.1-5.5-4.8c-1.3-1.3-2.7-2.5-4-3.9v-0.1h0.1c1.1,1.1,2.2,2.2,3.4,3.2c1.1,1,2.2,1.9,3.3,2.9c0.7,0.6,1.4,1.1,2.2,1.7
	c0.4,0.3,0.8,0.6,1.2,0.9c0.8,0.6,1.7,1.2,2.5,1.8c0.2,0.1,0.4,0.3,0.6,0.4c0-0.1,0-0.2,0-0.3c0-0.1,0.1-0.2,0.1-0.4
	c0.1-0.4,0.2-0.9,0.4-1.3c-2.3-1.5-4.3-3.3-6.4-5c-0.6-0.6-1.3-1.1-1.9-1.7c-1.2-1-2.4-2.1-3.6-3.1l0-0.1c1.3,1.1,2.7,2.3,4,3.4
	c2.2,1.9,4.5,3.8,7,5.4c0.3,0.2,0.7,0.5,1.1,0.7c0.1-0.2,0.2-0.3,0.2-0.4c0-0.1,0.1-0.1,0.1-0.2l0.1-0.1c0-0.1,0-0.1-0.1-0.2
	c0-0.1-0.1-0.3-0.2-0.4c-0.1-0.2-0.2-0.3-0.4-0.4c-0.1-0.1-0.1-0.2,0-0.3c0.1,0,0.1-0.1,0.2,0c0,0,0-0.1,0-0.1
	c-0.2-0.1-0.3-0.2-0.5-0.3c-0.7-0.4-1.4-0.9-2.1-1.4c-2.3-1.6-4.4-3.3-6.5-5L60.1,59l0,0l-0.1,0c-0.2-0.2-0.4-0.3-0.5-0.5
	c0,0-0.1,0-0.1-0.1l0,0c0,0,0,0,0-0.1h0.1l0.1,0.1c0.1,0,0.1,0.1,0.1,0.1c0.3,0.2,0.5,0.4,0.8,0.6c1.3,1,2.6,1.9,3.9,2.9
	c1.2,0.9,2.4,1.8,3.7,2.6c0.6,0.4,1.1,0.8,1.7,1.1c0.3,0.2,0.6,0.4,0.9,0.6c-0.1-0.2-0.1-0.4-0.2-0.6c-0.3-1-0.7-1.9-1.1-2.8
	l-0.7-1.5l-0.3-0.6c0,0,0,0,0,0c-0.2-0.1-0.5-0.3-0.7-0.4c0.2,0.2,0.5,0.3,0.7,0.4l0,0l-0.1-0.2c-0.2-0.3-0.3-0.6-0.5-0.9
	c-0.1-0.2-0.2-0.3-0.3-0.5c-0.1-0.1-0.1-0.2,0-0.3l0,0l-0.3-0.6l0,0c-0.1-0.1-0.2-0.2-0.3-0.3c-0.2-0.1-0.3-0.2-0.5-0.4
	c-0.1,0.1-0.3,0.1-0.4,0c-0.6-0.3-1.3-0.5-1.9-0.8c0.6,0.6,1.2,1.3,1.6,2.1c0.4,0.7,0.6,1.4,0.8,2.1c0,0,0,0.1,0,0.1
	c0.4,0.3,0.7,0.5,1.1,0.8c0.3,0.2,0.5,0.4,0.8,0.6c0.1,0.1,0.1,0.2,0,0.3c-0.1,0.1-0.2,0.1-0.3,0c-0.8-0.7-1.7-1.3-2.5-2
	c-0.4-0.3-0.7-0.5-1.1-0.8c-0.4-0.3-0.8-0.6-1.1-0.9L63.1,59l0,0l0,0c0,0-0.1,0-0.1,0c-0.2-0.2-0.4-0.5-0.6-0.7l-0.1-0.1l-0.1-0.1
	c0,0-0.2-0.2-0.3-0.3l0,0l0,0l0,0c0-0.1,0.1-0.1,0.1,0l0.1,0.1l0,0l0.1,0.1l0.3,0.3c1,1,2.2,1.8,3.4,2.6c0.1,0.1,0.2,0.2,0.3,0.2
	c-0.1-0.3-0.2-0.6-0.3-0.9c-0.1-0.3-0.3-0.6-0.4-0.9c-0.1-0.2-0.2-0.4-0.3-0.5c-0.2-0.3-0.5-0.7-0.8-1c-0.1-0.1-0.1-0.1-0.2-0.2
	c-0.1-0.1-0.2-0.2-0.3-0.3c-0.2-0.2-0.3-0.3-0.5-0.5c-0.2-0.1-0.5-0.2-0.7-0.3c-0.3-0.1-0.7-0.3-1-0.4c-0.9-0.4-1.8-0.7-2.7-1.1
	c0,0,0,0,0,0c-2.4-0.7-4.8-1.4-7.2-2.4c-0.7-0.3-1.5-0.6-2.2-1c-0.5-0.3-1.1-0.6-1.6-0.8c-0.3-0.2-0.6-0.4-0.9-0.5
	c-0.5-0.3-1-0.6-1.5-1c-0.1-0.1-0.1-0.2-0.1-0.3c0.1-0.1,0.2-0.1,0.3-0.1c1.5,1.1,3.1,1.9,4.8,2.7c-0.7-0.3-1.4-0.7-2.1-1.1
	c-0.7-0.4-1.3-0.7-1.9-1.2c-0.2-0.1-0.4-0.3-0.6-0.4c-0.3-0.2-0.6-0.4-0.8-0.6C45.1,48,45,48,45,48c0,0-0.1-0.1-0.1-0.1
	c0,0,0,0.1,0,0.1c0,0.1-0.1,0.2-0.2,0.2c-0.1,0-0.2-0.1-0.2-0.2c0-0.2-0.1-0.4-0.1-0.6c-0.1-0.1-0.1-0.1-0.2-0.2c0,0,0-0.1,0-0.1
	c0,0,0.1,0,0.1,0c0,0,0-0.1,0-0.1c-0.4-0.4-0.9-0.8-1.3-1.1c-0.7-0.6-1.5-1.1-2.2-1.7c-0.2-0.1-0.4-0.3-0.5-0.4
	c-0.1,0-0.3,0.1-0.4,0.1c-0.4,0.1-0.9,0.3-1.3,0.4c-0.2,0.1-0.5,0.1-0.7,0.1c-0.1,0-0.2,0-0.2-0.1c0-0.1,0-0.2,0.1-0.2
	c0.2,0,0.5-0.1,0.7-0.2c0.5-0.1,0.9-0.3,1.4-0.4c-0.1-0.1-0.2-0.1-0.3-0.2c-0.3,0.1-0.5,0.2-0.8,0.2c-0.2,0.1-0.5,0.1-0.7,0.1
	c-0.1,0-0.2,0-0.2-0.1c0-0.1,0-0.2,0.1-0.2c0.4-0.1,0.7-0.2,1.1-0.3c0,0,0.1,0,0.1,0c-0.1,0-0.1-0.1-0.2-0.1
	c-0.3-0.2-0.6-0.3-0.8-0.5l0-0.1l0.1,0c0.3,0.2,0.6,0.3,0.8,0.5c0.1,0.1,0.2,0.1,0.2,0.1c0.3-0.1,0.7-0.2,1-0.4
	c-0.2-0.2-0.5-0.3-0.7-0.5c-0.3-0.2-0.7-0.5-1-0.7c-0.2-0.1-0.4-0.2-0.5-0.3c0,0,0,0,0-0.1c0,0,0,0,0.1,0c0.3,0.2,0.6,0.3,0.9,0.5
	c0.5,0.3,1,0.7,1.5,1c0.4-0.2,0.7-0.4,1.1-0.6c-0.3-0.3-0.7-0.5-1-0.8c-0.4-0.3-0.7-0.5-1.1-0.8c0,0,0,0,0-0.1c0,0,0,0,0.1,0
	c0.4,0.3,0.8,0.6,1.2,1c0.3,0.2,0.6,0.5,0.9,0.7c0.4-0.2,0.8-0.5,1.2-0.8c0,0,0.1-0.1,0.1-0.1c0,0,0,0,0,0c-0.1,0-0.1,0.1-0.2,0.1
	c0,0-0.1,0-0.1,0c0,0,0-0.1,0-0.1c0,0,0.1,0,0.1,0c0,0,0,0,0,0c-0.5-0.4-1.1-0.9-1.6-1.3c-0.3-0.2-0.6-0.4-0.9-0.6c0,0,0,0,0-0.1
	c0,0,0,0,0.1,0c0.1,0.1,0.2,0.1,0.4,0.2c0.3,0.2,0.6,0.4,0.9,0.6c0.2,0.1,0.4,0.3,0.6,0.4c0.3,0.2,0.5,0.4,0.8,0.6
	c0,0,0.1,0,0.1,0.1c0.4-0.2,0.7-0.4,1.1-0.6c0-0.1,0-0.2,0-0.3c-0.3-0.2-0.5-0.4-0.8-0.6c-0.2-0.2-0.5-0.4-0.7-0.6
	c-0.5-0.5-1-0.9-1.6-1.3c0,0,0-0.1,0-0.1c0,0,0.1,0,0.1,0c0.2,0.1,0.4,0.3,0.6,0.4c0.3,0.2,0.6,0.5,1,0.8c0.3,0.2,0.5,0.4,0.8,0.7
	c0.2,0.2,0.5,0.4,0.7,0.6c0,0,0,0,0,0c0,0,0-0.1,0-0.1c0-0.1,0.2-0.1,0.2,0c0.1,0,0.1,0.2,0.1,0.3c0,0,0,0.1,0,0.1
	c0.1-0.1,0.2-0.2,0.4-0.3c0-0.1,0-0.3,0-0.4c0-0.2,0.2-0.3,0.3-0.3c0.1,0,0.2,0.1,0.2,0.1c0.1-0.1,0.1-0.1,0.2-0.2
	c0.1-0.1,0.1-0.1,0.2-0.2c0,0,0,0-0.1,0c-0.4-0.2-0.8-0.5-1.2-0.7c-0.3-0.2-0.6-0.4-0.8-0.6c-0.4-0.3-0.8-0.6-1.1-0.8
	c-0.4-0.3-0.7-0.5-1.1-0.8c-0.1,0-0.1-0.1,0-0.2c0-0.1,0.1-0.1,0.2,0c1.3,1,2.8,2,4.2,2.9c0.1,0,0.1,0.1,0.1,0.1
	c0.2-0.2,0.4-0.3,0.6-0.5c0,0,0.1-0.1,0.1-0.1c0-0.1,0.1-0.1,0.1-0.2c0.1-0.1,0.2-0.3,0.3-0.4c0,0,0.1-0.1,0.1-0.1
	c0.2-0.3,0.4-0.6,0.5-0.9c0,0,0-0.1,0.1-0.1C48,36,48,36,47.9,35.9c-0.9-0.6-1.8-1.3-2.5-2c-0.4-0.4-0.9-0.8-1.2-1.2
	c0,0,0-0.1,0-0.1c0,0,0.1,0,0.1,0c0.4,0.4,0.8,0.8,1.2,1.1c0.5,0.4,0.9,0.8,1.4,1.2c0.4,0.3,0.7,0.5,1.1,0.7
	c0.1,0.1,0.2,0.1,0.3,0.2c0,0,0-0.1,0-0.1l0.1-0.2l0.2-0.6c-0.1-0.1-0.2-0.2-0.3-0.2c-0.1-0.1-0.3-0.2-0.4-0.3
	c-0.2-0.2-0.4-0.3-0.6-0.5c-0.7-0.6-1.3-1.3-2-1.9c0,0,0-0.1,0-0.1c0,0,0.1,0,0.1,0c0.3,0.3,0.6,0.6,0.9,0.9
	c0.8,0.7,1.5,1.4,2.4,1.9c0.2-0.4,0.3-0.8,0.5-1.3c-0.5-0.3-1-0.7-1.4-1.1c-0.3-0.2-0.6-0.5-0.9-0.8c-0.1-0.1-0.2-0.2-0.3-0.3
	c-0.1-0.1-0.3-0.2-0.4-0.4c-0.1-0.1-0.3-0.3-0.5-0.5c0,0,0-0.1,0-0.2c0,0,0.1,0,0.2,0c0.7,0.7,1.4,1.3,2.1,1.9
	c0.4,0.3,0.8,0.7,1.3,1c0.1-0.2,0.1-0.4,0.2-0.6c0.1-0.2,0.2-0.4,0.3-0.7l0,0l0.1-0.1c0,0,0,0-0.1,0c-0.4-0.3-0.8-0.5-1.2-0.8
	c-0.2-0.1-0.3-0.2-0.5-0.3c-0.3-0.2-0.7-0.5-1-0.7c0,0,0-0.1,0-0.1c0,0,0.1,0,0.1,0c0.1,0.1,0.3,0.2,0.5,0.3
	c0.4,0.2,0.8,0.5,1.1,0.7c0.4,0.3,0.9,0.5,1.3,0.8c0.1,0,0.2,0,0.3,0l0.1,0l0.1,0.1c0,0.1,0.1,0.1,0.1,0.2c0,0,0,0,0,0
	c0-0.1,0-0.2,0.1-0.3c0,0,0.1-0.1,0.2-0.1c0.1,0,0.2-0.1,0.3-0.1c0,0,0.1-0.1,0.2-0.1c0,0,0.1-0.1,0.1-0.1c0.3-0.2,0.4-0.4,0.6-0.6
	c-0.4-0.3-0.7-0.5-1.1-0.8c-0.5-0.4-0.9-0.7-1.4-1.1c-0.3-0.3-0.7-0.6-1-1c0,0,0-0.1,0-0.1s0.1,0,0.1,0c0.1,0.1,0.2,0.2,0.3,0.3
	c0.2,0.2,0.4,0.4,0.7,0.6c0.3,0.3,0.6,0.5,1,0.8c-0.1-0.1-0.2-0.2-0.3-0.3c-0.3-0.3-0.7-0.6-0.9-1c0-0.1,0-0.2,0-0.2
	c0.1,0,0.2,0,0.2,0c0.2,0.4,0.5,0.6,0.8,0.9c0.2,0.2,0.4,0.3,0.5,0.5c0.1,0.1,0.1,0.2,0,0.3c0,0-0.1,0.1-0.1,0.1
	c0.3,0.2,0.6,0.4,0.9,0.6c0.1,0.1,0.2,0.1,0.3,0.2c0.1-0.1,0.2-0.3,0.3-0.4l0.1-0.3l0.1-0.5c-0.1,0-0.1-0.1-0.2-0.1
	c-0.1,0-0.2-0.1-0.3-0.1c-0.3-0.1-0.6-0.3-0.9-0.5c-0.1-0.1-0.3-0.2-0.5-0.3c-0.2-0.2-0.4-0.3-0.6-0.5c-0.2-0.1-0.3-0.3-0.5-0.4
	c-0.2-0.2-0.4-0.3-0.6-0.4c-0.2-0.1-0.4-0.2-0.6-0.3c-0.2-0.1-0.5-0.2-0.7-0.3c-0.1,0-0.1-0.1-0.1-0.2c0-0.1,0.1-0.1,0.2-0.1
	c0.6,0.2,1.2,0.4,1.7,0.8c0.2,0.1,0.3,0.2,0.5,0.3c0,0,0,0,0-0.1c0.1-0.1,0.2-0.1,0.2,0c0,0,0.3,0.3,0.3,0.3
	c0.1,0.1,0.2,0.2,0.4,0.3c0.1,0.1,0.2,0.2,0.3,0.3c0,0,0.2,0.1,0.2,0.2c0.1,0.1,0.3,0.2,0.4,0.3c0.3,0.2,0.6,0.3,0.9,0.4l0,0
	l0.2-0.9c0-0.1,0.1-0.2,0.2-0.3l0.1,0l0-0.2c0.2-1,0.3-2,0.3-2.9c0-0.3,0-0.6-0.1-0.9c0-0.2-0.1-0.4-0.1-0.5c0-0.1-0.1-0.4-0.2-0.6
	c0,0,0-0.1,0-0.1h-0.1l0,0c0,0,0,0.1,0,0.1c-0.1,0.6-0.2,1.2-0.3,1.8c0,0,0,0,0,0c0.1,0.1,0.1,0.2,0,0.3c0,0-0.1,0.1-0.1,0.1
	c0,0.3-0.1,0.5-0.1,0.8c0,0,0,0.1-0.1,0.1c0,0-0.1-0.1-0.1-0.1c0,0,0-0.1,0-0.1c0,0-0.1,0-0.1,0c0,0.1,0,0.1-0.1,0.2H52
	c-0.6-0.6-1.2-1.3-1.9-1.9c0,0,0,0-0.1-0.1c-0.8-0.6-1.6-1.2-2.3-1.9c0,0,0-0.1,0-0.1c0,0,0.1,0,0.1,0c0.7,0.7,1.5,1.3,2.2,1.8
	c0,0,0,0,0,0h0.3c0.4,0.4,0.7,0.7,1.1,1.1c0.3,0.2,0.7,0.5,1,0.7c0,0,0,0,0,0c0-0.2,0-0.3,0.1-0.5c0,0,0,0,0,0c0,0-0.1-0.1-0.1-0.1
	c-0.1-0.1-0.2-0.1-0.3-0.2c-0.6-0.3-1-0.5-1.3-1.1c-0.1,0-0.1,0-0.2-0.1c-0.1-0.1-0.1-0.3,0-0.5c0.2-0.2,0.3-0.4,0.5-0.5
	c0,0,0,0,0,0c0,0,0,0,0,0c-0.2-0.1-0.4-0.2-0.5-0.4c-0.6-0.4-1.1-0.9-1.7-1.3c-0.6-0.5-1.3-1-1.9-1.5c-0.1,0-0.1-0.1,0-0.2
	c0-0.1,0.1-0.1,0.2,0c0.8,0.7,1.7,1.3,2.5,2c0.5,0.3,0.9,0.7,1.4,1c0.1-0.6,0.2-1.2,0.3-1.8c-0.5-0.4-1-0.8-1.5-1.3
	c-0.3-0.3-0.6-0.6-0.9-0.9c-0.4-0.4-0.8-0.8-1.2-1.1c-0.2-0.2-0.5-0.3-0.7-0.5c0,0,0,0,0-0.1c0,0,0,0,0.1,0c0.2,0.2,0.4,0.3,0.6,0.5
	c0.4,0.3,0.9,0.7,1.3,1.1c0.8,0.7,1.5,1.4,2.4,2c0,0,0-0.1,0-0.1c0-0.1,0-0.2,0-0.2c0-0.1,0.1-0.2,0.1-0.2c0.1-0.3,0.1-0.6,0.2-0.9
	c-0.3-0.2-0.6-0.5-0.8-0.7c-0.2-0.2-0.4-0.4-0.6-0.6c-0.4-0.5-0.9-0.9-1.4-1.3c-0.2-0.1-0.3-0.2-0.5-0.4c-0.2-0.1-0.4-0.3-0.6-0.4
	c0,0,0,0,0-0.1c0,0,0,0,0.1,0c0.1,0.1,0.2,0.1,0.3,0.2c0.1,0.1,0.2,0.1,0.3,0.2c0.1,0.1,0.3,0.2,0.4,0.3c0.3,0.2,0.5,0.4,0.8,0.6
	c0.4,0.4,0.9,0.8,1.3,1.2c0.3,0.3,0.6,0.5,0.9,0.7c0-0.2,0.1-0.5,0.2-0.7c0.1-0.4,0.2-0.8,0.2-1.2c-0.1-0.1-0.3-0.3-0.4-0.4
	c-0.3-0.3-0.6-0.6-1-0.8c-0.4-0.4-0.9-0.7-1.3-1.1c-0.4-0.3-0.8-0.7-1-1.1c0,0,0-0.1,0-0.2c0,0,0.1,0,0.2,0c0.7,0.8,1.5,1.4,2.3,2
	c0.2,0.2,0.4,0.3,0.6,0.5c0.3,0.2,0.5,0.4,0.8,0.6c0.1-0.5,0.2-0.9,0.2-1.4c0.1-0.4,0.1-0.9,0.1-1.3c0-0.2,0-0.5,0-0.7l0-0.1h-0.2
	c-0.1-0.2-0.3-0.3-0.4-0.5c0,0,0,0-0.1,0.1c-0.1,0-0.1,0-0.2,0l0,0l0,0l0,0l0,0l0,0l0,0l0,0l0.1-0.1c0,0,0-0.1,0-0.1
	c-0.7-0.7-1.4-1.5-2.4-1.9c-0.2-0.1-0.4-0.1-0.5-0.2c0,0-0.1,0,0-0.1c0,0,0-0.1,0.1,0c0.1,0,0.2,0.1,0.3,0.1c0.1,0,0.2,0.1,0.3,0.1
	c0.3,0.1,0.6,0.3,0.8,0.4c0.3,0.2,0.7,0.4,0.9,0.6c0.3,0.2,0.5,0.4,0.7,0.6c0.2,0.2,0.5,0.4,0.7,0.6l0-0.1l0-0.1
	c0-0.2,0-0.5-0.1-0.7c0-0.2,0-0.5-0.1-0.7c-0.1-0.3-0.1-0.6-0.1-0.8c0-0.1,0-0.2-0.1-0.2c-0.4-0.3-0.8-0.7-1.2-1.1
	c-0.2-0.1-0.3-0.3-0.4-0.5c-0.1-0.1-0.1-0.1-0.2-0.2c-0.2-0.2-0.4-0.4-0.6-0.6c-0.2-0.2-0.4-0.3-0.6-0.4c-0.1-0.1-0.2-0.1-0.3-0.1
	c-0.1,0-0.1-0.1-0.1-0.2c0-0.1,0.1-0.1,0.2-0.1c0.1,0.1,0.3,0.1,0.4,0.2c0.3,0.2,0.5,0.3,0.8,0.6c0.4,0.3,0.7,0.6,1,0.9
	c0.1,0.1,0.3,0.3,0.4,0.4c0.2,0.2,0.4,0.3,0.5,0.5c0-0.1,0-0.2-0.1-0.2L52,6.8l-0.2-0.5c-0.6-1-1.6-1.9-2.6-2.5
	c-0.3-0.2-0.6-0.4-0.9-0.5c-0.2-0.1-0.4-0.2-0.7-0.4c-0.5-0.2-0.9-0.5-1.4-0.7c0.1,0.1,0.1,0.1,0.2,0.2c0.3,0.3,0.6,0.5,0.9,0.8
	c0.3,0.3,0.7,0.6,1,0.8c0.2,0.1,0.3,0.3,0.5,0.4c0.1,0.1,0.1,0.2,0,0.2c-0.1,0.1-0.2,0.1-0.2,0c-0.8-0.7-1.7-1.5-2.5-2.2
	C46,2.4,45.8,2.2,45.6,2C45.6,2,45.5,2,45.4,2c-0.4-0.1-0.8-0.3-1.2-0.4c-0.3-0.1-0.5-0.2-0.8-0.2c-0.2-0.1-0.4-0.1-0.7-0.2
	c-0.5-0.1-1-0.3-1.6-0.4c-0.4-0.1-0.9-0.2-1.3-0.2c0.1,0.1,0.2,0.3,0.3,0.4c0.1,0.1,0.2,0.3,0.4,0.4c0.2,0.2,0.4,0.4,0.6,0.6
	c0.5,0.4,1,0.8,1.4,1.1c0.3,0.2,0.6,0.4,0.8,0.6c0.1,0.1,0.1,0.2,0,0.2c-0.1,0.1-0.2,0.1-0.2,0c-0.2-0.1-0.3-0.2-0.5-0.4
	c-0.5-0.3-0.9-0.7-1.3-1.1C41,2,40.4,1.5,40,1c-0.1-0.2-0.3-0.4-0.4-0.6c-0.1,0-0.2,0-0.4,0c-0.3,0-0.7-0.1-1-0.1
	c-0.1,0-0.2,0-0.3,0c0.3,0.3,0.7,0.6,1,0.9c0.4,0.3,0.8,0.7,1.2,1c0.2,0.1,0.4,0.3,0.6,0.4c0.1,0,0.1,0.2,0.1,0.2
	c0,0.1-0.2,0.1-0.2,0c-0.2-0.1-0.4-0.3-0.6-0.4c-0.4-0.3-0.8-0.7-1.2-1c-0.4-0.4-0.8-0.8-1.2-1.2c-0.1,0-0.3,0-0.4,0
	c-0.3,0-0.6,0-0.9,0c-0.2,0-0.5,0-0.7,0c-0.2,0-0.4,0-0.6,0.1c0,0-0.1,0-0.1,0c0.2,0.2,0.3,0.3,0.5,0.5c0.4,0.4,0.7,0.7,1.1,1.1
	c0.1,0.1,0.3,0.3,0.5,0.4c0.1,0.1,0.1,0.2,0,0.2c-0.1,0.1-0.2,0.1-0.2,0c-0.2-0.1-0.3-0.2-0.5-0.4c-0.6-0.6-1.2-1.2-1.8-1.8
	c-0.4,0-0.8,0.2-1.2,0.3c0.1,0,0.1,0.1,0.2,0.1c0.1,0,0.2,0.1,0.3,0.1c0,0,0,0,0,0c0.1,0,0.2,0,0.3,0c0.1,0,0.3,0,0.4,0.1
	c0.2,0,0.3,0.2,0.3,0.4c0,0.2-0.2,0.3-0.4,0.3c-0.1,0-0.2,0-0.4-0.1c0.5,0.4,0.9,0.8,1.4,1.2c0.1,0.1,0.1,0.1,0,0.2
	c-0.1,0.1-0.1,0.1-0.2,0c-0.1-0.1-0.2-0.2-0.4-0.3c-0.2-0.2-0.4-0.4-0.7-0.6C34,2.1,33.9,2,33.7,1.9c-0.1,0.1-0.3,0.1-0.4,0
	c-0.1,0-0.2-0.1-0.3-0.2c-0.1,0-0.2-0.1-0.3-0.1c-0.1,0-0.2,0-0.3,0c-0.1,0-0.2,0-0.3,0C32,1.8,31.9,2,31.9,2.3
	c-0.1,0.2-0.3,0.4-0.6,0.3C31.1,2.5,30.9,2.3,31,2c0-0.1,0.1-0.3,0.1-0.4c-0.5,0-1.1,0.1-1.6,0.2c-0.3,0.1-0.7,0.1-1,0.2
	c0.1,0.1,0.2,0.1,0.2,0.1c0.1,0,0.1,0.1,0.1,0.2c0,0.1-0.1,0.1-0.2,0.1c-0.2-0.1-0.3-0.2-0.4-0.3c0,0,0,0-0.1,0
	c-0.3,0.1-0.7,0.2-1,0.3c-0.2,0.1-0.5,0.2-0.7,0.3c0.3,0.3,0.7,0.7,1.1,0.8c0.1,0,0.1,0.1,0.1,0.2c0,0.1-0.1,0.1-0.2,0.1
	c-0.5-0.2-0.9-0.6-1.3-1c-0.4,0.2-0.8,0.3-1.2,0.6c0.3,0.4,0.7,0.7,1.1,0.9c0.1,0,0.1,0.1,0,0.2c0,0.1-0.1,0.1-0.2,0
	c-0.3-0.2-0.6-0.4-0.9-0.7c-0.1-0.1-0.2-0.2-0.3-0.3c-0.1,0.1-0.2,0.1-0.3,0.2c-0.3,0.2-0.6,0.4-0.9,0.6c0.1,0.1,0.3,0.2,0.4,0.4
	C24.3,4.8,24.6,5,25,5.2c0.1,0.1,0.3,0.2,0.5,0.2c0.1,0,0.1,0.1,0.1,0.2c0,0.1-0.1,0.1-0.2,0.1c-0.1,0-0.2-0.1-0.2-0.1
	c-0.1-0.1-0.3-0.1-0.4-0.2c-0.3-0.2-0.5-0.4-0.8-0.6c-0.2-0.1-0.3-0.3-0.5-0.5c0,0-0.1,0.1-0.1,0.1c-0.2,0.1-0.4,0.3-0.5,0.4
	c-0.1,0.1-0.2,0.2-0.3,0.2l-0.2,0.2l0,0c0.6,0.4,1.2,0.8,1.8,1.1c0.1,0,0.1,0.2,0.1,0.2c0,0.1-0.2,0.1-0.2,0.1
	c-0.6-0.4-1.2-0.8-1.8-1.3L22,5.6L21.7,6c-0.1,0.2-0.2,0.3-0.3,0.5c0,0.1-0.1,0.2-0.1,0.2c0.4,0.5,0.9,1,1.3,1.5
	c0.1,0.1,0,0.2,0,0.2c-0.1,0.1-0.2,0-0.2,0c-0.4-0.5-0.8-1-1.2-1.5c0,0.1-0.1,0.1-0.1,0.2c-0.2,0.4-0.3,0.8-0.4,1.2
	c0,0.1,0,0.1,0,0.2c0,0,0,0,0,0c0.2,0.2,0.5,0.5,0.8,0.7c0.2,0.2,0.4,0.3,0.6,0.5c0.1,0,0.1,0.1,0.2,0.1c0,0,0,0.1,0,0.1
	c0,0-0.1,0-0.1,0c-0.5-0.3-0.9-0.8-1.3-1.2c-0.1-0.1-0.1-0.1-0.2-0.2c-0.1,0.5-0.2,1-0.2,1.4c0.1,0.1,0.3,0.2,0.4,0.4
	c0,0,0,0.1,0,0.1h-0.1c-0.1-0.1-0.2-0.2-0.3-0.3c0,0.1,0,0.3,0,0.4c0,0.5-0.1,1-0.1,1.5c0.3,0.3,0.6,0.6,0.9,0.8c0,0,0,0,0,0.1
	c0,0,0,0-0.1,0c-0.4-0.2-0.7-0.5-0.9-0.8c0,0.7,0,1.4,0,2.1c0,0,0,0,0,0c0.4,0.5,1,1.1,1.5,1.4c0,0,0.1,0.1,0,0.1c0,0-0.1,0.1-0.1,0
	c-0.5-0.3-0.9-0.8-1.3-1.3c0,0-0.1-0.1-0.1-0.1c0,0.3,0,0.6,0,0.8c0.1,0.6,0.3,1.2,0.4,1.8c0,0,0,0.1,0,0.1c0.1,0.1,0.2,0.2,0.3,0.4
	c0.3,0.4,0.7,0.8,1.1,1.2c0,0,0,0.1,0,0.1c0,0-0.1,0-0.1,0c-0.4-0.4-0.8-0.8-1.1-1.2c0.1,0.6,0.3,1.2,0.4,1.8c0.1,0,0.1,0.1,0.2,0.1
	c0.1,0.1,0.2,0.2,0.3,0.3c0,0.1,0.1,0.1,0.2,0.2c0,0,0.1,0.1,0.1,0.2c0.1,0.1,0.1,0.2,0,0.2c-0.1,0.1-0.2,0.1-0.2,0
	c-0.1-0.1-0.2-0.2-0.3-0.3c0,0-0.1-0.1-0.1-0.1c0.1,0.3,0.1,0.6,0.2,0.8c0,0.2-0.1,0.3-0.2,0.3c0,0,0,0-0.1,0c0,0.1,0,0.2,0.1,0.3
	c0.1,0.1,0.1,0.2,0.2,0.3c0.1,0.2,0.1,0.5,0.1,0.7c0,0.1-0.1,0.3-0.2,0.3c-0.1,0-0.3-0.1-0.3-0.2c0-0.1,0-0.2,0-0.3
	c-0.1-0.2-0.2-0.4-0.3-0.5c0,0.4,0,0.7,0,1.1c0.2,0.1,0.3,0.3,0.5,0.4c0.1,0.1,0.3,0.2,0.4,0.3c0.1,0,0.1,0.1,0.1,0.2
	c0,0.1-0.1,0.1-0.2,0.1c-0.1,0-0.4-0.2-0.5-0.3c-0.1-0.1-0.2-0.2-0.3-0.3c0,0.2,0,0.3,0.1,0.5c0,0,0,0.1-0.1,0.1c0,0-0.1,0-0.1-0.1
	c0-0.2-0.1-0.4-0.1-0.7c0,0-0.1-0.1-0.1-0.1l-0.1,0c-0.1,0-0.1-0.1-0.1-0.2c0,0,0-0.1,0.1-0.1h0.1c0,0,0,0,0.1,0
	c0-0.2-0.1-0.4-0.1-0.5c0-0.2-0.1-0.4-0.1-0.7l0,0l-0.1,0c0.1,0.2,0,0.4-0.1,0.5l0,0c-0.1,0.3-0.3,0.5-0.5,0.7
	c-0.2,0.4-0.3,1-0.3,1.4c0,0,0,0,0,0.1c0.4,1.6,0.5,3.2,0.7,4.8c0,0.1,0,0.2,0,0.3l0.2,0.4l0.3,0.6c0.1,0.2,0.2,0.3,0.3,0.5
	c0.2,0.3,0.5,0.7,0.8,0.9c0,0,0,0,0.1,0c0.1,0,0.1-0.2,0.1-0.2c0.1-0.1,0.3-0.2,0.4-0.1c0.1,0,0.1,0.1,0.1,0.1
	c-0.1-0.2-0.1-0.3-0.2-0.5c0-0.1-0.1-0.2-0.1-0.2c-0.1-0.2-0.2-0.3-0.3-0.5c-0.1-0.1,0-0.2,0-0.2c0,0,0,0,0.1,0
	c-0.1-0.2-0.1-0.4-0.2-0.6c0,0,0-0.1,0-0.1c0,0,0.1,0,0.1,0c0.1,0.3,0.2,0.6,0.3,0.9c0.1,0.1,0.1,0.2,0.2,0.2
	c0.1,0.1,0.2,0.2,0.3,0.3c0.1,0.2,0.2,0.3,0.3,0.5c0.1,0.1,0.2,0.3,0.2,0.4c-0.1-0.2-0.1-0.4-0.2-0.6c-0.1-0.3-0.2-0.6-0.2-0.9
	c0-0.2,0-0.5,0-0.7c0.1,0.2,0.3,0.4,0.3,0.6c0,0.1,0.1,0.2,0.1,0.3c0.1,0.2,0.1,0.5,0.2,0.7c0.2,0.7,0.5,1.4,0.7,2
	c0.1,0.2,0.2,0.4,0.2,0.6c0.2,0.4,0.4,0.8,0.7,1.2c0.4,0.7,0.8,1.4,1.2,2.1c0.1,0.1,0.3,0.2,0.4,0.3c0.8,0.7,1.7,1.4,2.6,2
	c0,0,0.1-0.1,0.1-0.1c0,0,0.1,0,0.1,0c0.1,0.1,0.1,0.4,0.1,0.6c0,0.1,0,0.1,0,0.2c0.4,0.3,0.9,0.5,1.4,0.7c0,0,0.1,0.1,0,0.1
	c0,0-0.1,0.1-0.1,0c-0.3-0.1-0.6-0.3-0.8-0.4c0.1,0.1,0.3,0.2,0.4,0.3c0.5,0.4,1,0.8,1.6,1.1c0.8,0.6,1.7,1.2,2.5,1.7
	c0.1,0.1,0.1,0.2,0,0.2c-0.1,0.1-0.2,0.1-0.2,0c-0.3-0.2-0.5-0.4-0.8-0.6c-0.3-0.2-0.6-0.5-0.9-0.7c-0.9-0.6-1.7-1.3-2.6-2
	c-0.1-0.1-0.3-0.2-0.4-0.3c0,0.2,0,0.4,0,0.5c0,0.1,0,0.3,0,0.4c0,0,0,0.1,0,0.1c0.1,0.1,0.1,0.1,0.2,0.2c0.2,0.2,0.4,0.4,0.6,0.5
	c0.1,0.1,0.3,0.2,0.4,0.3c0.2,0.1,0.3,0.3,0.5,0.4c0.2,0.2,0.5,0.5,0.7,0.7c0.1,0.1,0.1,0.2,0,0.3H32c-0.1-0.1-0.3-0.3-0.4-0.4
	c-0.3-0.3-0.6-0.6-0.9-0.9c-0.1-0.1-0.3-0.2-0.4-0.3c-0.1-0.1-0.3-0.3-0.4-0.4c0,0.1,0,0.3,0,0.4c0,0.4,0,0.8,0,1.2
	c0.1,0.6,0.1,1.1,0.1,1.7c0,0.5,0,0.9,0,1.4c0,0.2-0.2,0.4-0.3,0.4l0,0l0,0c0,0,0,0.1,0,0.1c0,0,0,0,0,0c0,0.1,0,0.3,0,0.4
	c0,0.1,0,0.4,0,0.5c0,0,0,0,0,0.1c-0.1,0.2-0.4,0.3-0.6,0.2c-0.1-0.1-0.2-0.2-0.2-0.3c-0.3,0.2-0.5,0.4-0.8,0.6
	c-1,0.7-2.1,1.4-3.2,1.9c-0.2,0.1-0.4,0.2-0.7,0.3c-0.5,0.3-1,0.5-1.5,0.7c0,0-0.1,0.1-0.1,0.1c-0.8,0.5-1.7,1-2.5,1.5
	c0.1,0,0.3,0,0.4,0c1.2-0.1,2.3-0.1,3.5-0.2C23.5,53,23.2,53,23,53c-0.5,0.1-0.9,0.1-1.4,0.2c-0.8,0.1-1.6,0.2-2.4,0.3
	c-0.4,0.2-0.8,0.4-1.2,0.6c-1.3,0.6-2.6,1.1-4,1.5c-0.5,0.2-1,0.3-1.6,0.5c-0.3,0.1-0.5,0.1-0.8,0.2c-0.1,0.1-0.2,0.1-0.4,0.2
	c-1.1,0.5-2.2,1-3.3,1.4c-0.3,0.1-0.5,0.2-0.8,0.3c-0.1,0.2-0.2,0.5-0.3,0.7l-0.3,0.7l0,0c0.1,0.1,0,0.3-0.1,0.4l-0.2,0.1L6,60.7
	c-0.6,1.5-1.2,2.9-1.6,4.4c1.1,1.2,2.2,2.2,3.5,3.2c0.3,0.2,0.6,0.5,0.8,0.7c0.3,0.3,0.7,0.6,1.1,0.9c0.7,0.6,1.5,1.2,2.3,1.7
	c0,0,0,0,0,0h2.1C13.4,71,12.6,70.4,11.9,69.8z M26.9,70.9c-0.4-0.3-0.9-0.5-1.3-0.8c-0.5-0.4-1.1-0.8-1.6-1.2
	c-0.2-0.2-0.4-0.4-0.7-0.5c-0.9-0.7-1.7-1.5-2.6-2.3l0,0c1,0.9,1.9,1.7,3,2.5c0.6,0.5,1.2,1,1.9,1.4c0.3,0.2,0.7,0.4,1,0.6
	c0.5,0.3,1,0.5,1.5,0.8c0,0,0.1,0.1,0,0.1c0,0-0.1,0.1-0.1,0C27.7,71.4,27.3,71.1,26.9,70.9z M29.1,70.6c-1.2-0.7-2.3-1.5-3.3-2.4
	c-0.6-0.6-1.3-1.2-1.8-1.8c0,0,0-0.1,0-0.1c0,0,0.1,0,0.1,0c0.9,1,2,2,3,2.7c0.3,0.2,0.7,0.5,1,0.7c0.7,0.5,1.4,0.9,2.2,1.3
	c0,0,0.1,0.1,0,0.1c0,0-0.1,0.1-0.1,0C29.9,71,29.5,70.8,29.1,70.6z M71.2,70.3L71.2,70.3c0-0.1,0.1-0.1,0.1-0.2l0-0.1L71.2,70.3
	L71.2,70.3z M66.6,57.2L66.6,57.2L66.6,57.2C66.5,57.2,66.5,57.2,66.6,57.2L66.6,57.2z M7.5,57L7.5,57L7.5,57z M8.2,56.8
	c0.3-0.1,0.5-0.2,0.8-0.3c0.7-0.4,1.4-0.8,2.1-1.2c0.2-0.1,0.5-0.2,0.7-0.4c0,0-0.1,0-0.1,0c-0.7,0.2-1.3,0.5-2,0.9
	c-0.3,0.1-0.6,0.3-0.9,0.5c-0.3,0.2-0.6,0.3-0.8,0.5C8.1,56.8,8.2,56.8,8.2,56.8z M54.7,52.8c-1.3-0.6-2.5-1.3-3.7-2
	c-0.1-0.1-0.2-0.1-0.4-0.2c-0.5-0.2-1.1-0.5-1.6-0.7c-0.4-0.2-0.8-0.4-1.1-0.6c-0.7-0.4-1.4-0.8-2-1.4c0,0,0-0.1,0-0.1
	c0,0,0.1,0,0.1,0c0.3,0.2,0.5,0.3,0.8,0.5c0.4,0.2,0.9,0.4,1.3,0.6c-0.3-0.2-0.7-0.5-1-0.7c-0.4-0.3-0.8-0.6-1.2-0.9c0,0,0,0,0,0
	c0,0.1,0,0.1,0,0.2v0l0,0c0,0,0,0.1,0,0.1c0,0.1-0.1,0.2-0.2,0.3c0.2,0.1,0.4,0.3,0.5,0.4c0.9,0.7,1.9,1.3,2.9,1.9
	c0.7,0.4,1.4,0.8,2.1,1.1c0.7,0.3,1.4,0.7,2.1,1C53.7,52.5,54.2,52.7,54.7,52.8C54.7,52.8,54.7,52.8,54.7,52.8z M24.3,50.5
	c0.8-0.5,1.7-1,2.4-1.5c0.4-0.2,0.7-0.5,1.1-0.7c0.2-0.2,0.5-0.4,0.7-0.6c0-0.3,0-0.7,0-1c-0.2,0.2-0.3,0.3-0.5,0.5
	c-0.2,0.2-0.3,0.3-0.5,0.5c0,0,0,0,0.1,0c0.2-0.1,0.3,0,0.4,0.1s0,0.3-0.1,0.4c-0.1,0-0.1,0.1-0.2,0.1c-0.3,0.2-0.6,0.4-0.9,0.5
	c-0.3,0.2-0.6,0.3-0.9,0.5c-0.1,0.1-0.2,0.1-0.3,0.2c-0.5,0.5-1.1,0.9-1.7,1.3C24,50.6,24.1,50.5,24.3,50.5z M42.9,48.4
	c-0.4-0.2-0.8-0.4-1.2-0.6c-0.7-0.4-1.4-0.7-2.2-1.1c0,0,0,0,0-0.1c0,0,0,0,0.1,0c1.1,0.6,2.3,1.1,3.4,1.7c0.5,0.3,1.1,0.6,1.6,0.9
	c0.2,0.1,0.5,0.3,0.7,0.5c0,0,0.1,0.1,0,0.1c0,0-0.1,0.1-0.1,0C44.4,49.3,43.7,48.8,42.9,48.4z M41.3,48.9c-0.1-0.1-0.2-0.2-0.2-0.2
	l0,0c0.3,0.4,0.8,0.8,1.3,0.9l0,0C41.9,49.4,41.7,49.3,41.3,48.9z M44.7,48.8c-0.2-0.2-0.5-0.3-0.7-0.5c-0.2-0.1-0.4-0.3-0.5-0.4
	c-0.2-0.2-0.5-0.4-0.7-0.5c-0.5-0.4-1.1-0.8-1.6-1.2c-0.2-0.1-0.4-0.3-0.6-0.4c-0.2-0.1-0.4-0.3-0.7-0.4c-0.3-0.2-0.6-0.3-0.9-0.5
	c0,0,0,0,0-0.1c0,0,0,0,0.1,0c0.3,0.2,0.5,0.3,0.8,0.5c0.5,0.3,1.1,0.7,1.6,1c0.6,0.4,1.1,0.8,1.7,1.1c0.2,0.1,0.4,0.3,0.6,0.4
	c0.4,0.3,0.8,0.6,1.2,0.9c0.2,0.2,0.4,0.4,0.7,0.5c0,0,0,0.1,0,0.1c0,0-0.1,0-0.1,0C45.2,49.2,45,49,44.7,48.8z M44.9,46.9l0-0.6
	l-0.1,0C44.8,46.5,44.8,46.7,44.9,46.9c0,0.1,0,0.3,0,0.5c0,0,0,0,0,0C44.9,47.3,44.9,47.1,44.9,46.9z M44.1,45.5
	c-0.6-0.4-1.2-0.8-1.8-1.3c-0.4-0.3-0.8-0.6-1.1-0.9c-0.3,0.1-0.6,0.2-0.9,0.3c0.3,0.2,0.6,0.4,0.9,0.6c0.9,0.6,1.7,1.2,2.5,1.9
	c0.2,0.1,0.3,0.3,0.5,0.4C44.2,46.2,44.1,45.8,44.1,45.5z M44,44.2c0-0.2,0-0.3,0-0.5c-0.5-0.3-1-0.6-1.4-1
	c-0.2,0.1-0.5,0.2-0.7,0.3c-0.1,0.1-0.2,0.1-0.3,0.1c0.3,0.2,0.6,0.4,0.8,0.6c0.6,0.4,1.2,0.9,1.8,1.3C44,44.8,44,44.5,44,44.2z
	 M44.8,43.9l0-0.8c0,0.1,0,0.3-0.1,0.4c0,0,0,0,0,0L44.8,43.9z M40.8,43c-0.1-0.1-0.2-0.1-0.3-0.2c-0.2,0.1-0.5,0.2-0.7,0.3
	c-0.1,0-0.2,0.1-0.3,0.1c0.1,0.1,0.2,0.1,0.3,0.2C40.2,43.3,40.5,43.2,40.8,43z M43.9,42c-0.2,0.1-0.4,0.2-0.6,0.4
	c-0.2,0.1-0.3,0.2-0.5,0.3c0.4,0.3,0.8,0.5,1.2,0.8C43.9,43,43.9,42.5,43.9,42z M42.1,42.5C42.1,42.5,42.1,42.5,42.1,42.5
	c0-0.1,0-0.1-0.1-0.1c-0.1,0-0.1-0.1-0.2-0.1c0,0-0.1,0-0.1,0.1c-0.3,0.2-0.6,0.3-1,0.4l0,0c0.1,0.1,0.2,0.1,0.3,0.2
	C41.4,42.8,41.7,42.6,42.1,42.5z M44.6,42.2c0-0.1,0-0.1,0-0.2c-0.1,0-0.1-0.1-0.2-0.1c0,0.2,0,0.3,0.1,0.5c0,0.2,0,0.3,0.1,0.5
	C44.6,42.7,44.6,42.5,44.6,42.2z M43.6,41.6c0,0,0-0.1,0-0.1c-0.1-0.1-0.1-0.1-0.2-0.2c-0.3,0.2-0.6,0.4-0.8,0.5
	c-0.2,0.1-0.4,0.2-0.6,0.3c0,0,0.1,0,0.1,0.1c0.1,0,0.1,0.1,0.2,0.2C42.7,42.1,43.2,41.9,43.6,41.6z M44.6,42
	C44.6,42.1,44.6,42.1,44.6,42C44.6,42,44.6,42.1,44.6,42C44.6,42.1,44.6,42,44.6,42z M44.6,41.6C44.6,41.6,44.5,41.6,44.6,41.6
	c-0.1,0.1,0,0.1,0,0.2c0,0,0,0,0,0C44.6,41.7,44.6,41.6,44.6,41.6z M44.5,41.6C44.5,41.6,44.4,41.7,44.5,41.6
	C44.4,41.6,44.4,41.6,44.5,41.6c0,0.1,0,0.1,0,0.1C44.5,41.7,44.5,41.7,44.5,41.6z M43.9,41.3c0-0.1,0-0.2,0-0.3
	c-0.1,0.1-0.2,0.2-0.3,0.2C43.6,41.2,43.7,41.3,43.9,41.3C43.8,41.3,43.8,41.3,43.9,41.3C43.8,41.3,43.9,41.3,43.9,41.3z M44.3,40.9
	c0,0,0-0.1,0.1-0.1L44.3,40.9l0.1,0c0,0,0,0.1,0,0.1c0,0,0.1,0,0.1-0.1c0,0,0-0.1,0-0.1c0,0-0.1,0-0.1,0c0,0,0,0,0-0.1
	c0,0,0,0-0.1,0c0,0.1,0,0.2,0,0.3C44.3,41,44.3,40.9,44.3,40.9z M29.4,40.6c0-0.1,0-0.2,0-0.3l0-0.1c0,0,0,0,0,0l0,0.1
	c0,0.1,0,0.2-0.1,0.2c0,0,0,0,0,0c0,0,0.1,0.1,0,0.2c0,0-0.1,0-0.1,0c0,0,0,0,0,0c0.1,0.1,0.1,0.1,0.2,0.2
	C29.4,40.8,29.4,40.7,29.4,40.6z M43.1,40.8C43.1,40.8,43.1,40.8,43.1,40.8C43.1,40.8,43.1,40.8,43.1,40.8
	C43.1,40.8,43.1,40.8,43.1,40.8z M44.8,40.7c0,0,0-0.1,0-0.1C44.7,40.6,44.7,40.6,44.8,40.7C44.7,40.6,44.7,40.7,44.8,40.7
	C44.7,40.7,44.7,40.7,44.8,40.7z M29.1,40c-0.1,0-0.1-0.1-0.2-0.1c-0.1-0.1-0.2-0.2-0.3-0.2c0,0.1,0.1,0.3,0.1,0.4
	c0.1,0.1,0.2,0.2,0.3,0.3C29.1,40.3,29.1,40.1,29.1,40z M29.2,39.6C29.2,39.6,29.2,39.6,29.2,39.6c-0.9-0.6-1.8-1.4-2.6-2.1
	c-0.1,0-0.1-0.1-0.2-0.1c0,0.1,0.1,0.1,0.1,0.2c0.8,0.9,1.7,1.6,2.6,2.3C29.2,39.7,29.2,39.7,29.2,39.6z M28.2,39.4
	c-0.3-0.2-0.6-0.4-0.9-0.7c0.2,0.3,0.5,0.5,0.7,0.8C28.1,39.4,28.1,39.4,28.2,39.4z M28.1,37c-0.3-0.2-0.6-0.4-0.8-0.6
	c-0.3-0.2-0.5-0.4-0.8-0.6c-0.3-0.2-0.6-0.4-0.8-0.6c-0.2-0.1-0.4-0.3-0.6-0.5l0-0.1c0.1,0.1,0.3,0.3,0.5,0.4
	c0.3,0.2,0.6,0.5,0.9,0.7c0.5,0.4,1,0.8,1.6,1.1c0.2,0.1,0.4,0.3,0.7,0.4c0,0,0,0,0,0.1c0,0,0,0-0.1,0C28.5,37.2,28.3,37.1,28.1,37z
	 M45.5,36c-0.2-0.1-0.3-0.2-0.5-0.3c-0.6-0.5-1.2-0.9-1.7-1.5c0,0,0-0.1,0-0.1c0,0,0.1,0,0.1,0c0.1,0.2,0.3,0.4,0.5,0.5
	c0.3,0.3,0.7,0.5,1,0.8c0.3,0.2,0.7,0.5,1,0.7c0.2,0.1,0.3,0.3,0.5,0.4c0.1,0,0.1,0.1,0,0.2c0,0.1-0.1,0.1-0.2,0
	C46,36.4,45.8,36.2,45.5,36z M50.5,32.6c0.1-0.1,0.1-0.2,0.2-0.3c0,0,0,0,0,0c0,0-0.1-0.1-0.1-0.1c-0.1,0.2-0.1,0.3-0.2,0.5
	c0,0.1-0.1,0.2-0.1,0.3C50.3,32.9,50.4,32.7,50.5,32.6z M22.5,31.8c0-0.1-0.1-0.1-0.1-0.2c0,0.1,0,0.1,0,0.2c0,0,0,0,0,0.1
	c0,0,0.1,0.1,0.1,0.1c0,0,0,0,0.1,0.1C22.6,31.9,22.6,31.8,22.5,31.8z M22.4,31.5C22.4,31.5,22.5,31.5,22.4,31.5
	C22.5,31.5,22.4,31.5,22.4,31.5z M49.6,30c-0.2-0.2-0.5-0.6-0.8-0.7c-0.1,0-0.2,0-0.3,0c-0.1,0-0.1-0.1-0.1-0.1
	c0-0.1,0.1-0.1,0.1-0.1c0,0,0.1,0,0.2,0c0,0,0.1,0,0.1,0c0.3,0,0.7,0.4,0.9,0.6c0.2,0.2,0.5,0.5,0.8,0.6c0.1,0,0.1,0.2,0.1,0.3
	c0,0.1-0.2,0.1-0.3,0.1C50.1,30.5,49.8,30.2,49.6,30z M21.9,27.8c-0.3-0.2-0.6-0.5-0.9-0.6c-0.1,0-0.2-0.1-0.4-0.1
	c-0.1,0-0.1-0.1-0.1-0.1c0-0.1,0.1-0.1,0.1-0.1c0.1,0,0.2,0,0.3,0.1c0.1,0,0.2,0.1,0.3,0.1c0.1,0.1,0.3,0.2,0.5,0.3
	c0.4,0.3,0.8,0.6,1.2,0.9c0.1,0,0.1,0.1,0,0.2c0,0.1-0.1,0.1-0.2,0C22.4,28.2,22.1,28,21.9,27.8z M51.1,27.3
	c-0.1-0.1-0.2-0.2-0.3-0.3c-0.2-0.2-0.4-0.4-0.5-0.7c0-0.1,0-0.2,0.1-0.2c0.1,0,0.2,0,0.2,0.1c0.2,0.4,0.7,0.8,1,1.1
	c0.1,0.1,0.1,0.2,0,0.3c-0.1,0.1-0.2,0.1-0.3,0C51.3,27.5,51.2,27.4,51.1,27.3z M22.3,26.9c-0.4-0.3-0.8-0.6-1.2-1
	c-0.2-0.2-0.3-0.4-0.4-0.6c0,0,0-0.1,0-0.1c0,0,0.1,0,0.1,0c0.5,0.8,1.2,1.3,2,1.7c0.1,0,0.1,0.1,0,0.2c0,0.1-0.1,0.1-0.2,0
	C22.6,27.1,22.4,27,22.3,26.9z M51.6,26.6c-0.1-0.2-0.3-0.3-0.5-0.4c-0.2-0.1-0.4-0.3-0.6-0.5c-0.6-0.5-1.2-1-1.8-1.4
	c-0.4-0.3-0.8-0.5-1.1-0.8c0,0,0,0,0-0.1c0,0,0,0,0.1,0c0.2,0.1,0.4,0.2,0.6,0.4c0.2,0.1,0.3,0.2,0.5,0.4c0.6,0.4,1.1,0.8,1.7,1.2
	c0,0,0-0.1,0-0.1c0-0.1,0-0.2,0.2-0.2c0.1,0,0.2,0,0.2,0.2c0,0.4,0.6,0.6,0.9,0.8c0.1,0.1,0.2,0.2,0.3,0.3c0,0,0,0.1,0.1,0.1
	c0,0,0,0,0,0c0.1,0,0.1,0.1,0,0.2c0,0,0,0-0.1,0.1c0,0,0,0.1-0.1,0.1C51.8,26.8,51.7,26.7,51.6,26.6z M21.1,24.4
	c-0.1-0.1-0.3-0.3-0.4-0.3c0,0-0.1-0.1-0.1-0.1c-0.1,0-0.1-0.1,0-0.2c0-0.1,0.1-0.1,0.2,0c0.1,0,0.1,0.1,0.2,0.1
	c0.2,0.1,0.4,0.3,0.5,0.4c0.3,0.3,0.6,0.7,1,0.9c0.1,0,0.1,0.1,0.1,0.2c0,0.1-0.1,0.1-0.2,0.1C21.8,25.2,21.5,24.8,21.1,24.4z
	 M52.8,24.3c0.1-0.5,0.1-1.1,0.1-1.6c-0.1,0.1-0.2,0.2-0.3,0.3h-0.2c-0.1-0.1-0.1-0.2,0-0.2c0,0,0.1-0.1,0.1-0.1c-0.1,0-0.2,0-0.3,0
	c0,0.1,0,0.2,0,0.2c0,0.1-0.1,0.3-0.2,0.3c0,0.1,0,0.2,0,0.3c0,0.1-0.1,0.1-0.1,0.1c-0.1,0-0.1-0.1-0.1-0.1c0-0.1,0-0.2,0-0.3
	c-0.1,0-0.2,0-0.2-0.1c0,0-0.1,0.1-0.1,0.1C51.6,23.9,52.3,24,52.8,24.3C52.8,24.3,52.8,24.3,52.8,24.3z M21.8,23.5L21.8,23.5
	L21.8,23.5L21.8,23.5l-0.1-0.1l0.2,0l0.2,0l0,0l0,0l0,0l0,0l0,0l0,0c0,0.1,0,0.1-0.1,0.1C21.8,23.6,21.8,23.5,21.8,23.5z M52.8,22.3
	C52.8,22.3,52.8,22.3,52.8,22.3C52.8,22.3,52.8,22.3,52.8,22.3C52.8,22.3,52.8,22.3,52.8,22.3z M52.5,21.7c0.2,0,0.3-0.1,0.5-0.1
	c0,0,0,0,0,0c0-0.2,0-0.3,0-0.5c0-0.2,0-0.4,0-0.6c0,0,0,0,0,0c0,0.1-0.1,0.1-0.2,0.1c-0.1,0-0.1-0.1-0.1-0.2
	c0.1-0.6,0.2-1.2,0.4-1.8c0-0.4,0-0.7,0-1.1c0-0.1,0-0.1,0-0.2c-0.1,0.6-0.3,1.3-0.4,1.9c0,0.2-0.1,0.5-0.1,0.7c0,0.1,0,0.2,0,0.2
	c0,0.1,0,0.2,0,0.2c0,0,0,0-0.1,0.1c-0.1,0.4-0.1,0.8-0.2,1.2C52.3,21.7,52.4,21.7,52.5,21.7z M20.7,21.1
	C20.7,21.1,20.7,21.1,20.7,21.1C20.7,21.1,20.7,21.1,20.7,21.1C20.7,21.1,20.7,21.1,20.7,21.1z M53.7,16.3c0-0.2,0.1-0.4,0.1-0.6
	c0-0.1-0.1-0.2-0.1-0.3c0-0.1-0.1-0.2-0.1-0.3c-0.1,0.4-0.1,0.8-0.2,1.2c0,0.3,0.1,0.7,0.1,1C53.6,16.9,53.6,16.6,53.7,16.3z
	 M54,14.6c0.1-0.9,0.2-1.8,0.1-2.7c0-0.4,0-0.8-0.1-1.3c0-0.3-0.1-0.6-0.1-0.8c-0.1-0.3-0.1-0.6-0.2-1c-0.1-0.6-0.4-1.2-0.6-1.7
	c0,0,0,0,0-0.1c0.2,0.8,0.4,1.5,0.6,2.3c0.2,1.2,0.3,2.5,0.2,3.7c0,0.4-0.1,0.7-0.1,1.1c0,0.1,0.1,0.1,0.1,0.2
	c0,0.1,0.1,0.2,0.1,0.3C53.9,14.7,54,14.7,54,14.6z M50.4,11.6c-0.2-0.2-0.4-0.3-0.6-0.5c-0.1-0.1-0.2-0.1-0.2-0.2
	c-0.1-0.1-0.3-0.2-0.4-0.3c-0.2-0.1-0.3-0.2-0.5-0.3c-0.1,0-0.1-0.1-0.1-0.2c0-0.1,0.1-0.1,0.2-0.1c1.5,0.8,2.5,1.9,3.7,3
	c0.1,0.1,0.1,0.2,0,0.3h-0.3C51.6,12.8,51,12.1,50.4,11.6z M19.8,12.5c0-0.2,0-0.5,0-0.7c-0.1-0.1-0.1-0.2-0.2-0.3
	c0,0.6,0.1,1.1,0.2,1.7C19.8,13,19.8,12.8,19.8,12.5z M19.8,11.5c0-0.2,0-0.3,0-0.5c0-0.4,0-0.7,0.1-1.1c-0.1-0.1-0.2-0.2-0.3-0.3
	c0,0.1,0,0.1,0,0.2c0,0.5,0,1.1,0,1.6c0,0,0.1,0.1,0.1,0.1c0,0,0.1,0.1,0.1,0.1C19.8,11.6,19.8,11.5,19.8,11.5z M20.1,8.3
	C20.1,8.2,20.1,8.2,20.1,8.3c0-0.1,0-0.1-0.1-0.2C20,8,20,8,19.9,7.9c0,0.1-0.1,0.2-0.1,0.4c-0.1,0.4-0.2,0.8-0.2,1.2
	c0.1,0.1,0.2,0.2,0.3,0.3C20,9.2,20.1,8.7,20.1,8.3z M20.7,6.5c0,0-0.1-0.1-0.1-0.1c-0.2,0.3-0.3,0.7-0.5,1.1C20,7.5,20,7.7,20,7.8
	C20,7.9,20.1,8,20.2,8.1C20.3,7.6,20.5,7,20.7,6.5z M21.1,5.7c0-0.1,0.1-0.1,0.1-0.2c0.1-0.1,0.2-0.2,0.3-0.3c0,0,0.1-0.1,0.1-0.2
	c0,0,0,0-0.1-0.1C21.3,5.3,21,5.6,20.8,6c0,0.1-0.1,0.1-0.1,0.2c0,0,0.1,0.1,0.1,0.1C20.9,6,21,5.9,21.1,5.7z M22.7,4
	C22.8,4,22.9,3.9,23,3.8c0,0-0.1-0.1-0.1-0.1L22.6,4c-0.3,0.3-0.6,0.5-0.9,0.8c0,0,0.1,0,0.1,0.1C22.1,4.6,22.4,4.3,22.7,4z
	 M44.2,3.5c-0.7-0.6-1.4-1.3-1.9-2.2c0-0.1,0-0.2,0-0.2c0.1,0,0.2,0,0.2,0c0.3,0.5,0.7,1,1.1,1.4c0.1,0.1,0.2,0.2,0.4,0.3
	c0.6,0.6,1.3,1.1,2,1.6c0.1,0.1,0.1,0.2,0,0.2c-0.1,0.1-0.2,0.1-0.2,0C45.3,4.4,44.7,4,44.2,3.5z M23.4,3.5c0.3-0.2,0.7-0.4,1-0.6
	c0,0-0.1-0.1-0.2-0.1c0,0-0.1,0.1-0.1,0.1l-0.7,0.4l-0.4,0.3l-0.1,0c0,0,0.1,0.1,0.1,0.1C23.2,3.7,23.3,3.6,23.4,3.5z M49.8,3.1
	C49.8,3.1,49.8,3.1,49.8,3.1c0.2,0.1,0.4,0.2,0.5,0.4C50.2,3.4,50,3.3,49.8,3.1z M48.1,1.9c-0.1-0.1-0.3-0.1-0.4-0.2
	c-0.1-0.1-0.3-0.1-0.4-0.2c-0.1-0.1-0.2-0.1-0.4-0.2C46.6,1.2,46.3,1.1,46,1c-0.3-0.1-0.7-0.2-1-0.3c-0.6-0.2-1.2-0.3-1.9-0.5
	C42.8,0.1,42.4,0,42,0c0.3,0.1,0.7,0.2,1,0.3c0.3,0.1,0.6,0.2,1,0.3c0.5,0.1,0.9,0.3,1.4,0.5c0.5,0.2,0.9,0.3,1.4,0.5
	c0.3,0.1,0.6,0.3,0.9,0.4C47.8,2,47.9,2,48,2.1c0.2,0.1,0.5,0.2,0.7,0.4c0.1,0,0.2,0.1,0.3,0.2c0.3,0.1,0.6,0.3,0.8,0.5
	C49.3,2.6,48.7,2.2,48.1,1.9z M31.2,3c0-0.1,0-0.2,0.1-0.2c0.1-0.1,0.2-0.1,0.3-0.1c0.1,0,0.3,0,0.4-0.1c0.2-0.1,0.2-0.2,0.3-0.3
	c0.1,0,0.3-0.1,0.4-0.1c0.1,0,0.1,0,0.1,0.1c0,0.1,0,0.1-0.1,0.1c0,0.1-0.1,0.1-0.2,0.1c-0.1,0-0.2,0.1-0.2,0.1c-0.1,0-0.2,0-0.3,0
	c-0.2,0.1-0.2,0.2-0.4,0.3C31.6,3,31.5,3,31.4,3.1C31.3,3.1,31.2,3.1,31.2,3z M25.8,2.2c-0.1-0.1-0.1-0.1-0.2-0.2
	c-0.3,0.1-0.5,0.2-0.8,0.4c-0.1,0.1-0.3,0.1-0.4,0.2c0.1,0,0.1,0.1,0.2,0.1C25,2.6,25.4,2.4,25.8,2.2z M38.1,2.2
	c-0.1-0.1-0.3-0.3-0.4-0.4c-0.5-0.4-1-0.8-1.4-1.3c0,0,0-0.1,0-0.1c0,0,0.1,0,0.1,0c0.4,0.4,0.8,0.8,1.3,1.1
	c0.2,0.1,0.3,0.3,0.5,0.4c0.1,0.1,0.1,0.1,0.2,0.2c0,0,0,0.1,0,0.2C38.3,2.3,38.2,2.3,38.1,2.2z M27.7,1.6c0,0-0.1-0.1-0.1-0.1
	c0,0,0,0,0,0c-0.4,0.1-0.8,0.2-1.2,0.3C26.2,1.9,26,1.9,25.8,2c0,0,0,0,0,0c0,0,0.1,0.1,0.1,0.1C26.6,1.9,27.1,1.7,27.7,1.6z
	 M28.1,1.4c0.4-0.1,0.8-0.2,1.2-0.3c0.1,0,0.2,0,0.3-0.1c-0.6,0-1.2,0.1-1.7,0.2c0,0,0,0,0.1,0.1c0,0,0,0,0,0.1
	C28.1,1.5,28.1,1.5,28.1,1.4z"/>
</svg>
